<?xml version="1.0" encoding="UTF-8" standalone="no"?>
<svg width="18px" height="48px" viewBox="0 0 18 48" version="1.1" xmlns="http://www.w3.org/2000/svg" xmlns:xlink="http://www.w3.org/1999/xlink" xmlns:sketch="http://www.bohemiancoding.com/sketch/ns">
    <!-- Generator: Sketch 3.4.4 (17249) - http://www.bohemiancoding.com/sketch -->
    <title>lv10</title>
    <desc>Created with Sketch.</desc>
    <defs></defs>
    <g id="Page-1" stroke="none" stroke-width="1" fill="none" fill-rule="evenodd" sketch:type="MSPage">
        <path d="M2.31,8.75697726 L2.31,2.69297726 L12.193,5.72497726 L2.31,8.75697726 Z M16.182,13.9639773 L2.31,13.9639773 L2.31,11.1719773 L16.459,6.83197726 C16.514,6.81497726 16.553,6.78997726 16.587,6.76797726 C16.637,6.74497726 16.682,6.71997726 16.734,6.68897726 C16.82,6.63197726 16.888,6.57697726 16.949,6.51297726 C16.987,6.47297726 17.019,6.43097726 17.052,6.38397726 C17.107,6.30597726 17.15,6.22797726 17.176,6.15897726 L17.225,6.06097726 C17.24,6.01297726 17.24,5.97097726 17.238,5.96397726 C17.254,5.88797726 17.262,5.80997726 17.262,5.72497726 C17.262,5.63997726 17.254,5.56197726 17.24,5.50097726 L17.224,5.38597726 C17.209,5.33997726 17.188,5.30797726 17.183,5.30597726 C17.151,5.22397726 17.108,5.14497726 17.049,5.05997726 C17.018,5.01697726 16.986,4.97597726 16.948,4.93597726 C16.89,4.87397726 16.822,4.81897726 16.728,4.75797726 C16.682,4.72997726 16.637,4.70397726 16.578,4.67597726 C16.552,4.65897726 16.514,4.63497726 16.459,4.61697726 L1.557,0.0459772633 C1.45,0.0129772633 1.341,0.00897726326 1.264,0.0109772633 C1.243,0.00497726326 1.202,-0.00502273674 1.095,0.00297726326 C0.481,0.0369772633 0,0.539977263 0,1.14897726 L0,46.2719773 C0,46.9079773 0.518,47.4269773 1.155,47.4269773 C1.792,47.4269773 2.31,46.9079773 2.31,46.2719773 L2.31,16.2739773 L16.182,16.2739773 C16.819,16.2739773 17.337,15.7559773 17.337,15.1189773 C17.337,14.4829773 16.819,13.9639773 16.182,13.9639773 L16.182,13.9639773 Z" id="lv10" fill="#FFF" sketch:type="MSShapeGroup"></path>
    </g>
</svg>