<?xml version="1.0" encoding="UTF-8" standalone="no"?>
<svg width="18px" height="48px" viewBox="0 0 18 48" version="1.1" xmlns="http://www.w3.org/2000/svg" xmlns:xlink="http://www.w3.org/1999/xlink" xmlns:sketch="http://www.bohemiancoding.com/sketch/ns">
    <!-- Generator: Sketch 3.4.4 (17249) - http://www.bohemiancoding.com/sketch -->
    <title>lv11</title>
    <desc>Created with Sketch.</desc>
    <defs></defs>
    <g id="Page-1" stroke="none" stroke-width="1" fill="none" fill-rule="evenodd" sketch:type="MSPage">
        <path d="M2.31,8.7574081 L2.31,2.6934081 L12.193,5.7254081 L2.31,8.7574081 Z M16.182,13.9644081 L2.31,13.9644081 L2.31,11.1724081 L16.46,6.8314081 C16.515,6.8154081 16.554,6.7904081 16.586,6.7684081 C16.637,6.7464081 16.682,6.7204081 16.734,6.6894081 C16.822,6.6314081 16.89,6.5754081 16.949,6.5134081 C16.987,6.4734081 17.019,6.4314081 17.052,6.3844081 C17.107,6.3064081 17.15,6.2284081 17.176,6.1614081 L17.225,6.0614081 C17.24,6.0134081 17.24,5.9714081 17.238,5.9644081 C17.254,5.8884081 17.262,5.8104081 17.262,5.7254081 C17.262,5.6404081 17.254,5.5624081 17.24,5.5014081 L17.225,5.3914081 C17.211,5.3424081 17.188,5.3094081 17.183,5.3044081 C17.15,5.2224081 17.108,5.1444081 17.049,5.0604081 C17.018,5.0174081 16.987,4.9764081 16.948,4.9354081 C16.888,4.8724081 16.82,4.8174081 16.728,4.7584081 C16.682,4.7304081 16.637,4.7044081 16.58,4.6764081 C16.554,4.6594081 16.515,4.6354081 16.459,4.6174081 L1.557,0.0464081037 C1.451,0.0134081037 1.35,0.00840810367 1.264,0.0114081037 C1.243,0.00540810367 1.203,-0.00559189633 1.095,0.00340810367 C0.481,0.0374081037 0,0.540408104 0,1.1494081 L0,46.2724081 C0,46.9084081 0.518,47.4274081 1.155,47.4274081 C1.792,47.4274081 2.31,46.9084081 2.31,46.2724081 L2.31,20.9314081 L7.779,20.9314081 C8.415,20.9314081 8.934,20.4124081 8.934,19.7764081 C8.934,19.1394081 8.415,18.6214081 7.779,18.6214081 L2.31,18.6214081 L2.31,16.2744081 L16.182,16.2744081 C16.819,16.2744081 17.337,15.7564081 17.337,15.1194081 C17.337,14.4834081 16.819,13.9644081 16.182,13.9644081 L16.182,13.9644081 Z" id="lv11" fill="#FFF" sketch:type="MSShapeGroup"></path>
    </g>
</svg>