<?xml version="1.0" encoding="UTF-8" standalone="no"?>
<svg width="18px" height="48px" viewBox="0 0 18 48" version="1.1" xmlns="http://www.w3.org/2000/svg" xmlns:xlink="http://www.w3.org/1999/xlink" xmlns:sketch="http://www.bohemiancoding.com/sketch/ns">
    <!-- Generator: Sketch 3.4.4 (17249) - http://www.bohemiancoding.com/sketch -->
    <title>lv12</title>
    <desc>Created with Sketch.</desc>
    <defs></defs>
    <g id="Page-1" stroke="none" stroke-width="1" fill="none" fill-rule="evenodd" sketch:type="MSPage">
        <path d="M2.31,8.75640727 L2.31,2.69240727 L12.193,5.72440727 L2.31,8.75640727 Z M16.182,16.2734073 C16.819,16.2734073 17.337,15.7554073 17.337,15.1184073 C17.337,14.4824073 16.819,13.9634073 16.182,13.9634073 L2.31,13.9634073 L2.31,11.1714073 L16.46,6.83040727 C16.515,6.81440727 16.554,6.78940727 16.586,6.76740727 C16.637,6.74540727 16.682,6.71940727 16.734,6.68840727 C16.822,6.63040727 16.89,6.57440727 16.947,6.51440727 C16.987,6.47240727 17.02,6.43040727 17.052,6.38340727 C17.107,6.30640727 17.149,6.22840727 17.177,6.15840727 L17.225,6.06040727 C17.24,6.01240727 17.24,5.97040727 17.238,5.96340727 C17.254,5.88740727 17.262,5.80940727 17.262,5.72440727 C17.262,5.63940727 17.254,5.56140727 17.24,5.50040727 L17.225,5.39040727 C17.211,5.34140727 17.188,5.30840727 17.183,5.30340727 C17.15,5.22140727 17.108,5.14340727 17.051,5.06140727 C17.019,5.01740727 16.987,4.97640727 16.948,4.93440727 C16.889,4.87240727 16.821,4.81740727 16.728,4.75740727 C16.682,4.72940727 16.637,4.70340727 16.58,4.67540727 C16.554,4.65840727 16.515,4.63440727 16.459,4.61640727 L1.557,0.0454072655 C1.45,0.0114072655 1.345,0.00940726552 1.264,0.0104072655 C1.243,0.00540726552 1.206,-0.00459273448 1.095,0.00240726552 C0.481,0.0364072655 0,0.539407266 0,1.14840727 L0,46.2714073 C0,46.9074073 0.518,47.4264073 1.155,47.4264073 C1.792,47.4264073 2.31,46.9074073 2.31,46.2714073 L2.31,20.9304073 L16.175,20.9304073 C16.811,20.9304073 17.33,20.4114073 17.33,19.7754073 C17.33,19.1384073 16.811,18.6204073 16.175,18.6204073 L2.31,18.6204073 L2.31,16.2734073 L16.182,16.2734073 Z" id="lv12" fill="#FFF" sketch:type="MSShapeGroup"></path>
    </g>
</svg>