<?xml version="1.0" encoding="UTF-8" standalone="no"?>
<svg width="18px" height="48px" viewBox="0 0 18 48" version="1.1" xmlns="http://www.w3.org/2000/svg" xmlns:xlink="http://www.w3.org/1999/xlink" xmlns:sketch="http://www.bohemiancoding.com/sketch/ns">
    <!-- Generator: Sketch 3.4.4 (17249) - http://www.bohemiancoding.com/sketch -->
    <title>lv3</title>
    <desc>Created with Sketch.</desc>
    <defs></defs>
    <g id="Page-1" stroke="none" stroke-width="1" fill="none" fill-rule="evenodd" sketch:type="MSPage">
        <path d="M16.181,0 L1.155,0 C0.518,0 0,0.519 0,1.155 L0,46.277 C0,46.914 0.518,47.433 1.155,47.433 C1.791,47.433 2.31,46.914 2.31,46.277 L2.31,6.967 L7.073,6.967 C7.709,6.967 8.227,6.448 8.227,5.812 C8.227,5.175 7.709,4.656 7.073,4.656 L2.31,4.656 L2.31,2.31 L16.181,2.31 C16.818,2.31 17.336,1.792 17.336,1.155 C17.336,0.519 16.818,0 16.181,0" id="lv3" fill="#FFF" sketch:type="MSShapeGroup"></path>
    </g>
</svg>
