<?xml version="1.0" encoding="UTF-8" standalone="no"?>
<svg width="18px" height="48px" viewBox="0 0 18 48" version="1.1" xmlns="http://www.w3.org/2000/svg" xmlns:xlink="http://www.w3.org/1999/xlink" xmlns:sketch="http://www.bohemiancoding.com/sketch/ns">
    <!-- Generator: Sketch 3.4.4 (17249) - http://www.bohemiancoding.com/sketch -->
    <title>lv4</title>
    <desc>Created with Sketch.</desc>
    <defs></defs>
    <g id="Page-1" stroke="none" stroke-width="1" fill="none" fill-rule="evenodd" sketch:type="MSPage">
        <path d="M16.181,2.31 C16.818,2.31 17.336,1.792 17.336,1.156 C17.336,0.519 16.818,0 16.181,0 L1.155,0 C0.518,0 0,0.519 0,1.156 L0,46.278 C0,46.914 0.518,47.433 1.155,47.433 C1.792,47.433 2.31,46.914 2.31,46.278 L2.31,6.967 L16.181,6.967 C16.818,6.967 17.336,6.449 17.336,5.812 C17.336,5.175 16.818,4.657 16.181,4.657 L2.31,4.657 L2.31,2.31 L16.181,2.31 Z" id="lv4" fill="#FFF" sketch:type="MSShapeGroup"></path>
    </g>
</svg>