<?xml version="1.0" encoding="UTF-8" standalone="no"?>
<svg width="18px" height="48px" viewBox="0 0 18 48" version="1.1" xmlns="http://www.w3.org/2000/svg" xmlns:xlink="http://www.w3.org/1999/xlink" xmlns:sketch="http://www.bohemiancoding.com/sketch/ns">
    <!-- Generator: Sketch 3.4.4 (17249) - http://www.bohemiancoding.com/sketch -->
    <title>lv7</title>
    <desc>Created with Sketch.</desc>
    <defs></defs>
    <g id="Page-1" stroke="none" stroke-width="1" fill="none" fill-rule="evenodd" sketch:type="MSPage">
        <path d="M16.182,2.31 C16.819,2.31 17.337,1.792 17.337,1.156 C17.337,0.519 16.819,0 16.182,0 L1.156,0 C0.518,0 0,0.519 0,1.156 L0,46.278 C0,46.914 0.518,47.433 1.156,47.433 C1.792,47.433 2.31,46.914 2.31,46.278 L2.31,16.281 L7.916,16.281 C8.553,16.281 9.071,15.762 9.071,15.125 C9.071,14.489 8.553,13.97 7.916,13.97 L2.31,13.97 L2.31,11.623 L16.182,11.623 C16.819,11.623 17.337,11.106 17.337,10.469 C17.337,9.832 16.819,9.314 16.182,9.314 L2.31,9.314 L2.31,6.967 L16.182,6.967 C16.819,6.967 17.337,6.449 17.337,5.812 C17.337,5.175 16.819,4.657 16.182,4.657 L2.31,4.657 L2.31,2.31 L16.182,2.31 Z" id="lv7" fill="#FFF" sketch:type="MSShapeGroup"></path>
    </g>
</svg>