<?xml version="1.0" encoding="UTF-8" standalone="no"?>
<svg width="18px" height="48px" viewBox="0 0 18 48" version="1.1" xmlns="http://www.w3.org/2000/svg" xmlns:xlink="http://www.w3.org/1999/xlink" xmlns:sketch="http://www.bohemiancoding.com/sketch/ns">
    <!-- Generator: Sketch 3.4.4 (17249) - http://www.bohemiancoding.com/sketch -->
    <title>lv8</title>
    <desc>Created with Sketch.</desc>
    <defs></defs>
    <g id="Page-1" stroke="none" stroke-width="1" fill="none" fill-rule="evenodd" sketch:type="MSPage">
        <path d="M12.192,5.72440727 L2.309,8.75640727 L2.309,2.69240727 L12.192,5.72440727 Z M17.24,5.50240727 L17.223,5.38540727 C17.209,5.34040727 17.187,5.30840727 17.181,5.30240727 C17.148,5.21940727 17.106,5.14140727 17.05,5.06140727 C17.018,5.01740727 16.986,4.97640727 16.946,4.93340727 C16.887,4.87140727 16.82,4.81740727 16.727,4.75640727 C16.68,4.72840727 16.634,4.70340727 16.579,4.67640727 C16.553,4.66040727 16.514,4.63440727 16.459,4.61740727 L1.556,0.0454072655 C1.449,0.0124072655 1.344,0.00840726552 1.262,0.0104072655 C1.243,0.00540726552 1.206,-0.00459273448 1.094,0.00240726552 C0.48,0.0374072655 0,0.539407266 0,1.14840727 L0,46.2714073 C0,46.9084073 0.517,47.4264073 1.154,47.4264073 C1.791,47.4264073 2.309,46.9084073 2.309,46.2714073 L2.309,11.1714073 L16.461,6.83040727 C16.514,6.81440727 16.553,6.78840727 16.585,6.76740727 C16.635,6.74540727 16.682,6.71940727 16.732,6.68840727 C16.819,6.63140727 16.887,6.57740727 16.945,6.51540727 C16.985,6.47340727 17.019,6.43040727 17.051,6.38340727 C17.105,6.30840727 17.147,6.23140727 17.176,6.15840727 L17.224,6.06040727 C17.239,6.01140727 17.24,5.96840727 17.236,5.96540727 C17.254,5.88540727 17.261,5.80540727 17.26,5.72840727 C17.261,5.64340727 17.254,5.56340727 17.24,5.50240727 L17.24,5.50240727 Z" id="lv8" fill="#FFF" sketch:type="MSShapeGroup"></path>
    </g>
</svg>