<?xml version="1.0" encoding="UTF-8" standalone="no"?>
<svg width="18px" height="48px" viewBox="0 0 18 48" version="1.1" xmlns="http://www.w3.org/2000/svg" xmlns:xlink="http://www.w3.org/1999/xlink" xmlns:sketch="http://www.bohemiancoding.com/sketch/ns">
    <!-- Generator: Sketch 3.4.4 (17249) - http://www.bohemiancoding.com/sketch -->
    <title>lv9</title>
    <desc>Created with Sketch.</desc>
    <defs></defs>
    <g id="Page-1" stroke="none" stroke-width="1" fill="none" fill-rule="evenodd" sketch:type="MSPage">
        <path d="M2.31,8.7579147 L2.31,2.6939147 L12.193,5.7259147 L2.31,8.7579147 Z M17.227,5.3959147 C17.212,5.3449147 17.189,5.3089147 17.183,5.3069147 C17.152,5.2259147 17.109,5.1469147 17.051,5.0629147 C17.019,5.0189147 16.987,4.9779147 16.949,4.9369147 C16.889,4.8739147 16.821,4.8189147 16.728,4.7579147 C16.682,4.7309147 16.637,4.7049147 16.58,4.6769147 C16.553,4.6599147 16.514,4.6359147 16.459,4.6179147 L1.557,0.0469146994 C1.45,0.0139146994 1.351,0.00991469942 1.264,0.0119146994 C1.244,0.00591469942 1.204,-0.00708530058 1.096,0.00491469942 C0.481,0.0379146994 0,0.539914699 0,1.1499147 L0,46.2729147 C0,46.9089147 0.518,47.4279147 1.156,47.4279147 C1.792,47.4279147 2.31,46.9089147 2.31,46.2729147 L2.31,16.2749147 L7.875,16.2749147 C8.512,16.2749147 9.031,15.7569147 9.031,15.1199147 C9.031,14.4839147 8.512,13.9649147 7.875,13.9649147 L2.31,13.9649147 L2.31,11.1729147 L16.459,6.8329147 C16.514,6.8159147 16.553,6.7909147 16.586,6.7689147 C16.636,6.7469147 16.681,6.7219147 16.735,6.6889147 C16.824,6.6309147 16.891,6.5749147 16.95,6.5139147 C16.988,6.4729147 17.02,6.4309147 17.052,6.3849147 C17.108,6.3059147 17.151,6.2279147 17.176,6.1609147 L17.225,6.0619147 C17.24,6.0149147 17.24,5.9739147 17.239,5.9629147 C17.254,5.8859147 17.262,5.8079147 17.262,5.7259147 C17.262,5.6439147 17.254,5.5659147 17.241,5.4989147 L17.227,5.3959147 Z" id="lv9" fill="#FFF" sketch:type="MSShapeGroup"></path>
    </g>
</svg>