<?xml version="1.0" encoding="UTF-8" standalone="no"?>
<svg width="375px" height="375px" viewBox="0 0 375 375" version="1.1" xmlns="http://www.w3.org/2000/svg" xmlns:xlink="http://www.w3.org/1999/xlink" xmlns:sketch="http://www.bohemiancoding.com/sketch/ns">
    <!-- Generator: Sketch 3.4.4 (17249) - http://www.bohemiancoding.com/sketch -->
    <title>pic</title>
    <desc>Created with Sketch.</desc>
    <defs>
        <rect id="path-1" x="0" y="0" width="375" height="375"></rect>
        <linearGradient x1="62.2246809%" y1="7.57489502%" x2="62.2246802%" y2="85.7867142%" id="linearGradient-3">
            <stop stop-color="#4B9FE1" offset="0%"></stop>
            <stop stop-color="#BBE0FA" offset="100%"></stop>
        </linearGradient>
        <radialGradient cx="50%" cy="51.4927455%" fx="50%" fy="51.4927455%" r="48.5072545%" id="radialGradient-4">
            <stop stop-color="#E4F8D6" stop-opacity="0.4" offset="0%"></stop>
            <stop stop-color="#E4F8D6" stop-opacity="0" offset="100%"></stop>
        </radialGradient>
        <filter x="-50%" y="-50%" width="200%" height="200%" filterUnits="objectBoundingBox" id="filter-5">
            <feGaussianBlur stdDeviation="0" in="SourceGraphic" result="blur"></feGaussianBlur>
        </filter>
        <filter x="-50%" y="-50%" width="200%" height="200%" filterUnits="objectBoundingBox" id="filter-6">
            <feGaussianBlur stdDeviation="0" in="SourceGraphic" result="blur"></feGaussianBlur>
        </filter>
        <linearGradient x1="50%" y1="0%" x2="50%" y2="19.0864331%" id="linearGradient-7">
            <stop stop-color="#62A8E3" offset="0%"></stop>
            <stop stop-color="#76AFE2" stop-opacity="0" offset="100%"></stop>
        </linearGradient>
        <linearGradient x1="50%" y1="-4.5622598%" x2="50%" y2="50%" id="linearGradient-8">
            <stop stop-color="#78B4E1" offset="0%"></stop>
            <stop stop-color="#78B4E1" stop-opacity="0" offset="100%"></stop>
        </linearGradient>
        <linearGradient x1="50%" y1="-2.72514124%" x2="50%" y2="49.4819536%" id="linearGradient-9">
            <stop stop-color="#74ACD9" offset="0%"></stop>
            <stop stop-color="#74ACD9" stop-opacity="0" offset="100%"></stop>
        </linearGradient>
        <linearGradient x1="50%" y1="-2.50977065%" x2="50%" y2="57.32567%" id="linearGradient-10">
            <stop stop-color="#79AED1" offset="0%"></stop>
            <stop stop-color="#79AED1" stop-opacity="0" offset="100%"></stop>
        </linearGradient>
        <linearGradient x1="50%" y1="0%" x2="50%" y2="86.3471494%" id="linearGradient-11">
            <stop stop-color="#6499C2" offset="0%"></stop>
            <stop stop-color="#BDDFF6" stop-opacity="0" offset="100%"></stop>
        </linearGradient>
        <path id="path-12" d="M0,0.899373913 L9.88298265,0.899373913 L9.88298265,39.026087 L0,39.026087"></path>
        <path id="path-14" d="M0,0.899373913 L9.88298265,0.899373913 L9.88298265,39.026087 L0,39.026087"></path>
        <path id="path-16" d="M0,1.3226087 L14.824474,1.3226087 L14.824474,57.3913043 L0,57.3913043"></path>
        <path id="path-18" d="M0,0.903782609 L11.1942857,0.903782609 L11.1942857,39.2173913 L0,39.2173913"></path>
        <path id="path-20" d="M0,0.749478261 L9.32857143,0.749478261 L9.32857143,32.5217391 L0,32.5217391"></path>
        <path id="path-22" d="M0,1.10217391 L13.9928571,1.10217391 L13.9928571,47.826087 L0,47.826087"></path>
        <path id="path-24" d="M0,0.749478261 L9.32857143,0.749478261 L9.32857143,32.5217391 L0,32.5217391"></path>
    </defs>
    <g id="Page-1" stroke="none" stroke-width="1" fill="none" fill-rule="evenodd" sketch:type="MSPage">
        <g id="next-norain" sketch:type="MSArtboardGroup" transform="translate(0.000000, -64.000000)">
            <g id="pic" sketch:type="MSLayerGroup" transform="translate(0.000000, 64.000000)">
                <mask id="mask-2" sketch:name="Mask" fill="white">
                    <use xlink:href="#path-1"></use>
                </mask>
                <use id="Mask" sketch:type="MSShapeGroup" xlink:href="#path-1"></use>
                <rect id="bg" opacity="0.899999976" fill="url(#linearGradient-3)" sketch:type="MSShapeGroup" mask="url(#mask-2)" x="0" y="0" width="375" height="375">
                    <g transform="translate(187.500000, 187.500000) scale(1, -1) translate(-187.500000, -187.500000) "></g>
                </rect>
                <g id="sun" mask="url(#mask-2)" sketch:type="MSShapeGroup">
                    <g transform="translate(27.000000, 105.000000)" id="Oval-9">
                        <circle fill="url(#radialGradient-4)" filter="url(#filter-5)" cx="60" cy="60" r="60"></circle>
                        <circle fill-opacity="0.95" fill="#ECFFEB" filter="url(#filter-6)" cx="60.5" cy="60.5" r="12.5"></circle>
                    </g>
                </g>
                <g id="mountains" mask="url(#mask-2)" sketch:type="MSShapeGroup">
                    <g transform="translate(-105.000000, 153.000000)">
                        <path d="M86.0988836,151.128874 L146.743446,99.2719629 L178.23764,121.80355 L185.598774,115.271723 L192.182347,119.494194 L268.985058,58.7088083 L290.997438,74.4376569 L385.049355,2.84217094e-14 L478.681536,74.5921728 L498.336929,58.2986915 L520.453859,79.8529326 L530.322251,79.8529326 L601.619994,139.917726 L601.619994,415.777449 L75,415.777449 L86.0988836,151.128874 Z" id="Path-17" opacity="0.12" fill="url(#linearGradient-7)"></path>
                        <path d="M248.188917,28.1432829 L242.47281,32.4218861 C241.937979,29.5646832 241.586243,28.4845076 241.586243,28.4845076 C241.586243,28.4845076 241.183112,29.9579779 240.542278,33.8665517 L238.285709,35.5549493 C237.26423,28.2164024 236.46118,25.7646808 236.46118,25.7646808 C236.46118,25.7646808 235.585856,28.9675399 234.35719,38.4963505 L229.037789,42.4769361 C227.990613,37.8072539 227.24217,36.1487689 227.24217,36.1487689 C227.24217,36.1487689 226.326694,38.5838725 224.96954,45.5224774 L212.130382,55.1332705 L193.212138,43.9382198 C191.623706,34.9212463 190.305099,31.997571 190.305099,31.997571 C190.305099,31.997571 189.428169,34.3296424 188.120804,40.9259147 C185.843355,28.1144782 184.097525,24.2424641 184.097525,24.2424641 C184.097525,24.2424641 182.902587,27.4154107 181.222607,36.8445128 L180.024457,36.1354744 C178.137291,28.0180933 176.951989,25.3713861 176.951989,25.3713861 C176.951989,25.3713861 176.491039,27.5893467 176.044543,33.7812456 L152.489491,19.8431028 C150.923544,11.0488116 149.633846,8.18606924 149.633846,8.18606924 C149.633846,8.18606924 148.776189,10.4649628 147.492916,16.8872992 C144.969734,3.91632897 142.971747,0 142.971747,0 C142.971747,0 141.646715,3.10647424 139.775609,12.3195412 L128.50561,5.65236504 L116.75057,12.6962178 C115.064165,4.61539646 113.705405,1.95207119 113.705405,1.95207119 C113.705405,1.95207119 112.147489,5.60251078 110.025832,16.7255498 L92.1419163,27.4419996 C91.6167218,25.389112 91.2425007,24.6523769 91.2425007,24.6523769 C91.2425007,24.6523769 90.7976112,25.7015321 90.1342922,28.6440412 L87.5966553,30.16515 C86.1881062,24.1161666 85.1280807,22.0444452 85.1280807,22.0444452 C85.1280807,22.0444452 83.8913842,24.9459631 82.1198567,33.4466681 L66.2435652,42.9599685 C64.99402,37.9235805 64.0897861,36.1487689 64.0897861,36.1487689 C64.0897861,36.1487689 63.02173,38.6580999 61.4493588,45.8315738 L59.9332011,46.7400291 C59.3437627,44.492156 58.9679354,43.6235841 58.9679354,43.6235841 C58.9679354,43.6235841 58.5262581,44.8411358 57.8067256,48.0151903 L30.6154647,64.307562 C29.1314289,57.7556045 27.9959167,55.528781 27.9959167,55.528781 C27.9959167,55.528781 26.6773092,58.6230686 24.8126279,67.7840656 L0,82.6517134 L0,87.4144568 L290.0005,93.5 L290.0005,57.7788699 L248.188917,28.1432829 Z" id="Fill-1" fill="url(#linearGradient-8)"></path>
                        <path d="M560.188417,55.4036403 L554.47231,61.6063957 C553.937479,57.4642657 553.585743,55.8983188 553.585743,55.8983188 C553.585743,55.8983188 553.182612,58.0344309 552.541778,63.7007492 L550.285209,66.1484445 C549.26373,55.5096428 548.46068,51.9553451 548.46068,51.9553451 C548.46068,51.9553451 547.585356,56.5985781 546.35669,70.4126381 L541.037289,76.1833529 C539.990113,69.4136444 539.24167,67.0093137 539.24167,67.0093137 C539.24167,67.0093137 538.326194,70.53952 536.96904,80.5985198 L524.129882,94.5314312 L505.211638,78.3017978 C503.623206,65.2297557 502.304599,60.9912597 502.304599,60.9912597 C502.304599,60.9912597 501.427669,64.3720987 500.120304,73.9348139 C497.842855,55.3618817 496.097025,49.7485647 496.097025,49.7485647 C496.097025,49.7485647 494.902087,54.348433 493.222107,68.0179441 L492.023957,66.9900405 C490.136791,55.222151 488.951489,51.3851798 488.951489,51.3851798 C488.951489,51.3851798 488.490539,54.6005906 488.044043,63.5770796 L464.488991,43.3707444 C462.923044,30.6215282 461.633346,26.4713677 461.633346,26.4713677 C461.633346,26.4713677 460.775689,29.7751139 459.492416,39.0856715 C456.969234,20.281461 454.971247,14.6039 454.971247,14.6039 C454.971247,14.6039 453.646215,19.1074024 451.775109,32.4637241 L440.50511,22.7982186 L428.75007,33.0097979 C427.063665,21.2949096 425.704905,17.4338469 425.704905,17.4338469 C425.704905,17.4338469 424.146989,22.7259441 422.025332,38.851181 L404.141416,54.3869794 C403.616222,51.4108774 403.242001,50.3428214 403.242001,50.3428214 C403.242001,50.3428214 402.797111,51.8637974 402.133792,56.1295971 L399.596155,58.3347715 C398.187606,49.5654693 397.127581,46.5620637 397.127581,46.5620637 C397.127581,46.5620637 395.890884,50.7684377 394.119357,63.0920376 L378.243065,76.8836122 C376.99352,69.5822848 376.089286,67.0093137 376.089286,67.0093137 C376.089286,67.0093137 375.02123,70.6471286 373.448859,81.0466215 L371.932701,82.3636229 C371.343263,79.1048475 370.967435,77.8456656 370.967435,77.8456656 C370.967435,77.8456656 370.525758,79.6107688 369.806226,84.2122432 L342.614965,107.831539 C341.130929,98.3330682 339.995417,95.1048086 339.995417,95.1048086 C339.995417,95.1048086 338.676809,99.5906439 336.812128,112.871479 L311.9995,134.425331 L311.9995,141.329952 L602,150.152256 L602,98.3667963 L560.188417,55.4036403 Z" id="Fill-1" fill="url(#linearGradient-9)"></path>
                        <path d="M267.677634,104.588261 C266.683271,96.8909948 265.939308,94.237913 265.939308,94.237913 C265.939308,94.237913 265.471798,96.2353232 264.73073,101.56754 L260.945783,97.6899588 C259.579438,84.6416598 258.411388,80.4774938 258.411388,80.4774938 C258.411388,80.4774938 257.644266,83.760194 256.513848,93.1494692 L254.716179,91.3069307 C253.896951,85.5303626 253.316544,83.4591351 253.316544,83.4591351 C253.316544,83.4591351 252.960484,84.9832459 252.377182,88.9100385 L234.304963,70.3920199 C233.245467,61.8957897 232.436371,59.0053345 232.436371,59.0053345 C232.436371,59.0053345 231.922544,61.2010383 231.117791,67.1266885 L228.855507,64.8079558 C227.503636,52.0172937 226.355849,47.9211555 226.355849,47.9211555 C226.355849,47.9211555 225.601754,51.1430649 224.488705,60.3325991 L207.572957,43 L185.186041,61.2994614 C183.926804,53.4965352 182.981653,50.8159528 182.981653,50.8159528 C182.981653,50.8159528 181.897552,54.505372 180.335808,65.2638864 L172.606699,71.5817816 C171.878658,66.7040481 171.379305,64.9223003 171.379305,64.9223003 C171.379305,64.9223003 170.826399,67.2873497 169.968092,73.7384056 L168.448323,74.9817211 C167.27593,64.9917754 166.3467,61.6772325 166.3467,61.6772325 C166.3467,61.6772325 165.347995,65.941269 163.95415,78.6537715 L144.889015,94.237913 L140.454185,92.4185329 C138.985076,77.4654572 137.67518,72.7975965 137.67518,72.7975965 C137.67518,72.7975965 136.651869,77.1672931 135.229076,90.273488 L130.053178,88.1501542 C129.141317,81.3994868 128.478409,79.0300951 128.478409,79.0300951 C128.478409,79.0300951 127.974714,81.182377 127.184434,86.9734191 L125.032152,86.0905059 C123.622386,72.2750855 122.397887,67.905389 122.397887,67.905389 C122.397887,67.905389 121.442604,71.9769214 120.095076,84.0655951 L111.35134,80.4774938 L86.5964807,101.692016 L85,200.710007 L306.932533,200.710007 L306.932533,144.812917 L267.677634,104.588261 Z" id="Fill-1" fill="url(#linearGradient-10)"></path>
                        <path d="M480.188417,105.40364 L474.47231,111.606396 C473.937479,107.464266 473.585743,105.898319 473.585743,105.898319 C473.585743,105.898319 473.182612,108.034431 472.541778,113.700749 L470.285209,116.148445 C469.26373,105.509643 468.46068,101.955345 468.46068,101.955345 C468.46068,101.955345 467.585356,106.598578 466.35669,120.412638 L461.037289,126.183353 C459.990113,119.413644 459.24167,117.009314 459.24167,117.009314 C459.24167,117.009314 458.326194,120.53952 456.96904,130.59852 L444.129882,144.531431 L425.211638,128.301798 C423.623206,115.229756 422.304599,110.99126 422.304599,110.99126 C422.304599,110.99126 421.427669,114.372099 420.120304,123.934814 C417.842855,105.361882 416.097025,99.7485647 416.097025,99.7485647 C416.097025,99.7485647 414.902087,104.348433 413.222107,118.017944 L412.023957,116.990041 C410.136791,105.222151 408.951489,101.38518 408.951489,101.38518 C408.951489,101.38518 408.490539,104.600591 408.044043,113.57708 L384.488991,93.3707444 C382.923044,80.6215282 381.633346,76.4713677 381.633346,76.4713677 C381.633346,76.4713677 380.775689,79.7751139 379.492416,89.0856715 C376.969234,70.281461 374.971247,64.6039 374.971247,64.6039 C374.971247,64.6039 373.646215,69.1074024 371.775109,82.4637241 L360.50511,72.7982186 L348.75007,83.0097979 C347.063665,71.2949096 345.704905,67.4338469 345.704905,67.4338469 C345.704905,67.4338469 344.146989,72.7259441 342.025332,88.851181 L324.141416,104.386979 C323.616222,101.410877 323.242001,100.342821 323.242001,100.342821 C323.242001,100.342821 322.797111,101.863797 322.133792,106.129597 L319.596155,108.334771 C318.187606,99.5654693 317.127581,96.5620637 317.127581,96.5620637 C317.127581,96.5620637 315.890884,100.768438 314.119357,113.092038 L298.243065,126.883612 C296.99352,119.582285 296.089286,117.009314 296.089286,117.009314 C296.089286,117.009314 295.02123,120.647129 293.448859,131.046622 L291.932701,132.363623 C291.343263,129.104847 290.967435,127.845666 290.967435,127.845666 C290.967435,127.845666 290.525758,129.610769 289.806226,134.212243 L262.614965,157.831539 C261.130929,148.333068 259.995417,145.104809 259.995417,145.104809 C259.995417,145.104809 258.676809,149.590644 256.812128,162.871479 L231.9995,184.425331 L231.9995,191.329952 L522,200.152256 L522,148.366796 L480.188417,105.40364 Z" id="Fill-1" fill="url(#linearGradient-11)"></path>
                    </g>
                </g>
                <g id="trees" mask="url(#mask-2)">
                    <g transform="translate(10.000000, 331.000000)" id="Page-1">
                        <g transform="translate(235.000000, 12.400000)">
                            <mask id="mask-13" sketch:name="Clip 2" fill="white">
                                <use xlink:href="#path-12"></use>
                            </mask>
                            <g id="Clip-2"></g>
                            <path d="M4.94118863,0.898664348 C4.94118863,0.898664348 2.71032853,9.78242087 -0.000302694721,39.0253774 L9.88267996,39.0253774 C7.50501292,9.4187687 4.94118863,0.898664348 4.94118863,0.898664348" id="Fill-1" fill="#13222E" sketch:type="MSShapeGroup" mask="url(#mask-13)"></path>
                        </g>
                        <g transform="translate(253.248062, 19.200000)">
                            <mask id="mask-15" sketch:name="Clip 2" fill="white">
                                <use xlink:href="#path-14"></use>
                            </mask>
                            <g id="Clip-2"></g>
                            <path d="M4.94118863,0.898664348 C4.94118863,0.898664348 2.71032853,9.78242087 -0.000302694721,39.0253774 L9.88267996,39.0253774 C7.50501292,9.4187687 4.94118863,0.898664348 4.94118863,0.898664348" id="Fill-1" fill="#13222E" sketch:type="MSShapeGroup" mask="url(#mask-15)"></path>
                        </g>
                        <g transform="translate(260.664083, 0.000000)">
                            <mask id="mask-17" sketch:name="Clip 2" fill="white">
                                <use xlink:href="#path-16"></use>
                            </mask>
                            <g id="Clip-2"></g>
                            <path d="M7.41178295,1.32156522 C7.41178295,1.32156522 4.0654928,14.385913 -0.000454042082,57.3902609 L14.8240199,57.3902609 C11.2575194,13.8511304 7.41178295,1.32156522 7.41178295,1.32156522" id="Fill-1" fill="#13222E" sketch:type="MSShapeGroup" mask="url(#mask-17)"></path>
                        </g>
                        <g transform="translate(92.000000, 5.000000)">
                            <mask id="mask-19" sketch:name="Clip 2" fill="white">
                                <use xlink:href="#path-18"></use>
                            </mask>
                            <g id="Clip-2"></g>
                            <path d="M5.5968,0.903069565 C5.5968,0.903069565 3.06994286,9.83037391 -0.000342857143,39.2166783 L11.1939429,39.2166783 C8.5008,9.46493913 5.5968,0.903069565 5.5968,0.903069565" id="Fill-1" fill="#13222E" sketch:type="MSShapeGroup" mask="url(#mask-19)"></path>
                        </g>
                        <g transform="translate(103.000000, 26.000000)">
                            <mask id="mask-21" sketch:name="Clip 2" fill="white">
                                <use xlink:href="#path-20"></use>
                            </mask>
                            <g id="Clip-2"></g>
                            <path d="M4.664,0.748886957 C4.664,0.748886957 2.55828571,8.15201739 -0.000285714286,32.5211478 L9.32828571,32.5211478 C7.084,7.84897391 4.664,0.748886957 4.664,0.748886957" id="Fill-1" fill="#13222E" sketch:type="MSShapeGroup" mask="url(#mask-21)"></path>
                        </g>
                        <g transform="translate(110.000000, 20.000000)">
                            <mask id="mask-23" sketch:name="Clip 2" fill="white">
                                <use xlink:href="#path-22"></use>
                            </mask>
                            <g id="Clip-2"></g>
                            <path d="M6.996,1.10130435 C6.996,1.10130435 3.83742857,11.9882609 -0.000428571429,47.8252174 L13.9924286,47.8252174 C10.626,11.5426087 6.996,1.10130435 6.996,1.10130435" id="Fill-1" fill="#13222E" sketch:type="MSShapeGroup" mask="url(#mask-23)"></path>
                        </g>
                        <g transform="translate(82.000000, 31.000000)">
                            <mask id="mask-25" sketch:name="Clip 2" fill="white">
                                <use xlink:href="#path-24"></use>
                            </mask>
                            <g id="Clip-2"></g>
                            <path d="M4.664,0.748886957 C4.664,0.748886957 2.55828571,8.15201739 -0.000285714286,32.5211478 L9.32828571,32.5211478 C7.084,7.84897391 4.664,0.748886957 4.664,0.748886957" id="Fill-1" fill="#13222E" sketch:type="MSShapeGroup" mask="url(#mask-25)"></path>
                        </g>
                        <g transform="translate(320.664083, 14.000000)">
                            <path d="M7.41178295,0.321565217 C7.41178295,0.321565217 4.0654928,13.385913 -0.000454042082,56.3902609 L14.8240199,56.3902609 C11.2575194,12.8511304 7.41178295,0.321565217 7.41178295,0.321565217" id="Fill-1" fill="#FFFFFF" sketch:type="MSShapeGroup"></path>
                        </g>
                        <g transform="translate(340.664083, 24.000000)">
                            <path d="M7.41178295,0.321565217 C7.41178295,0.321565217 4.0654928,13.385913 -0.000454042082,56.3902609 L14.8240199,56.3902609 C11.2575194,12.8511304 7.41178295,0.321565217 7.41178295,0.321565217" id="Fill-1" fill="#FFFFFF" sketch:type="MSShapeGroup"></path>
                        </g>
                        <g transform="translate(350.664083, 14.000000)">
                            <path d="M7.41178295,0.321565217 C7.41178295,0.321565217 4.0654928,13.385913 -0.000454042082,56.3902609 L14.8240199,56.3902609 C11.2575194,12.8511304 7.41178295,0.321565217 7.41178295,0.321565217" id="Fill-1" fill="#FFFFFF" sketch:type="MSShapeGroup"></path>
                        </g>
                        <g transform="translate(19.664083, 24.000000)">
                            <path d="M7.41178295,0.321565217 C7.41178295,0.321565217 4.0654928,13.385913 -0.000454042082,56.3902609 L14.8240199,56.3902609 C11.2575194,12.8511304 7.41178295,0.321565217 7.41178295,0.321565217" id="Fill-1" fill="#FFFFFF" sketch:type="MSShapeGroup"></path>
                        </g>
                        <g transform="translate(0.664083, 4.000000)">
                            <path d="M7.41178295,0.321565217 C7.41178295,0.321565217 4.0654928,13.385913 -0.000454042082,56.3902609 L14.8240199,56.3902609 C11.2575194,12.8511304 7.41178295,0.321565217 7.41178295,0.321565217" id="Fill-1" fill="#FFFFFF" sketch:type="MSShapeGroup"></path>
                        </g>
                    </g>
                </g>
            </g>
        </g>
    </g>
</svg>