<?xml version="1.0" encoding="UTF-8" standalone="no"?>
<svg width="49px" height="70px" viewBox="0 0 49 70" version="1.1" xmlns="http://www.w3.org/2000/svg" xmlns:xlink="http://www.w3.org/1999/xlink" xmlns:sketch="http://www.bohemiancoding.com/sketch/ns">
    <!-- Generator: Sketch 3.4.4 (17249) - http://www.bohemiancoding.com/sketch -->
    <title>buildings</title>
    <desc>Created with Sketch.</desc>
    <defs></defs>
    <g id="Page-1" stroke="none" stroke-width="1" fill="none" fill-rule="evenodd" sketch:type="MSPage">
        <g id="next-rain" sketch:type="MSArtboardGroup" transform="translate(-163.000000, -329.000000)">
            <g id="Group" sketch:type="MSLayerGroup" transform="translate(0.000000, 64.000000)">
                <g id="buildings" transform="translate(163.000000, 265.000000)" sketch:type="MSShapeGroup">
                    <path d="M42.6112745,21.8169498 L43.2101362,21.8169498 C43.4806906,21.8169498 43.6992153,21.5984078 43.6992153,21.3289939 L43.6992153,15.3878712 C43.6992153,15.0873111 43.5644584,14.8023241 43.3313654,14.6118136 L26.243775,0.622533107 C25.2297164,-0.207511036 23.7697633,-0.207511036 22.756225,0.622533107 L5.66863459,14.6118136 C5.43554159,14.8023241 5.3002644,15.0873111 5.3002644,15.3878712 L5.3002644,21.3289939 C5.3002644,21.5984078 5.51930939,21.8169498 5.78934347,21.8169498 L6.38872548,21.8169498 L6.38872548,22.5073555 C6.38872548,22.6999423 6.37571806,22.8930483 6.34970322,23.0840778 L0,70 L24.4997399,70 L49,70 L42.6502968,23.0840778 C42.6242819,22.8930483 42.6112745,22.7004614 42.6112745,22.5073555 L42.6112745,21.8169498 Z" id="Fill-13" fill="#13232E"></path>
                    <g id="Group" transform="translate(20.000000, 26.000000)" fill="#E6E6B6">
                        <path d="M4,4 L0,4 L0,0 L4,0 L4,4 Z" id="Fill-6"></path>
                        <path d="M9,4 L5,4 L5,0 L9,0 L9,4 Z" id="Fill-6"></path>
                        <path d="M4,9 L0,9 L0,5 L4,5 L4,9 Z" id="Fill-6"></path>
                        <path d="M9,9 L5,9 L5,5 L9,5 L9,9 Z" id="Fill-6"></path>
                    </g>
                    <g id="windows" transform="translate(20.000000, 51.000000)" fill="#E6E6B6">
                        <path d="M4,4 L0,4 L0,0 L4,0 L4,4 Z" id="Fill-6"></path>
                        <path d="M9,4 L5,4 L5,0 L9,0 L9,4 Z" id="Fill-6"></path>
                        <path d="M4,9 L0,9 L0,5 L4,5 L4,9 Z" id="Fill-6"></path>
                        <path d="M9,9 L5,9 L5,5 L9,5 L9,9 Z" id="Fill-6"></path>
                    </g>
                    <g id="Rectangle-42-+-Rectangle-42" transform="translate(3.000000, 41.000000)">
                        <rect id="Rectangle-42" fill="#13232E" x="0" y="0" width="43" height="2" rx="0.5"></rect>
                        <rect id="Rectangle-42" fill="#22394A" x="0" y="1" width="43" height="1" rx="0.5"></rect>
                    </g>
                </g>
            </g>
        </g>
    </g>
</svg>