<?xml version="1.0" encoding="UTF-8" standalone="no"?>
<svg width="93px" height="93px" viewBox="0 0 93 93" version="1.1" xmlns="http://www.w3.org/2000/svg" xmlns:xlink="http://www.w3.org/1999/xlink" xmlns:sketch="http://www.bohemiancoding.com/sketch/ns">
    <!-- Generator: Sketch 3.4.4 (17249) - http://www.bohemiancoding.com/sketch -->
    <title>wings</title>
    <desc>Created with Sketch.</desc>
    <defs></defs>
    <g id="Page-1" stroke="none" stroke-width="1" fill="none" fill-rule="evenodd" sketch:type="MSPage">
        <g id="next-rain" sketch:type="MSArtboardGroup" transform="translate(-141.000000, -296.000000)" fill="#13232E">
            <g id="Group" sketch:type="MSLayerGroup" transform="translate(0.000000, 64.000000)">
                <g id="wings" transform="translate(141.000000, 232.000000)" sketch:type="MSShapeGroup">
                    <path d="M39.5610679,0 L39.5610679,39.5613025 L0,39.5613025 L0,40.2506775 L0,52.7493225 L0,53.439249 L39.5610679,53.439249 L39.5610679,93 L40.2504388,93 L52.7495612,93 L53.4389321,93 L53.4389321,53.439249 L93,53.439249 L93,39.5613025 L53.4389321,39.5613025 L53.4389321,0 L39.5610679,0 Z M40.9398098,1.37875005 L52.0601902,1.37875005 L52.0601902,5.64019071 L40.9398098,5.64019071 L40.9398098,1.37875005 Z M40.9398098,7.01894076 L52.0601902,7.01894076 L52.0601902,11.2803814 L40.9398098,11.2803814 L40.9398098,7.01894076 Z M40.9398098,12.6591315 L52.0601902,12.6591315 L52.0601902,16.9205721 L40.9398098,16.9205721 L40.9398098,12.6591315 Z M40.9398098,18.2993222 L52.0601902,18.2993222 L52.0601902,22.5602113 L40.9398098,22.5602113 L40.9398098,18.2993222 Z M40.9398098,23.9395129 L52.0601902,23.9395129 L52.0601902,28.2009536 L40.9398098,28.2009536 L40.9398098,23.9395129 Z M40.9398098,29.5797036 L52.0601902,29.5797036 L52.0601902,33.8411443 L40.9398098,33.8411443 L40.9398098,29.5797036 Z M40.9398098,35.2193428 L52.0601902,35.2193428 L52.0601902,39.481335 L40.9398098,39.481335 L40.9398098,35.2193428 Z M87.3598427,40.9400525 L91.6212581,40.9400525 L91.6212581,52.060499 L87.3598427,52.060499 L87.3598427,40.9400525 Z M81.719134,40.9400525 L85.9805494,40.9400525 L85.9805494,52.060499 L81.719134,52.060499 L81.719134,40.9400525 Z M76.0795282,40.9400525 L80.3409436,40.9400525 L80.3409436,52.060499 L76.0795282,52.060499 L76.0795282,40.9400525 Z M70.4393709,40.9400525 L74.7007863,40.9400525 L74.7007863,52.060499 L70.4393709,52.060499 L70.4393709,40.9400525 Z M64.7986622,40.9400525 L69.0600776,40.9400525 L69.0600776,52.060499 L64.7986622,52.060499 L64.7986622,40.9400525 Z M59.1590564,40.9400525 L63.4204718,40.9400525 L63.4204718,52.060499 L59.1590564,52.060499 L59.1590564,40.9400525 Z M53.5188991,40.9400525 L57.7803145,40.9400525 L57.7803145,52.060499 L53.5188991,52.060499 L53.5188991,40.9400525 Z M47.8787419,40.9400525 L52.0601902,40.9400525 L52.0601902,45.1215257 L47.8787419,45.1215257 L47.8787419,40.9400525 Z M40.9398098,40.9400525 L45.1212581,40.9400525 L45.1212581,45.1215257 L40.9398098,45.1215257 L40.9398098,40.9400525 Z M35.2196855,40.9400525 L39.4811009,40.9400525 L39.4811009,52.060499 L35.2196855,52.060499 L35.2196855,40.9400525 Z M29.5795282,40.9400525 L33.8409436,40.9400525 L33.8409436,52.060499 L29.5795282,52.060499 L29.5795282,40.9400525 Z M23.9388194,40.9400525 L28.2002348,40.9400525 L28.2002348,52.060499 L23.9388194,52.060499 L23.9388194,40.9400525 Z M18.2992137,40.9400525 L22.5606291,40.9400525 L22.5606291,52.060499 L18.2992137,52.060499 L18.2992137,40.9400525 Z M12.6596079,40.9400525 L16.9210233,40.9400525 L16.9210233,52.060499 L12.6596079,52.060499 L12.6596079,40.9400525 Z M7.01889914,40.9400525 L11.2803145,40.9400525 L11.2803145,52.060499 L7.01889914,52.060499 L7.01889914,40.9400525 Z M1.37929337,40.9400525 L5.64070876,40.9400525 L5.64070876,52.060499 L1.37929337,52.060499 L1.37929337,40.9400525 Z M47.8787419,47.8790258 L52.0601902,47.8790258 L52.0601902,52.060499 L47.8787419,52.060499 L47.8787419,47.8790258 Z M40.9398098,47.8790258 L45.1212581,47.8790258 L45.1212581,52.060499 L40.9398098,52.060499 L40.9398098,47.8790258 Z M40.9398098,53.518665 L52.0601902,53.518665 L52.0601902,57.7801057 L40.9398098,57.7801057 L40.9398098,53.518665 Z M40.9398098,59.1594072 L52.0601902,59.1594072 L52.0601902,63.4208479 L40.9398098,63.4208479 L40.9398098,59.1594072 Z M40.9398098,64.7995979 L52.0601902,64.7995979 L52.0601902,69.0610386 L40.9398098,69.0610386 L40.9398098,64.7995979 Z M40.9398098,70.4397887 L52.0601902,70.4397887 L52.0601902,74.7012293 L40.9398098,74.7012293 L40.9398098,70.4397887 Z M40.9398098,76.0794279 L52.0601902,76.0794279 L52.0601902,80.3408685 L40.9398098,80.3408685 L40.9398098,76.0794279 Z M40.9398098,81.7196186 L52.0601902,81.7196186 L52.0601902,85.9810592 L40.9398098,85.9810592 L40.9398098,81.7196186 Z M40.9398098,87.3598093 L52.0601902,87.3598093 L52.0601902,91.6212499 L40.9398098,91.6212499 L40.9398098,87.3598093 Z" id="Fill-1"></path>
                    <path d="M93,46.4998897 L93,44.4041921 L93,39.5609247 C93,39.5609247 87.3184299,42.5142038 75.9464658,42.5142038 C64.5938042,42.5142038 57.7805527,39.5609247 57.7805527,39.5609247 L57.7805527,44.4041921 L57.7805527,46.4998897 L57.7805527,53.4388547 C57.7805527,53.4388547 64.5938042,50.4855756 75.9464658,50.4855756 C87.3184299,50.4855756 93,53.4388547 93,53.4388547 L93,46.4998897 Z M35.2194473,48.5959182 L35.2194473,46.4996691 L35.2194473,39.5607041 C35.2194473,39.5607041 28.4061958,42.5145347 17.0529827,42.5145347 C5.68157006,42.5145347 0,39.5607041 0,39.5607041 L0,46.4996691 L0,48.5959182 L0,53.4386341 C0,53.4386341 5.68157006,50.485355 17.0529827,50.485355 C28.4061958,50.485355 35.2194473,53.4386341 35.2194473,53.4386341 L35.2194473,48.5959182 Z M50.4854543,75.9465366 C50.4854543,64.5933706 53.4387457,57.7801474 53.4387457,57.7801474 L48.5960096,57.7801474 L46.4997518,57.7801474 L39.560758,57.7801474 C39.560758,57.7801474 42.5146009,64.5933706 42.5146009,75.9465366 C42.5146009,87.3184535 39.560758,93 39.560758,93 L46.4997518,93 L48.5960096,93 L53.4387457,93 C53.4387457,93 50.4854543,87.3184535 50.4854543,75.9465366 Z M53.4389111,0 L46.4999173,0 L44.4036595,0 L39.5609234,0 C39.5609234,0 42.5142148,5.68154648 42.5142148,17.0534634 C42.5142148,28.4060779 39.5609234,35.2193011 39.5609234,35.2193011 L44.4036595,35.2193011 L46.4999173,35.2193011 L53.4389111,35.2193011 C53.4389111,35.2193011 50.4856197,28.4060779 50.4856197,17.0534634 C50.4856197,5.68154648 53.4389111,0 53.4389111,0 Z" id="Fill-2" fill-opacity="0.4"></path>
                </g>
            </g>
        </g>
    </g>
</svg>