<?xml version="1.0" standalone="no"?>
<!DOCTYPE svg PUBLIC "-//W3C//DTD SVG 1.1//EN" "http://www.w3.org/Graphics/SVG/1.1/DTD/svg11.dtd" >
<svg xmlns="http://www.w3.org/2000/svg">
<metadata>
Created by FontForge 20120731 at Thu Jul 14 14:01:40 2016
 By admin
</metadata>
<defs>
<font id="iconfont" horiz-adv-x="1024" >
  <font-face 
    font-family="iconfont"
    font-weight="500"
    font-stretch="normal"
    units-per-em="1024"
    panose-1="2 0 6 3 0 0 0 0 0 0"
    ascent="896"
    descent="-128"
    x-height="792"
    bbox="34 -94 956 893.391"
    underline-thickness="50"
    underline-position="-100"
    unicode-range="U+0078-E620"
  />
<missing-glyph horiz-adv-x="374" 
d="M34 0v682h272v-682h-272zM68 34h204v614h-204v-614z" />
    <glyph glyph-name=".notdef" horiz-adv-x="374" 
d="M34 0v682h272v-682h-272zM68 34h204v614h-204v-614z" />
    <glyph glyph-name=".null" horiz-adv-x="0" 
 />
    <glyph glyph-name="nonmarkingreturn" horiz-adv-x="341" 
 />
    <glyph glyph-name="x" unicode="x" horiz-adv-x="1001" 
d="M281 543q-27 -1 -53 -1h-83q-18 0 -36.5 -6t-32.5 -18.5t-23 -32t-9 -45.5v-76h912v41q0 16 -0.5 30t-0.5 18q0 13 -5 29t-17 29.5t-31.5 22.5t-49.5 9h-133v-97h-438v97zM955 310v-52q0 -23 0.5 -52t0.5 -58t-10.5 -47.5t-26 -30t-33 -16t-31.5 -4.5q-14 -1 -29.5 -0.5
t-29.5 0.5h-32l-45 128h-439l-44 -128h-29h-34q-20 0 -45 1q-25 0 -41 9.5t-25.5 23t-13.5 29.5t-4 30v167h911zM163 247q-12 0 -21 -8.5t-9 -21.5t9 -21.5t21 -8.5q13 0 22 8.5t9 21.5t-9 21.5t-22 8.5zM316 123q-8 -26 -14 -48q-5 -19 -10.5 -37t-7.5 -25t-3 -15t1 -14.5
t9.5 -10.5t21.5 -4h37h67h81h80h64h36q23 0 34 12t2 38q-5 13 -9.5 30.5t-9.5 34.5q-5 19 -11 39h-368zM336 498v228q0 11 2.5 23t10 21.5t20.5 15.5t34 6h188q31 0 51.5 -14.5t20.5 -52.5v-227h-327z" />
    <glyph glyph-name="uniE600" unicode="&#xe600;" 
d="M706 409q-20 0 -40 -6q-22 36 -58.5 57t-79.5 21q-61 0 -106.5 -41.5t-52.5 -102.5q-28 -1 -49.5 -18.5t-29.5 -43.5h-34q-35 0 -60 25t-25 60.5t25 60.5t60 25q5 0 13 -1l19 -2v20q0 78 55.5 133t132.5 55q53 0 98 -27.5t69 -74.5l7 -14l14 5q23 8 46 8q57 0 97 -40
t40 -96q0 -44 -26 -80q-14 35 -45.5 56t-69.5 21zM706 194h-332q-22 0 -38 16t-16 39t16 39t38 16q4 0 9 -1l19 -2v20q0 52 37 89t89 37q37 0 68 -20t47 -53l7 -16l16 8q19 9 40 9q38 0 64.5 -26.5t26.5 -64t-26.5 -64t-64.5 -26.5zM881 411.5q0 70.5 -50 120.5t-121 50
q-22 0 -43 -5q-30 50 -81 79t-110 29q-87 0 -150.5 -59.5t-70.5 -145.5q-49 0 -83.5 -35t-34.5 -84q0 -50 35 -85t84 -35h30q4 -34 29 -57.5t59 -23.5h332q52 0 88.5 36.5t36.5 88.5l-1 6q51 50 51 120.5zM338 111q-11 0 -18.5 -7.5t-7.5 -18t7.5 -18t18.5 -7.5t18.5 7.5
t7.5 18t-7.5 18t-18.5 7.5zM508.5 111q-10.5 0 -18 -7.5t-7.5 -18t7.5 -18t18 -7.5t18 7.5t7.5 18t-7.5 18t-18 7.5zM679.5 111q-10.5 0 -18 -7.5t-7.5 -18t7.5 -18t18 -7.5t18 7.5t7.5 18t-7.5 18t-18 7.5zM594 23q-9 0 -16 -7t-7 -16t7 -16t16 -7t16 7t7 16t-7 16t-16 7z
M423 26q-10 0 -17.5 -7.5t-7.5 -18.5t7.5 -18.5t18 -7.5t18 7.5t7.5 18.5t-7.5 18.5t-18.5 7.5z" />
    <glyph glyph-name="uniE601" unicode="&#xe601;" 
d="M706 415q-20 0 -40 -7q-22 36 -58.5 57.5t-79.5 21.5q-61 0 -106.5 -41.5t-52.5 -102.5q-28 -2 -49.5 -19t-29.5 -43h-34q-35 0 -60 25t-25 60.5t25 60.5t60 25q5 0 13 -1l19 -2v20q0 77 55.5 132t132.5 55q53 0 98 -27t69 -75l7 -13l14 5q23 8 46 8q57 0 97 -40t40 -97
q0 -43 -26 -79q-14 34 -45.5 55.5t-69.5 21.5zM706 200h-332q-22 0 -38 16t-16 38.5t16 38.5t38 16q4 0 9 -1l19 -2v20q0 52 37 89t89 37q37 0 68 -19.5t47 -53.5l7 -16l16 8q19 10 40 10q38 0 64.5 -26.5t26.5 -64t-26.5 -64t-64.5 -26.5zM881 417.5q0 70.5 -50 120.5
t-121 50q-22 0 -43 -6q-30 51 -81 80t-110 29q-87 0 -150.5 -59.5t-70.5 -145.5q-49 -1 -83.5 -36t-34.5 -84t35 -84t84 -35h30q4 -34 29 -57.5t59 -23.5h332q52 0 88.5 36.5t36.5 87.5q0 1 -1 7q51 50 51 120.5zM282 107l-52 -52q-5 -5 -5 -12t5 -12t12 -5t12 5l52 52
q5 5 5 12t-5 12t-12 5t-12 -5zM489 107l-52 -52q-5 -5 -5 -12t5 -12t12 -5t12 5l52 52q5 5 5 12t-5 12t-12 5t-12 -5zM697 107l-53 -52q-5 -5 -5 -12t5 -12t12 -5t12 5l53 52q5 5 5 12t-5 12t-12 5t-12 -5z" />
    <glyph glyph-name="uniE602" unicode="&#xe602;" 
d="M706 415q-20 0 -40 -6q-22 36 -58.5 57t-79.5 21q-61 0 -106.5 -41t-52.5 -102q-28 -2 -49.5 -19t-29.5 -44h-34q-35 0 -60 25t-25 60.5t25 60.5t60 25q5 0 13 -1l19 -2v20q0 78 55.5 133t132.5 55q53 0 98 -27.5t69 -74.5l7 -14l14 5q23 9 46 9q57 0 97 -40.5t40 -96.5
q0 -44 -26 -79q-14 34 -45.5 55t-69.5 21zM706 201h-332q-22 0 -38 16t-16 38.5t16 38.5t38 16q4 0 9 -1l19 -2v20q0 52 37 89t89 37q37 0 68 -20t47 -53l7 -16l16 8q19 9 40 9q38 0 64.5 -26.5t26.5 -63.5t-26.5 -63.5t-64.5 -26.5zM881 418q0 71 -50 121t-121 50
q-22 0 -43 -6q-30 50 -81 79t-110 29q-87 0 -150.5 -59.5t-70.5 -145.5q-49 0 -83.5 -35t-34.5 -84q0 -50 35 -85t84 -35h30q4 -34 29 -57.5t59 -23.5h332q52 0 88.5 36.5t36.5 88.5q0 1 -1 6q51 50 51 121zM338 -12l-52 -53q-5 -5 -5 -12t5 -12t12 -5t12 5l52 53q5 5 5 12
t-5 12t-12 5t-12 -5zM306 108q-5 5 -12 5t-12 -5l-52 -53q-5 -5 -5 -12t5 -12t12 -5t12 5l52 53q5 5 5 12t-5 12zM545 -12l-52 -53q-5 -5 -5 -12t5 -12t12 -5t12 5l52 53q5 5 5 12t-5 12t-12 5t-12 -5zM513 108q-5 5 -12 5t-12 -5l-52 -53q-5 -5 -5 -12t5 -12t12 -5t12 5
l52 53q5 5 5 12t-5 12zM721 108q-5 5 -12 5t-12 -5l-53 -53q-5 -5 -5 -12t5 -12t12 -5t12 5l53 53q5 5 5 12t-5 12z" />
    <glyph glyph-name="uniE603" unicode="&#xe603;" 
d="M338 163q-11 0 -18.5 -7.5t-7.5 -18.5t7.5 -18.5t18.5 -7.5t18.5 7.5t7.5 18.5t-7.5 18.5t-18.5 7.5zM508.5 163q-10.5 0 -18 -7.5t-7.5 -18.5t7.5 -18.5t18 -7.5t18 7.5t7.5 18.5t-7.5 18.5t-18 7.5zM679.5 163q-10.5 0 -18 -7.5t-7.5 -18.5t7.5 -18.5t18 -7.5t18 7.5
t7.5 18.5t-7.5 18.5t-18 7.5zM594 57q-9 0 -16 -6.5t-7 -16t7 -16.5t16 -7t16 7t7 16.5t-7 16t-16 6.5zM423.5 60q-10.5 0 -18 -7.5t-7.5 -18t7.5 -18t18 -7.5t18 7.5t7.5 18t-7.5 18t-18 7.5zM256 440q-35 0 -60 -25t-25 -60.5t25 -60.5t60 -25h454q57 0 97 40t40 96.5
t-40 96.5t-97 40q-23 0 -46 -8l-14 -5l-7 14q-24 47 -69 74.5t-98 27.5q-77 0 -132.5 -55t-55.5 -133v-20l-19 2q-7 1 -13 1zM710 235h-454q-49 0 -84 35t-35 85q0 49 34.5 84t83.5 35q7 87 70.5 146t150.5 59q59 0 110 -29t81 -79q21 6 43 6q71 0 121 -50.5t50 -121
t-50 -120.5t-121 -50z" />
    <glyph glyph-name="uniE604" unicode="&#xe604;" 
d="M338 56l-52 -52q-5 -5 -5 -12.5t5 -12.5t12 -5t12 5l52 53q5 5 5 12t-5 12t-12 5t-12 -5zM306 176q-5 5 -12 5t-12 -5l-52 -52q-5 -5 -5 -12.5t5 -12.5t12 -5t12 5l52 53q5 5 5 12t-5 12zM545 56l-52 -52q-5 -5 -5 -12.5t5 -12.5t12 -5t12 5l52 53q5 5 5 12t-5 12t-12 5
t-12 -5zM513 176q-5 5 -12 5t-12 -5l-52 -52q-5 -5 -5 -12.5t5 -12.5t12 -5t12 5l52 53q5 5 5 12t-5 12zM721 176q-5 5 -12 5t-12 -5l-53 -52q-5 -5 -5 -12.5t5 -12.5t12 -5t12 5l53 53q5 5 5 12t-5 12zM256 452q-35 0 -60 -25t-25 -60.5t25 -60.5t60 -25h454q57 0 97 40
t40 96.5t-40 97t-97 40.5q-23 0 -46 -9l-14 -5l-7 14q-24 47 -69 74.5t-98 27.5q-77 0 -132.5 -55t-55.5 -133v-20l-19 2q-7 1 -13 1zM710 247h-454q-49 0 -84 35t-35 85q0 49 34.5 84t83.5 35q7 87 70.5 146t150.5 59q59 0 110 -29t81 -79q21 6 43 6q71 0 121 -50t50 -121
t-50 -121t-121 -50z" />
    <glyph glyph-name="uniE605" unicode="&#xe605;" 
d="M282 167l-52 -53q-5 -5 -5 -12t5 -12t12 -5t12 5l52 53q5 5 5 12t-5 12t-12 5t-12 -5zM489 167l-52 -53q-5 -5 -5 -12t5 -12t12 -5t12 5l52 53q5 5 5 12t-5 12t-12 5t-12 -5zM697 167l-53 -53q-5 -5 -5 -12t5 -12t12 -5t12 5l53 53q5 5 5 12t-5 12t-12 5t-12 -5zM710 272
h-454q-35 0 -60 25t-25 60.5t25 60.5t60 25q6 0 13 -1l19 -2v20q0 78 55.5 133t132.5 55q53 0 98 -27.5t69 -74.5l7 -14l14 5q23 8 46 8q57 0 97 -40t40 -96.5t-40 -96.5t-97 -40zM710 580q-22 0 -43 -6q-30 50 -81 79t-110 29q-87 0 -150.5 -59t-70.5 -146q-49 0 -83.5 -35
t-34.5 -84q0 -50 35 -85t84 -35h454q71 0 121 50t50 120.5t-50 121t-121 50.5zM559.5 23q-9.5 0 -16 -7t-6.5 -16t6.5 -16t16 -7t16.5 7t7 16t-7 16t-16.5 7zM389 26q-10 0 -17.5 -7.5t-7.5 -18.5t7.5 -18.5t18 -7.5t18 7.5t7.5 18.5t-7.5 18.5t-18.5 7.5z" />
    <glyph glyph-name="uniE606" unicode="&#xe606;" 
d="M612 751q-41 3 -77.5 -17t-56.5 -56l30 -17q15 27 43 42.5t59 13.5q45 -2 75 -36t28 -79q-1 -15 -6 -29l32 -11q6 18 8 38q3 59 -36.5 103.5t-98.5 47.5zM864 610l-57 4q-7 0 -12 -4.5t-5.5 -12t4 -12.5t11.5 -6l57 -3h1q6 0 11 4.5t6 11.5q0 7 -4.5 12.5t-11.5 5.5z
M843 709q6 4 8.5 10.5t-0.5 13t-10 8.5t-13 -1l-51 -25q-6 -3 -8 -10t1 -13q5 -10 15 -10q4 0 8 2zM755.5 839q-5.5 4 -12.5 2.5t-11 -7.5l-31 -47q-4 -6 -2.5 -12.5t7.5 -10.5q4 -3 9 -3q9 0 15 8l30 47q4 6 2.5 12.5t-7 10.5zM614 794h1q7 0 12 4.5t5 11.5l4 56
q0 7 -4.5 12.5t-11.5 6t-12.5 -4.5t-5.5 -12l-4 -56q0 -7 4.5 -12.5t11.5 -5.5zM513 773q4 0 7 1q6 4 8.5 10.5t-0.5 12.5l-26 51q-3 6 -9.5 8.5t-13 -1t-8.5 -10t1 -13.5l25 -50q5 -9 16 -9zM443 734l-47 31q-6 4 -12.5 2.5t-10.5 -7.5t-2.5 -13t7.5 -10l47 -31q4 -3 9 -3
q9 0 14 7q4 6 2.5 13t-7.5 11zM706 411q-21 0 -40 -7q-22 37 -59 58t-79 21q-62 0 -107.5 -41.5t-51.5 -102.5q-28 -1 -49.5 -18.5t-29.5 -43.5h-34q-35 0 -60 25.5t-25 60.5t25 60t60 25q6 0 13 -1l19 -1v19q0 78 55.5 133t132.5 55q53 0 98 -27.5t69 -74.5l7 -14l14 6
q23 8 46 8q57 0 97 -40t40 -97q0 -44 -26 -80q-14 35 -45.5 56t-69.5 21zM706 196h-332q-23 0 -39 16t-16 38.5t16 38.5t39 16h8l20 -2v19q0 53 37 90t89 37q37 0 68 -20t46 -54l8 -15l15 7q20 10 41 10q37 0 63.5 -26.5t26.5 -64t-26.5 -64t-63.5 -26.5zM881 414
q0 71 -50 121t-121 50q-22 0 -43 -6q-30 50 -81 79t-110 29q-87 0 -150.5 -59.5t-70.5 -145.5q-49 0 -83.5 -35t-34.5 -84q0 -50 35 -85t84 -35h30q3 -34 28 -57.5t60 -23.5h332q51 0 87.5 36.5t36.5 88.5v3v3q51 50 51 121z" />
    <glyph glyph-name="uniE607" unicode="&#xe607;" 
d="M881 413q0 76 -58 128q41 36 56 85q3 11 -3 17q-9 9 -18 4q-28 -9 -54 -9q-69 0 -118 49t-49 119q0 26 8 54q3 11 -3 17q-9 9 -17 4q-62 -21 -99.5 -73.5t-37.5 -118.5v-6h-10q-87 0 -151.5 -59.5t-70.5 -145.5q-48 0 -83 -35.5t-35 -84.5q0 -50 35 -84.5t85 -34.5h25
q3 -34 28 -57t59 -23h331q52 0 88.5 36.5t36.5 87.5v2q55 57 55 128zM521 693q0 46 22.5 84.5t60.5 60.5q-2 -10 -2 -31q0 -83 59.5 -142t142.5 -59q19 0 29 2q-16 -26 -39 -45q-42 22 -84 22q-22 0 -43 -5q-49 84 -145 103v3q-1 4 -1 7zM701 196h-331q-23 0 -38.5 16
t-15.5 39t15.5 38.5t38.5 15.5h9l19 -1v20q0 53 36.5 90t89.5 37q37 0 68 -20t46 -54l7 -15l15 8q18 11 41 11q38 0 64.5 -27t26.5 -64t-27 -65.5t-64 -28.5zM701 411q-22 0 -41 -7q-21 37 -58.5 58t-79.5 21q-61 0 -106.5 -41.5t-51.5 -101.5q-28 -2 -49.5 -19t-29.5 -45
h-29q-36 0 -60.5 25t-24.5 61t24.5 60.5t60.5 24.5q9 0 14 -2l18 -1v20q0 78 55 133t133 55q53 0 98 -27.5t69 -74.5l7 -14l14 5q25 9 46 9q56 0 96.5 -40.5t40.5 -96.5q0 -47 -30 -84q-12 37 -44 59.5t-72 22.5z" />
    <glyph glyph-name="uniE608" unicode="&#xe608;" 
d="M725.5 299q-10.5 0 -18 -7.5t-7.5 -18t7.5 -18t18 -7.5t18 7.5t7.5 18t-7.5 18t-18 7.5zM725.5 454q10.5 0 18 7.5t7.5 18t-7.5 18t-18 7.5t-18 -7.5t-7.5 -18t7.5 -18t18 -7.5zM520.5 299q-10.5 0 -18 -7.5t-7.5 -18t7.5 -18t18 -7.5t18 7.5t7.5 18t-7.5 18t-18 7.5z
M520.5 505q-10.5 0 -18 -7.5t-7.5 -18t7.5 -18t18 -7.5t18 7.5t7.5 18t-7.5 18t-18 7.5zM315.5 299q-10.5 0 -18 -7.5t-7.5 -18t7.5 -18t18 -7.5t18 7.5t7.5 18t-7.5 18t-18 7.5zM315.5 505q-10.5 0 -18 -7.5t-7.5 -18t7.5 -18t18 -7.5t18 7.5t7.5 18t-7.5 18t-18 7.5z
M418.5 196q-10.5 0 -18 -7.5t-7.5 -18t7.5 -18t18 -7.5t18 7.5t7.5 18t-7.5 18t-18 7.5zM418 402q-10 0 -17.5 -7.5t-7.5 -18t7.5 -18t18 -7.5t18 7.5t7.5 18.5q0 2 -1 5q-2 9 -9 14.5t-16 5.5zM418.5 560q9.5 0 16 6.5t6.5 16t-6.5 16t-16 6.5t-16.5 -6.5t-7 -16t7 -16
t16.5 -6.5zM623 193q-9 0 -16 -6.5t-7 -16t7 -16t16 -6.5t16 6.5t7 16t-7 16t-16 6.5zM623 402q-11 0 -18.5 -7.5t-7.5 -18t7.5 -18t18.5 -7.5t18.5 7.5t7.5 18.5q0 2 -1 5q-2 9 -9 14.5t-16 5.5zM623 608q-11 0 -18.5 -7.5t-7.5 -18t7.5 -18t18.5 -7.5t18.5 7.5t7.5 18
t-7.5 18t-18.5 7.5z" />
    <glyph glyph-name="uniE609" unicode="&#xe609;" 
d="M282 174l-52 -53q-5 -5 -5 -12t5 -12t12 -5t12 5l52 52q5 5 5 12.5t-5 12.5t-12 5t-12 -5zM738 174q-5 5 -12 5t-12 -5l-53 -53q-5 -5 -5 -12t5 -12t12 -5t12 5l53 52q5 5 5 12.5t-5 12.5zM550 262l-13 -61h69l-150 -192l28 138h-73l24 115h115zM256 450q-35 0 -60 -25
t-25 -60.5t25 -60.5t60 -25h454q57 0 97 40t40 96.5t-40 96.5t-97 40q-23 0 -46 -8l-14 -5l-7 13q-24 48 -69 75.5t-98 27.5q-77 0 -132.5 -55.5t-55.5 -132.5v-20l-19 2q-7 1 -13 1zM710 245h-454q-49 0 -84 35t-35 84q0 50 34.5 85t83.5 35q7 86 70.5 145.5t150.5 59.5
q59 0 110 -29t81 -79q21 5 43 5q71 0 121 -50t50 -120.5t-50 -120.5t-121 -50z" />
    <glyph glyph-name="uniE60A" unicode="&#xe60a;" 
d="M283 177l-53 -52q-12 -12 0 -24q6 -5 12.5 -5t11.5 5l53 53q12 12 0 23q-5 6 -12.5 6t-11.5 -6zM713 177l-53 -52q-5 -6 -5 -12.5t5.5 -11.5t12 -5t11.5 5l53 53q12 12 0 23.5t-24 -0.5zM788 602q0 -15 16 -18l56 -4h2q6 0 11.5 4.5t5.5 11.5q0 15 -15 18l-57 4
q-6 1 -11.5 -3.5t-7.5 -12.5zM785 688q5 0 7 1l51 26q7 3 9 9.5t-2 12.5q-3 7 -9.5 9t-12.5 -2l-51 -25q-7 -3 -9 -9.5t2 -13.5q5 -8 15 -8zM707 770q6 -4 8 -4q8 0 14 9l30 48q10 15 -5 24t-24 -6l-30 -47q-7 -16 7 -24zM614 799q16 0 19 15l4 56q0 16 -16 19
q-6 0 -11.5 -4.5t-7.5 -10.5l-3 -57q-1 -7 3.5 -12t11.5 -6zM497 787q6 -10 15 -10q5 0 7 1q7 4 9.5 11t-1.5 13l-25 51q-3 7 -9.5 9t-12.5 -2q-7 -2 -9 -9t2 -13zM377 742l48 -30q7 -4 8 -4q8 0 14 9q9 15 -5 24l-48 30q-15 10 -24 -5q-5 -14 7 -24zM744 587q2 7 2 19
q3 60 -36 104q-40 45 -99 48q-37 1 -71.5 -17t-54.5 -50h-9q-87 0 -151 -59.5t-71 -145.5q-48 0 -82.5 -35t-34.5 -84q0 -50 34.5 -85t84.5 -35h176l-21 -100h74l-29 -138l150 192h-70l10 48h164q70 0 120.5 50t50.5 121q0 61 -39 107.5t-98 59.5zM609 722q45 -3 75 -36
q30 -35 28 -78q0 -3 -1 -9t-1 -8q-22 0 -43 -6q-51 84 -143 103q37 36 85 34zM710 283h-454q-36 0 -60.5 25t-24.5 60.5t24.5 60.5t60.5 25q9 0 14 -2l18 -1v20q0 78 55 133t133 55q53 0 98 -27.5t69 -75.5l7 -13l14 5q25 8 46 8q56 0 96.5 -40t40.5 -96t-40.5 -96.5
t-96.5 -40.5z" />
    <glyph glyph-name="uniE60B" unicode="&#xe60b;" 
d="M299 177l-53 -52q-12 -12 0 -24q5 -5 12 -5t12 5l53 53q12 12 0 23q-4 6 -11.5 6t-12.5 -6zM730 177l-52 -52q-6 -6 -6 -12.5t5.5 -11.5t12 -5t11.5 5l53 53q12 12 0 23.5t-24 -0.5zM823 546q41 36 56 85q3 11 -3 18q-9 8 -18 3q-28 -9 -54 -9q-69 0 -118 49.5t-49 118.5
q0 26 8 54q3 11 -3 17q-9 9 -17 4q-62 -21 -99.5 -73.5t-37.5 -117.5v-7h-12q-87 0 -151 -59.5t-71 -145.5q-48 0 -82.5 -35.5t-34.5 -83.5q0 -50 34.5 -85t84.5 -35h193l-21 -101h74l-29 -134l150 192h-70l10 48h147q70 0 120.5 50t50.5 121q0 76 -58 126zM521 698
q0 46 22.5 84.5t60.5 60.5q-2 -10 -2 -31q0 -83 59.5 -142t142.5 -59q19 0 29 2q-16 -26 -39 -45q-42 23 -84 23q-22 0 -43 -6q-49 84 -145 103q0 1 -0.5 4.5t-0.5 5.5zM710 283h-454q-36 0 -60.5 25t-24.5 60.5t24.5 60.5t60.5 25q9 0 14 -2l18 -1v20q0 78 55 133t133 55
q53 0 98 -27.5t69 -75.5l7 -13l14 5q25 8 46 8q56 0 96.5 -40t40.5 -96q0 -57 -40 -97t-97 -40z" />
    <glyph glyph-name="uniE60C" unicode="&#xe60c;" 
d="M282 167l-52 -53q-5 -5 -5 -12t5 -12t12 -5t12 5l53 53q5 5 5 12t-5 12t-12.5 5t-12.5 -5zM714 167l-52 -53q-5 -5 -5 -12t5 -12t12 -5t12 5l52 53q5 5 5 12t-5 12t-12 5t-12 -5zM789.5 592q-0.5 -7 4 -12t11.5 -6l57 -3h1q6 0 11 4.5t6 11.5q0 7 -4.5 12.5t-11.5 5.5
l-57 3q-7 1 -12 -4t-5.5 -12zM785 677q4 0 8 2l50 25q6 3 8.5 10t-0.5 13t-10 8.5t-13 -0.5l-51 -26q-6 -3 -8 -9.5t1 -13.5q5 -9 15 -9zM706 758q4 -2 9 -2q9 0 15 7l30 47q4 6 2.5 13t-7 11t-12.5 2.5t-11 -7.5l-31 -47q-4 -6 -2.5 -13t7.5 -11zM614 789h1q7 0 12 4.5
t5 11.5l4 56q0 7 -4.5 12.5t-11.5 5.5t-12.5 -4.5t-5.5 -11.5l-4 -56q0 -7 4.5 -12.5t11.5 -5.5zM497 777q5 -10 16 -10q4 0 7 2q6 3 8.5 10t-0.5 13l-26 50q-3 7 -9.5 9t-13 -1t-8.5 -10t1 -13zM378 731l47 -31q4 -3 9 -3q9 0 14 8q4 6 2.5 13t-7.5 11l-47 31
q-6 4 -12.5 2.5t-10.5 -7.5t-2.5 -13t7.5 -11zM710 272h-454q-35 0 -60 25t-25 60.5t25 60.5t60 25q6 0 13 -1l19 -2v20q0 78 55.5 133t132.5 55q53 0 98 -27.5t69 -75.5l7 -13l14 5q23 8 46 8q57 0 97 -40t40 -96.5t-40 -96.5t-97 -40zM610 712q45 -3 75 -36.5t28 -78.5
q-1 -8 -3 -18q-22 0 -43 -5q-49 82 -144 102q36 39 87 36zM744 576q2 10 3 19q3 59 -36.5 103t-98.5 48q-38 2 -72.5 -15.5t-55.5 -49.5q-1 0 -3.5 0.5t-4.5 0.5q-87 0 -150.5 -59.5t-70.5 -145.5q-49 0 -83.5 -35t-34.5 -85q0 -49 35 -84t84 -35h176l-21 -101h73l-28 -139
l150 193h-69l10 47h163q71 0 121 50t50 121q0 61 -39 108t-98 59zM569.5 23q-9.5 0 -16 -7t-6.5 -16t6.5 -16t16 -7t16.5 7t7 16t-7 16t-16.5 7zM365 26q-11 0 -18.5 -7.5t-7.5 -18.5t7.5 -18.5t18.5 -7.5t18.5 7.5t7.5 18.5t-7.5 18.5t-18.5 7.5z" />
    <glyph glyph-name="uniE60D" unicode="&#xe60d;" 
d="M299 167l-52 -53q-5 -5 -5 -12t5 -12t12 -5t12 5l52 53q5 5 5 12t-5 12t-12 5t-12 -5zM731 167l-53 -53q-5 -5 -5 -12t5 -12t12 -5t12 5l53 53q5 5 5 12t-5 12t-12 5t-12 -5zM710 272h-454q-35 0 -60 25t-25 60.5t25 60.5t60 25q6 0 13 -1l19 -2v20q0 77 55.5 132.5
t132.5 55.5q53 0 98 -27.5t69 -75.5l7 -13l14 5q23 8 46 8q57 0 97 -40t40 -96.5t-40 -96.5t-97 -40zM605 832q-3 -15 -3 -30q0 -84 59.5 -143t142.5 -59q15 0 30 2q-16 -26 -40 -45q-39 22 -84 22q-22 0 -43 -6q-50 84 -145 104v4q-1 4 -1 6q0 45 22.5 84t61.5 61zM823 536
q40 35 57 85q3 10 -4.5 17.5t-17.5 4.5q-26 -9 -54 -9q-69 0 -118.5 49t-49.5 119q0 28 10 55q3 10 -4.5 17.5t-17.5 3.5q-61 -20 -99 -73t-38 -118v-3v-3q-1 0 -5 0.5t-6 0.5q-87 0 -150.5 -59.5t-70.5 -145.5q-49 -1 -83.5 -36t-34.5 -84t35 -84t84 -35h193l-21 -101h73
l-28 -139l150 193h-69l10 47h146q71 0 121 50t50 120q0 77 -58 128zM587 23q-9 0 -16 -7t-7 -16t7 -16t16 -7t16 7t7 16t-7 16t-16 7zM382 26q-10 0 -17.5 -7.5t-7.5 -18.5t7.5 -18.5t18 -7.5t18 7.5t7.5 18.5t-7.5 18.5t-18.5 7.5z" />
    <glyph glyph-name="uniE60E" unicode="&#xe60e;" 
d="M788 283q-36 -36 -87.5 -36t-87.5 36l-83 88l83 87q36 37 87.5 37t88 -36.5t36.5 -88t-37 -87.5zM399 283q-36 -36 -87.5 -36t-87.5 36t-36 87.5t36 88t87.5 36.5t87.5 -36l84 -88zM813 482q-47 47 -112.5 47t-111.5 -47l-83 -87l-83 87q-46 47 -111.5 47t-111.5 -46.5
t-46 -112t46 -111.5t111.5 -46t112.5 46l82 87l83 -87q46 -46 111.5 -46t112 46t46.5 111.5t-46 111.5zM301.5 613q10.5 0 18 7.5t7.5 18.5t-7.5 18.5t-18 7.5t-18 -7.5t-7.5 -18.5t7.5 -18.5t18 -7.5zM506.5 562q10.5 0 18 7.5t7.5 18t-7.5 18t-18 7.5t-18 -7.5t-7.5 -18
t7.5 -18t18 -7.5zM711 613q11 0 18.5 7.5t7.5 18.5t-7.5 18.5t-18.5 7.5t-18.5 -7.5t-7.5 -18.5t7.5 -18.5t18.5 -7.5zM711 128q-11 0 -18.5 -7.5t-7.5 -18t7.5 -18t18.5 -7.5t18.5 7.5t7.5 18t-7.5 18t-18.5 7.5zM506.5 179q-10.5 0 -18 -7.5t-7.5 -18t7.5 -18t18 -7.5
t18 7.5t7.5 18t-7.5 18t-18 7.5zM301 128q-10 0 -17.5 -7.5t-7.5 -18t7.5 -18t18 -7.5t18 7.5t7.5 18t-7.5 18t-18.5 7.5z" />
    <glyph glyph-name="uniE60F" unicode="&#xe60f;" 
d="M619 378q0 -47 -33 -80t-80 -33t-80 33t-33 80t33 80t80 33t80 -33t33 -80zM359 378q0 -61 43 -104t104 -43t104 43t43 104t-43 104t-104 43t-104 -43t-43 -104zM314 378q0 7 -5 12t-12 5h-58q-7 0 -12 -5t-5 -12t5 -12t12 -5h58q7 0 12 5t5 12zM773 395h-58q-7 0 -12 -5
t-5 -12t5 -12t12 -5h58q7 0 12 5t5 12t-5 12t-12 5zM316 288l-50 -29q-6 -3 -8 -10t2 -13q5 -9 15 -9q4 0 8 3l50 29q7 3 8.5 10t-2 13t-10 8t-13.5 -2zM687 466q5 0 9 2l50 29q6 3 8 10t-1.5 13t-10.5 8t-13 -2l-50 -29q-7 -3 -8.5 -10t1.5 -13q5 -8 15 -8zM410 211.5
q-6 3.5 -13 2t-10 -7.5l-29 -51q-4 -6 -2 -13t8 -10q4 -2 8 -2q10 0 15 8l29 50q4 7 2 13.5t-8 10zM648 624.5q-6 3.5 -13 1.5t-10 -8l-29 -50q-4 -6 -2 -13t8 -11q4 -2 9 -2q9 0 14 9l29 50q4 6 2 13t-8 10.5zM506 186q-7 0 -12 -5t-5 -12v-58q0 -7 5 -12t12 -5t12 5t5 12
v58q0 7 -5 12t-12 5zM506 570q7 0 12 5t5 12v58q0 7 -5 12t-12 5t-12 -5t-5 -12v-58q0 -7 5 -12t12 -5zM625 206q-3 6 -10 7.5t-13 -2t-8 -10t2 -13.5l29 -50q5 -8 15 -8q4 0 8 2q6 3 8 10t-2 13zM387 551q5 -9 15 -9q4 0 8 2q6 4 8 11t-2 13l-29 50q-3 6 -10 8t-13 -1.5
t-8 -10.5t2 -13zM746 259l-50 29q-6 4 -13 2t-10.5 -8t-2 -13t8.5 -10l50 -29q4 -3 8 -3q10 0 15 9q4 6 2 13t-8 10zM333 497l-50 29q-6 4 -13 2t-10.5 -8t-1.5 -13t8 -10l50 -29q4 -2 9 -2q10 0 15 8q3 6 1.5 13t-8.5 10z" />
    <glyph glyph-name="uniE610" unicode="&#xe610;" 
d="M400 617q-66 -32 -105 -94.5t-39 -136.5q0 -107 75.5 -182.5t182.5 -75.5q73 0 135.5 38.5t94.5 104.5q-29 -7 -59 -7q-120 0 -206 86t-86 206q0 31 7 61zM514 94q-121 0 -206.5 85.5t-85.5 206.5q0 94 54.5 170t143.5 106q10 4 17.5 -3.5t4.5 -17.5q-15 -42 -15 -85
q0 -106 76 -181.5t182 -75.5q42 0 83 13q10 4 17.5 -3.5t4.5 -17.5q-31 -89 -107 -143t-169 -54z" />
    <glyph glyph-name="uniE611" unicode="&#xe611;" 
d="M706 415q-20 0 -40 -7q-22 36 -58.5 57.5t-79.5 21.5q-61 0 -106.5 -41.5t-52.5 -102.5q-28 -2 -49.5 -19t-29.5 -43h-34q-35 0 -60 25t-25 60.5t25 60.5t60 25q5 0 13 -1l19 -2v20q0 77 55.5 132t132.5 55q53 0 98 -27t69 -75l7 -13l14 5q23 8 46 8q57 0 97 -40t40 -97
q0 -43 -26 -79q-14 34 -45.5 55.5t-69.5 21.5zM706 200h-332q-22 0 -38 16t-16 38.5t16 38.5t38 16q4 0 9 -1l19 -2v20q0 52 37 89t89 37q37 0 68 -19.5t47 -53.5l7 -16l16 8q19 10 40 10q38 0 64.5 -26.5t26.5 -64t-26.5 -64t-64.5 -26.5zM881 417.5q0 70.5 -50 120.5
t-121 50q-22 0 -43 -6q-30 51 -81 80t-110 29q-87 0 -150.5 -59.5t-70.5 -145.5q-49 -1 -83.5 -36t-34.5 -84t35 -84t84 -35h30q4 -34 29 -57.5t59 -23.5h332q52 0 88.5 36.5t36.5 87.5q0 1 -1 7q51 50 51 120.5zM289 107q-5 5 -12 5t-12 -5l-52 -52q-5 -5 -5 -12t5 -12
t12 -5t12 5l52 52q5 5 5 12t-5 12zM496 107q-5 5 -12 5t-12 -5l-52 -52q-5 -5 -5 -12t5 -12t12 -5t12 5l52 52q5 5 5 12t-5 12zM704 107q-5 5 -12 5t-12 -5l-53 -52q-5 -5 -5 -12t5 -12t12 -5t12 5l53 52q5 5 5 12t-5 12zM340 -12q-5 5 -12 5t-12 -5l-52 -53q-5 -5 -5 -12
t5 -12t12 -5t12 5l52 53q5 5 5 12t-5 12zM548 -12q-5 5 -12.5 5t-12.5 -5l-52 -53q-5 -5 -5 -12t5 -12t12 -5t12 5l53 53q5 5 5 12t-5 12zM755 -12q-5 5 -12 5t-12 -5l-53 -53q-5 -5 -5 -12t5 -12t12 -5t12 5l53 53q5 5 5 12t-5 12z" />
    <glyph glyph-name="uniE612" unicode="&#xe612;" 
d="M707 164h-397q-7 0 -12 -5t-5 -12t5 -12t12 -5h397q7 0 12 5t5 12t-5 12t-12 5zM710 269h-454q-35 0 -60 25t-25 60t25 60t60 25q6 0 13 -1l19 -1v20q0 77 55.5 132t132.5 55q53 0 98 -27.5t69 -74.5l7 -13l14 5q23 8 46 8q57 0 97 -40t40 -96.5t-40 -96.5t-97 -40z
M710 576q-22 0 -43 -6q-30 51 -81 79.5t-110 28.5q-87 0 -150.5 -59t-70.5 -145q-49 -1 -83.5 -36t-34.5 -84t35 -84t84 -35h454q71 0 121 50t50 120.5t-50 120.5t-121 50zM636 60h-255q-7 0 -12 -5t-5 -12t5 -12t12 -5h255q7 0 12 5t5 12t-5 12t-12 5z" />
    <glyph glyph-name="uniE613" unicode="&#xe613;" 
d="M594 162q-9 0 -16 -6.5t-7 -16t7 -16t16 -6.5t16 6.5t7 16t-7 16t-16 6.5zM423.5 162q-10.5 0 -18 -7.5t-7.5 -18t7.5 -18t18 -7.5t18 7.5t7.5 18t-7.5 18t-18 7.5zM256 439q-35 0 -60 -25t-25 -60t25 -60t60 -25h454q57 0 97 40t40 96.5t-40 96.5t-97 40q-23 0 -46 -8
l-14 -5l-7 13q-24 47 -69 74.5t-98 27.5q-77 0 -132.5 -55t-55.5 -133v-19l-19 1q-7 1 -13 1zM710 235h-454q-49 0 -84 35t-35 84t34.5 84t83.5 36q7 86 70.5 145t150.5 59q59 0 110 -28.5t81 -79.5q21 6 43 6q71 0 121 -50t50 -120.5t-50 -120.5t-121 -50z" />
    <glyph glyph-name="uniE614" unicode="&#xe614;" 
d="M385 175l-52 -52q-5 -5 -5 -12t5 -12t12 -5t12 5l52 52q5 5 5 12t-5 12t-12 5t-12 -5zM592 175l-52 -52q-5 -5 -5 -12t5 -12t12 -5t12 5l52 52q5 5 5 12t-5 12t-12 5t-12 -5zM256 453q-35 0 -60 -25t-25 -60.5t25 -60.5t60 -25h454q57 0 97 40t40 96.5t-40 96.5t-97 40
q-23 0 -46 -8l-14 -5l-7 13q-24 48 -69 75.5t-98 27.5q-77 0 -132.5 -55.5t-55.5 -132.5v-20l-19 2q-7 1 -13 1zM710 248h-454q-49 0 -84 35t-35 84t34.5 84t83.5 36q7 86 70.5 145.5t150.5 59.5q59 0 110 -29t81 -80q21 6 43 6q71 0 121 -50t50 -120.5t-50 -120.5t-121 -50
z" />
    <glyph glyph-name="uniE615" unicode="&#xe615;" 
d="M603 440q7 0 12 5t5 12t-5 12t-12 5h-337q-43 0 -68.5 26t-26.5 62q-1 37 23 62q24 24 61 24q30 0 48 -19q15 -17 15 -42q0 -21 -12.5 -36t-36.5 -15q-17 0 -26 9q-7 6 -7 16q0 8 5 15t17 7q7 0 12 5t5 12t-5 12t-12 5q-26 0 -41 -17t-15 -39q0 -24 17 -41q19 -18 50 -18
q39 0 61 25.5t22 59.5q0 38 -24 65q-28 30 -73 30q-52 0 -85 -34q-35 -36 -33 -87q1 -48 36 -84.5t93 -36.5h337zM795 302h-338q-58 0 -93 -36.5t-36 -84.5q-1 -51 34 -87q33 -34 84 -34q46 0 73 30q25 27 25 64q0 35 -22.5 60.5t-60.5 25.5q-32 0 -50 -18q-18 -17 -18 -41
q0 -22 15.5 -39t41.5 -17q7 0 12 5t5 12t-5 12t-12 5q-12 0 -17.5 7t-5.5 15q0 10 7 16q9 9 27 9q24 0 36.5 -15.5t12.5 -36.5q0 -24 -16 -41q-17 -19 -48 -19q-37 0 -60 24q-25 25 -24 62q1 35 26.5 61.5t68.5 26.5h338q7 0 12 5t5 12t-5 12t-12 5zM430 387q-7 0 -12 -5
t-5 -12t5 -12t12 -5h269q7 0 12 5t5 12t-5 12t-12 5h-269zM311.5 388q-7.5 0 -13.5 -6t-6 -13.5t6 -13t13.5 -5.5t13 5.5t5.5 13t-5.5 13.5t-13 6zM190.5 388q-7.5 0 -13.5 -6t-6 -13.5t6 -13t13.5 -5.5t13 5.5t5.5 13t-5.5 13.5t-13 6zM251 323q-2 0 -4 -1q-15 -3 -15 -18
q0 -8 5.5 -13.5t13.5 -5.5t13.5 5.5t5.5 13.5t-5.5 13.5t-13.5 5.5zM858 387h-92q-7 0 -12 -5t-5 -12t5 -12t12 -5h92q7 0 12 5t5 12t-5 12t-12 5zM653 457q0 -7 5 -12t12 -5h92q7 0 12 5t5 12t-5 12t-12 5h-92q-7 0 -12 -5t-5 -12zM576 525h92q7 0 12 5t5 12t-5 12t-12 5
h-92q-7 0 -12 -5t-5 -12t5 -12t12 -5z" />
    <glyph glyph-name="uniE616" unicode="&#xe616;" 
d="M256 435q-35 0 -60 -25t-25 -60t25 -60t60 -25h454q57 0 97 40t40 96.5t-40 96.5t-97 40q-23 0 -46 -8l-14 -5l-7 13q-24 47 -69 74.5t-98 27.5q-77 0 -132.5 -55t-55.5 -133v-19l-19 1q-7 1 -13 1zM710 230h-454q-49 0 -84 35t-35 85q0 49 34.5 84t83.5 35
q7 87 70.5 146t150.5 59q59 0 110 -29t81 -79q21 6 43 6q71 0 121 -50t50 -120.5t-50 -121t-121 -50.5z" />
    <glyph glyph-name="uniE617" unicode="&#xe617;" 
d="M282 167l-52 -53q-5 -5 -5 -12t5 -12t12 -5t12 5l52 53q5 5 5 12t-5 12t-12 5t-12 -5zM489 167l-52 -53q-5 -5 -5 -12t5 -12t12 -5t12 5l52 53q5 5 5 12t-5 12t-12 5t-12 -5zM697 167l-53 -53q-5 -5 -5 -12t5 -12t12 -5t12 5l53 53q5 5 5 12t-5 12t-12 5t-12 -5zM710 272
h-454q-35 0 -60 25t-25 60.5t25 60.5t60 25q6 0 13 -1l19 -2v20q0 78 55.5 133t132.5 55q53 0 98 -27.5t69 -74.5l7 -14l14 5q23 8 46 8q57 0 97 -40t40 -96.5t-40 -96.5t-97 -40zM710 580q-22 0 -43 -6q-30 50 -81 79t-110 29q-87 0 -150.5 -59t-70.5 -146q-49 0 -83.5 -35
t-34.5 -84q0 -50 35 -85t84 -35h454q71 0 121 50t50 120.5t-50 121t-121 50.5zM559.5 23q-9.5 0 -16 -7t-6.5 -16t6.5 -16t16 -7t16.5 7t7 16t-7 16t-16.5 7zM389 26q-10 0 -17.5 -7.5t-7.5 -18.5t7.5 -18.5t18 -7.5t18 7.5t7.5 18.5t-7.5 18.5t-18.5 7.5z" />
    <glyph glyph-name="uniE618" unicode="&#xe618;" 
d="M338 180q-11 0 -18.5 -7.5t-7.5 -18t7.5 -18t18.5 -7.5t18.5 7.5t7.5 18t-7.5 18t-18.5 7.5zM508.5 180q-10.5 0 -18 -7.5t-7.5 -18t7.5 -18t18 -7.5t18 7.5t7.5 18t-7.5 18t-18 7.5zM679.5 180q-10.5 0 -18 -7.5t-7.5 -18t7.5 -18t18 -7.5t18 7.5t7.5 18t-7.5 18
t-18 7.5zM594 77q-11 0 -18.5 -7.5t-7.5 -18t7.5 -18t18.5 -7.5t18.5 7.5t7.5 18t-7.5 18t-18.5 7.5zM423.5 77q-10.5 0 -18 -7.5t-7.5 -18t7.5 -18t18 -7.5t18 7.5t7.5 18t-7.5 18t-18 7.5zM806 536l-20 28q29 21 48 52q-15 -2 -30 -2q-83 0 -142.5 59t-59.5 143q0 15 3 30
q-39 -22 -61.5 -61t-22.5 -84q0 -11 2 -22l-34 -5q-2 14 -2 27q0 65 38 118t99 73q10 4 17.5 -3.5t4.5 -17.5q-10 -27 -10 -55q0 -70 49.5 -119t118.5 -49q28 0 54 9q10 3 17.5 -4.5t4.5 -17.5q-21 -61 -74 -99zM256 457q-35 0 -60 -25t-25 -60.5t25 -60.5t60 -25h454
q57 0 97 40t40 96.5t-40 96.5t-97 40q-23 0 -46 -8l-14 -5l-7 13q-24 48 -69 75.5t-98 27.5q-77 0 -132.5 -55.5t-55.5 -132.5v-20l-19 2q-7 1 -13 1zM710 252h-454q-49 0 -84 35t-35 84t34.5 84t83.5 36q7 86 70.5 145.5t150.5 59.5q59 0 110 -29t81 -79q21 5 43 5
q71 0 121 -50t50 -120.5t-50 -120.5t-121 -50z" />
    <glyph glyph-name="uniE619" unicode="&#xe619;" 
d="M614 797h1q7 0 12 5t5 11l4 57q0 7 -4.5 12t-11.5 5.5t-12.5 -4t-5.5 -11.5l-4 -57q0 -7 4.5 -12t11.5 -6zM789.5 601q-0.5 -7 4 -12.5t11.5 -5.5l57 -3h1q6 0 11 4.5t6 11.5q0 7 -4.5 12t-11.5 6l-57 3q-7 0 -12 -4.5t-5.5 -11.5zM785 686q4 0 8 2l50 25q6 3 8.5 9.5
t-0.5 13t-10 9t-13 -1.5l-51 -25q-6 -3 -8 -9.5t1 -13.5q5 -9 15 -9zM706 767q4 -3 9 -3q9 0 15 8l30 47q4 6 2.5 13t-7 11t-12.5 2.5t-11 -7.5l-31 -47q-4 -6 -2.5 -13t7.5 -11zM497 785q5 -9 16 -9q4 0 7 2q6 3 8.5 9.5t-0.5 13.5l-26 50q-3 6 -9.5 8.5t-13 -0.5t-8.5 -10
t1 -13zM378 740l47 -31q4 -3 9 -3q9 0 14 8q4 6 2.5 13t-7.5 10l-47 31q-6 4 -12.5 2.5t-10.5 -7t-2.5 -12.5t7.5 -11zM710 281h-454q-35 0 -60 25t-25 60.5t25 60.5t60 25q6 0 13 -2l19 -1v20q0 77 55.5 132t132.5 55q53 0 98 -27t69 -75l7 -13l14 5q23 8 46 8q57 0 97 -40
t40 -96.5t-40 -96.5t-97 -40zM610 721q45 -3 75 -37t28 -79q-1 -8 -3 -17q-22 0 -43 -6q-49 83 -144 103q36 39 87 36zM744 585q2 10 3 18q3 60 -36.5 104t-98.5 48q-38 2 -72.5 -15.5t-55.5 -49.5q-1 0 -3.5 0.5t-4.5 0.5q-87 0 -150.5 -59.5t-70.5 -145.5
q-49 -1 -83.5 -36t-34.5 -84t35 -84t84 -35h454q71 0 121 50t50 120q0 62 -39 109t-98 59zM338 56l-52 -52q-5 -5 -5 -12.5t5 -12.5t12 -5t12 5l52 53q5 5 5 12t-5 12t-12 5t-12 -5zM307 176q-5 5 -12.5 5t-12.5 -5l-52 -52q-5 -5 -5 -12.5t5 -12.5t12 -5t12 5l53 53
q5 5 5 12t-5 12zM546 56l-53 -52q-5 -5 -5 -12.5t5 -12.5t12 -5t12 5l53 53q5 5 5 12t-5 12t-12 5t-12 -5zM514 176q-5 5 -12 5t-12 -5l-53 -52q-5 -5 -5 -12.5t5 -12.5t12 -5t12 5l53 53q5 5 5 12t-5 12zM697 176l-52 -52q-5 -5 -5 -12.5t4.5 -12.5t12 -5t12.5 5l52 53
q5 5 5 12t-5 12t-12 5t-12 -5z" />
    <glyph glyph-name="uniE61A" unicode="&#xe61a;" 
d="M710 280h-454q-35 0 -60 25t-25 60.5t25 60.5t60 25q6 0 13 -1l19 -2v20q0 78 55.5 133t132.5 55q53 0 98 -27.5t69 -74.5l7 -14l14 5q23 8 46 8q57 0 97 -40t40 -96.5t-40 -96.5t-97 -40zM521 695q0 46 22.5 84.5t61.5 61.5q-3 -16 -3 -31q0 -83 59.5 -142.5
t142.5 -59.5q15 0 30 2q-16 -25 -40 -45q-39 22 -84 22q-22 0 -43 -5q-50 83 -145 103v4q-1 4 -1 6zM823 544q40 36 57 85q3 11 -4.5 18.5t-17.5 3.5q-26 -9 -54 -9q-69 0 -118.5 49.5t-49.5 118.5q0 28 10 55q3 10 -4.5 17.5t-17.5 4.5q-61 -21 -99 -74t-38 -118v-3v-3
q-1 0 -5 0.5t-6 0.5q-87 0 -150.5 -59.5t-70.5 -145.5q-49 0 -83.5 -35t-34.5 -84q0 -50 35 -85t84 -35h454q71 0 121 50t50 121q0 76 -58 127zM338 56l-52 -52q-5 -5 -5 -12.5t5 -12.5t12 -5t12 5l52 53q5 5 5 12t-5 12t-12 5t-12 -5zM307 176q-5 5 -12.5 5t-12.5 -5
l-52 -52q-5 -5 -5 -12.5t5 -12.5t12 -5t12 5l53 53q5 5 5 12t-5 12zM546 56l-53 -52q-5 -5 -5 -12.5t5 -12.5t12 -5t12 5l53 53q5 5 5 12t-5 12t-12 5t-12 -5zM514 176q-5 5 -12 5t-12 -5l-53 -52q-5 -5 -5 -12.5t5 -12.5t12 -5t12 5l53 53q5 5 5 12t-5 12zM697 176l-52 -52
q-5 -5 -5 -12.5t4.5 -12.5t12 -5t12.5 5l52 53q5 5 5 12t-5 12t-12 5t-12 -5z" />
    <glyph glyph-name="uniE61B" unicode="&#xe61b;" 
d="M338 162q-11 0 -18.5 -7.5t-7.5 -18t7.5 -18t18.5 -7.5t18.5 7.5t7.5 18t-7.5 18t-18.5 7.5zM508.5 162q-10.5 0 -18 -7.5t-7.5 -18t7.5 -18t18 -7.5t18 7.5t7.5 18t-7.5 18t-18 7.5zM679.5 162q-10.5 0 -18 -7.5t-7.5 -18t7.5 -18t18 -7.5t18 7.5t7.5 18t-7.5 18
t-18 7.5zM256 439q-35 0 -60 -25t-25 -60t25 -60t60 -25h454q57 0 97 40t40 96.5t-40 96.5t-97 40q-23 0 -46 -8l-14 -5l-7 13q-24 47 -69 74.5t-98 27.5q-77 0 -132.5 -55t-55.5 -133v-19l-19 1q-7 1 -13 1zM710 235h-454q-49 0 -84 35t-35 84t34.5 84t83.5 36
q7 86 70.5 145t150.5 59q59 0 110 -28.5t81 -79.5q21 6 43 6q71 0 121 -50t50 -120.5t-50 -120.5t-121 -50z" />
    <glyph glyph-name="uniE61C" unicode="&#xe61c;" 
d="M306 175q-5 5 -12 5t-12 -5l-52 -52q-5 -5 -5 -12t5 -12t12 -5t12 5l52 52q5 5 5 12t-5 12zM513 175q-5 5 -12 5t-12 -5l-52 -52q-5 -5 -5 -12t5 -12t12 -5t12 5l52 52q5 5 5 12t-5 12zM721 175q-5 5 -12 5t-12 -5l-53 -52q-5 -5 -5 -12t5 -12t12 -5t12 5l53 52q5 5 5 12
t-5 12zM256 452q-35 0 -60 -25t-25 -60.5t25 -60.5t60 -25h454q57 0 97 40t40 96.5t-40 96.5t-97 40q-23 0 -46 -8l-14 -5l-7 13q-24 48 -69 75t-98 27q-77 0 -132.5 -55t-55.5 -132v-20l-19 2q-7 1 -13 1zM710 247h-454q-49 0 -84 35t-35 84t34.5 84t83.5 36
q7 86 70.5 145.5t150.5 59.5q59 0 110 -29t81 -80q21 6 43 6q71 0 121 -50t50 -120.5t-50 -120.5t-121 -50z" />
    <glyph glyph-name="uniE61D" unicode="&#xe61d;" 
d="M338 154zM316 153.5q0 9.5 6.5 16t15.5 6.5t15.5 -6.5t6.5 -16t-6.5 -16t-15.5 -6.5t-15.5 6.5t-6.5 16zM509 154zM486 153.5q0 9.5 6.5 16t16 6.5t16 -6.5t6.5 -16t-6.5 -16t-16 -6.5t-16 6.5t-6.5 16zM679 154zM654 153.5q0 10.5 7.5 18t18 7.5t18 -7.5t7.5 -18
t-7.5 -18t-18 -7.5t-18 7.5t-7.5 18zM594 51zM570 51q0 10 7 17t17 7t17 -7t7 -17t-7 -17t-17 -7t-17 7t-7 17zM423 51zM398 51.5q0 10.5 7.5 18t18 7.5t18 -7.5t7.5 -18t-7.5 -18t-18 -7.5t-18 7.5t-7.5 18zM788 606q0 -16 16 -19l56 -3h2q6 0 11.5 4.5t5.5 10.5
q0 16 -15 19l-57 5q-6 0 -11.5 -5t-7.5 -12zM785 691q5 0 7 2l51 26q7 2 9 8.5t-2 13.5q-3 6 -9.5 8t-12.5 -1l-51 -26q-7 -3 -9 -9.5t2 -12.5q5 -9 15 -9zM707 773q6 -3 8 -3q8 0 14 8l30 48q10 15 -5 24t-24 -5l-30 -48q-7 -16 7 -24zM614 802q16 0 19 15l4 57
q0 16 -16 19q-6 0 -11.5 -4.5t-7.5 -11.5l-3 -56q-1 -7 3.5 -12t11.5 -7zM497 790q5 -10 15 -10q5 0 7 2q6 2 8 8.5t-1 13.5l-26 51q-3 6 -9.5 8.5t-12.5 -1.5q-7 -3 -9 -9.5t2 -12.5zM377 746l48 -31q7 -3 8 -3q8 0 14 8q5 6 3.5 12t-6.5 10l-48 31q-15 9 -24 -5
q-4 -5 -2 -11.5t7 -10.5zM744 591q2 6 2 18q3 61 -36 104q-40 46 -99 48q-38 3 -72 -14.5t-56 -50.5h-9q-86 0 -150.5 -59.5t-70.5 -144.5q-49 0 -83.5 -35.5t-34.5 -84.5q0 -50 34.5 -84.5t84.5 -34.5h454q71 0 121 50t50 120q1 61 -37 108t-98 60zM609 725q45 -2 75 -36
q30 -35 28 -78q0 -3 -1 -9t-1 -8q-22 0 -43 -5q-51 84 -143 102q37 37 85 34zM710 287h-454q-36 0 -60.5 24.5t-24.5 60.5t24.5 60.5t60.5 24.5q9 0 14 -1l18 -2v20q0 79 55 133.5t133 54.5q53 0 98 -27.5t69 -74.5l7 -14l14 5q25 9 46 9q56 0 96.5 -40t40.5 -96.5
t-40.5 -96.5t-96.5 -40z" />
    <glyph glyph-name="uniE61E" unicode="&#xe61e;" 
d="M602 734q0 7 -5 12t-12 5h-397q-7 0 -12 -5t-5 -12t5 -12t12 -5h397q7 0 12 5t5 12zM720 655.5q0 7.5 -5 12.5t-12 5h-397q-7 0 -12 -5t-5 -12.5t5 -12.5t12 -5h397q7 0 12 5t5 12.5zM824 594h-380q-7 0 -12 -5t-5 -12t5 -12t12 -5h380q7 0 12 5t5 12t-5 12t-12 5z
M664 481q7 0 12 5t5 12t-5 12t-12 5h-261q-7 0 -12 -5t-5 -12t5 -12t12 -5h261zM716 436h-260q-7 0 -12 -5t-5 -12t5 -12t12 -5h260q7 0 12 5t5 12t-5 12t-12 5zM678 358h-261q-7 0 -12 -5t-5 -12.5t5 -12.5t12 -5h261q7 0 12 5t5 12.5t-5 12.5t-12 5zM625 279h-181
q-7 0 -12 -5t-5 -12t5 -12t12 -5h181q7 0 12 5t5 12t-5 12t-12 5zM544 200h-130q-7 0 -12 -5t-5 -12t5 -12t12 -5h130q7 0 12 5t5 12t-5 12t-12 5zM510 121h-96q-7 0 -12 -5t-5 -12t5 -12t12 -5h96q7 0 12 5t5 12t-5 12t-12 5zM489 43h-75q-7 0 -12 -5t-5 -12t5 -12t12 -5
h75q7 0 12 5t5 12t-5 12t-12 5z" />
    <glyph glyph-name="uniE61F" unicode="&#xe61f;" 
d="M637 666q0 17 -17 17h-398q-8 0 -12.5 -5t-4.5 -12q0 -17 17 -17h398q6 0 11.5 5t5.5 12zM773 601h-380q-8 0 -13 -5t-5 -12q0 -17 18 -17h380q17 0 17 17q0 7 -5 12t-12 5zM613 485q17 0 17 17t-17 17h-261q-17 0 -17 -17t17 -17h261zM666 439h-262q-17 0 -17 -17.5
t17 -17.5h262q17 0 17 18q0 7 -5.5 12t-11.5 5zM573 357h-180q-18 0 -18 -17q0 -8 5 -12.5t13 -4.5h180q18 0 18 17q0 6 -5 11.5t-13 5.5zM493 275h-129q-18 0 -18 -17t18 -17h129q17 0 17 17q0 6 -5 11.5t-12 5.5zM459 193h-95q-18 0 -18 -17t18 -17h95q8 0 12.5 4.5
t4.5 12.5q0 6 -5.5 11.5t-11.5 5.5zM439 111h-75q-8 0 -13 -4.5t-5 -12.5q0 -17 18 -17h75q7 0 12 4.5t5 12.5q0 7 -5.5 12t-11.5 5z" />
    <glyph glyph-name="uniE620" unicode="&#xe620;" 
d="M255 474q-49 0 -83.5 -35t-34.5 -84q0 -50 35 -85t84 -35h454q71 0 121 50t50 121q0 70 -50 120.5t-121 50.5q-22 0 -43 -6q-30 50 -81 79t-110 29q-87 0 -150.5 -59t-70.5 -146zM288 457q0 78 55.5 133t132.5 55q53 0 98 -27.5t69 -74.5l7 -14l14 5q23 8 46 8
q57 0 97 -40t40 -96q0 -57 -40 -97t-97 -40h-454q-35 0 -60 25t-25 61q0 35 25 60t60 25q6 0 13 -1l19 -2v20zM331 107l-23 22q-7 8 0 15l23 22q7 7 14 0l23 -22q7 -7 0 -15l-23 -22q-7 -7 -14 0zM501 107l-22 22q-7 8 0 15l22 22q8 7 15 0l22 -22q8 -7 0 -15l-22 -22
q-7 -7 -15 0zM672 108l-22 23q-7 7 0 14l22 23q7 7 15 0l22 -23q7 -7 0 -14l-22 -23q-8 -7 -15 0zM416 4l-22 22q-7 7 0 15l22 22q7 7 15 0l22 -22q7 -8 0 -15l-22 -22q-8 -7 -15 0zM587 5l-23 23q-7 7 0 14l23 23q7 7 14 0l23 -23q7 -7 0 -14l-23 -23q-7 -7 -14 0z" />
  </font>
</defs>
</svg>
