<svg width="325px" height="281px" viewBox="0 0 325 281" version="1.1" xmlns="http://www.w3.org/2000/svg" xmlns:xlink="http://www.w3.org/1999/xlink" xmlns:sketch="http://www.bohemiancoding.com/sketch/ns">
  <!-- Generator: Sketch 3.4.4 (17249) - http://www.bohemiancoding.com/sketch -->
  <title>axis</title>
  <desc>Created with Sketch.</desc>
  <defs></defs>
  <g id="Page-1" stroke="none" stroke-width="1" fill="none" fill-rule="evenodd" sketch:type="MSPage">
    <g id="空气质量_一级" sketch:type="MSArtboardGroup" transform="translate(-26.000000, -420.000000)">
      <g id="axis" sketch:type="MSLayerGroup" transform="translate(26.000000, 420.000000)">
        <rect id="Rectangle-92" fill="#D6D9E3" sketch:type="MSShapeGroup" x="0" y="40" width="325" height="0.5"></rect>
        <rect id="Rectangle-92" fill="#D6D9E3" sketch:type="MSShapeGroup" x="0" y="120" width="325" height="0.5"></rect>
        <rect id="Rectangle-92" fill="#D6D9E3" sketch:type="MSShapeGroup" x="0" y="160" width="325" height="0.5"></rect>
        <rect id="Rectangle-92" fill="#D6D9E3" sketch:type="MSShapeGroup" x="0" y="200" width="325" height="0.5"></rect>
        <rect id="Rectangle-92" fill="#D6D9E3" sketch:type="MSShapeGroup" x="0" y="240" width="325" height="0.5"></rect>
        <rect id="Rectangle-92" fill="#D6D9E3" sketch:type="MSShapeGroup" x="0" y="280" width="325" height="0.5"></rect>
        <rect id="Rectangle-92" fill="#D6D9E3" sketch:type="MSShapeGroup" x="0" y="0" width="325" height="0.5"></rect>
        <rect id="Rectangle-267" fill="#64CD00" sketch:type="MSShapeGroup" x="0" y="240.5" width="6" height="39.5"></rect>
        <rect id="Rectangle-267" fill="#F7E400" sketch:type="MSShapeGroup" x="0" y="200.5" width="6" height="39.5"></rect>
        <rect id="Rectangle-267" fill="#FD8900" sketch:type="MSShapeGroup" x="0" y="160.5" width="6" height="39.5"></rect>
        <rect id="Rectangle-267" fill="#E02B00" sketch:type="MSShapeGroup" x="0" y="120.5" width="6" height="39.5"></rect>
        <rect id="Rectangle-267" fill="#B62CBD" sketch:type="MSShapeGroup" x="0" y="40.5" width="6" height="79.5"></rect>
        <rect id="Rectangle-267" fill="#701775" sketch:type="MSShapeGroup" x="0" y="0.5" width="6" height="39.5"></rect>
        <path d="M12.04,133.09 C12.64,132.4 13.35,131.57 13.89,130.92 C14.45,130.25 14.88,129.71 14.88,128.92 C14.88,127.84 14.1,126.9 12.62,126.9 C11.4,126.9 10.63,127.91 10.63,127.91 C10.55,127.99 10.57,128.12 10.64,128.18 L10.99,128.53 C11.07,128.61 11.18,128.61 11.26,128.53 C11.54,128.23 12.01,127.84 12.57,127.84 C13.48,127.84 13.84,128.44 13.84,128.96 C13.84,129.38 13.57,129.88 13.06,130.46 C12.33,131.31 11.33,132.53 10.58,133.4 C10.46,133.54 10.46,133.59 10.46,133.72 L10.46,133.8 C10.46,133.91 10.54,134 10.66,134 L14.64,134 C14.75,134 14.84,133.93 14.84,133.8 L14.84,133.31 C14.84,133.17 14.75,133.11 14.64,133.11 L12.04,133.11 L12.04,133.09 Z M18.72,134.1 C20.34,134.1 21.27,132.75 21.27,130.5 C21.27,128.24 20.34,126.9 18.72,126.9 C17.1,126.9 16.17,128.24 16.17,130.5 C16.17,132.75 17.1,134.1 18.72,134.1 L18.72,134.1 Z M18.72,133.17 C17.76,133.17 17.21,132.21 17.21,130.5 C17.21,128.81 17.76,127.85 18.72,127.85 C19.68,127.85 20.23,128.81 20.23,130.5 C20.23,132.21 19.68,133.17 18.72,133.17 L18.72,133.17 Z M25.14,134.1 C26.76,134.1 27.69,132.75 27.69,130.5 C27.69,128.24 26.76,126.9 25.14,126.9 C23.52,126.9 22.59,128.24 22.59,130.5 C22.59,132.75 23.52,134.1 25.14,134.1 L25.14,134.1 Z M25.14,133.17 C24.18,133.17 23.63,132.21 23.63,130.5 C23.63,128.81 24.18,127.85 25.14,127.85 C26.1,127.85 26.65,128.81 26.65,130.5 C26.65,132.21 26.1,133.17 25.14,133.17 L25.14,133.17 Z" id="200" fill="#858595" sketch:type="MSShapeGroup"></path>
        <path d="M11.53,213.8 C11.53,213.91 11.62,214 11.73,214 L12.36,214 C12.46,214 12.54,213.91 12.54,213.8 L12.54,207.19 C12.54,207.09 12.46,207 12.36,207 L12.05,207 C11.91,207 11.81,207.04 11.7,207.13 L10.39,208.32 C10.35,208.37 10.33,208.45 10.36,208.53 L10.48,208.89 C10.51,208.98 10.62,209 10.71,208.96 L11.53,208.57 L11.53,213.8 Z M16.76,214.1 C18.38,214.1 19.31,212.75 19.31,210.5 C19.31,208.24 18.38,206.9 16.76,206.9 C15.14,206.9 14.21,208.24 14.21,210.5 C14.21,212.75 15.14,214.1 16.76,214.1 L16.76,214.1 Z M16.76,213.17 C15.8,213.17 15.25,212.21 15.25,210.5 C15.25,208.81 15.8,207.85 16.76,207.85 C17.72,207.85 18.27,208.81 18.27,210.5 C18.27,212.21 17.72,213.17 16.76,213.17 L16.76,213.17 Z M23.18,214.1 C24.8,214.1 25.73,212.75 25.73,210.5 C25.73,208.24 24.8,206.9 23.18,206.9 C21.56,206.9 20.63,208.24 20.63,210.5 C20.63,212.75 21.56,214.1 23.18,214.1 L23.18,214.1 Z M23.18,213.17 C22.22,213.17 21.67,212.21 21.67,210.5 C21.67,208.81 22.22,207.85 23.18,207.85 C24.14,207.85 24.69,208.81 24.69,210.5 C24.69,212.21 24.14,213.17 23.18,213.17 L23.18,213.17 Z" id="100" fill="#858595" sketch:type="MSShapeGroup"></path>
        <path d="M10.73,253.25 C10.99,253.56 11.61,254.1 12.74,254.1 C14.15,254.1 15.18,253.03 15.18,251.74 C15.18,250.4 14.32,249.52 12.81,249.52 L11.77,249.52 L11.77,247.89 L14.22,247.89 C14.33,247.89 14.42,247.8 14.42,247.7 L14.42,247.19 C14.42,247.09 14.33,247 14.22,247 L11.04,247 C10.92,247 10.84,247.09 10.84,247.19 L10.84,250.08 C10.84,250.24 10.96,250.44 11.16,250.44 L12.74,250.44 C13.69,250.44 14.17,251.03 14.17,251.75 C14.17,252.49 13.61,253.21 12.72,253.21 C12.09,253.21 11.69,252.93 11.34,252.54 C11.25,252.44 11.17,252.47 11.09,252.54 C10.96,252.65 10.84,252.78 10.71,252.9 C10.58,253.02 10.59,253.09 10.73,253.25 L10.73,253.25 Z M18.86,254.1 C20.48,254.1 21.41,252.75 21.41,250.5 C21.41,248.24 20.48,246.9 18.86,246.9 C17.24,246.9 16.31,248.24 16.31,250.5 C16.31,252.75 17.24,254.1 18.86,254.1 L18.86,254.1 Z M18.86,253.17 C17.9,253.17 17.35,252.21 17.35,250.5 C17.35,248.81 17.9,247.85 18.86,247.85 C19.82,247.85 20.37,248.81 20.37,250.5 C20.37,252.21 19.82,253.17 18.86,253.17 L18.86,253.17 Z" id="50" fill="#858595" sketch:type="MSShapeGroup"></path>
        <path d="M10.52,13.19 C10.75,13.45 11.36,14.1 12.6,14.1 C14.06,14.1 14.96,13.21 14.96,12.09 C14.96,11.13 14.2,10.63 13.72,10.43 L13.72,10.4 C14.18,10.18 14.78,9.58 14.78,8.79 C14.78,7.63 13.82,6.9 12.62,6.9 C11.5,6.9 10.72,7.81 10.72,7.81 C10.65,7.88 10.64,8.01 10.72,8.08 L11.1,8.42 C11.19,8.5 11.31,8.48 11.37,8.4 C11.57,8.17 11.94,7.82 12.56,7.82 C13.17,7.82 13.74,8.25 13.74,8.94 C13.74,9.55 13.25,10.03 12.28,10.03 L11.71,10.03 C11.56,10.03 11.5,10.1 11.5,10.25 L11.5,10.69 C11.5,10.84 11.58,10.91 11.7,10.91 L12.27,10.91 C13.38,10.91 13.9,11.4 13.9,12.07 C13.9,12.87 13.28,13.23 12.61,13.23 C11.92,13.23 11.53,12.92 11.21,12.59 C11.13,12.5 11.03,12.48 10.93,12.57 L10.53,12.94 C10.46,13 10.46,13.11 10.52,13.19 L10.52,13.19 Z M16.33,13.25 C16.59,13.56 17.21,14.1 18.34,14.1 C19.75,14.1 20.78,13.03 20.78,11.74 C20.78,10.4 19.92,9.52 18.41,9.52 L17.37,9.52 L17.37,7.89 L19.82,7.89 C19.93,7.89 20.02,7.8 20.02,7.7 L20.02,7.19 C20.02,7.09 19.93,7 19.82,7 L16.64,7 C16.52,7 16.44,7.09 16.44,7.19 L16.44,10.08 C16.44,10.24 16.56,10.44 16.76,10.44 L18.34,10.44 C19.29,10.44 19.77,11.03 19.77,11.75 C19.77,12.49 19.21,13.21 18.32,13.21 C17.69,13.21 17.29,12.93 16.94,12.54 C16.85,12.44 16.77,12.47 16.69,12.54 C16.56,12.65 16.44,12.78 16.31,12.9 C16.18,13.02 16.19,13.09 16.33,13.25 L16.33,13.25 Z M24.46,14.1 C26.08,14.1 27.01,12.75 27.01,10.5 C27.01,8.24 26.08,6.9 24.46,6.9 C22.84,6.9 21.91,8.24 21.91,10.5 C21.91,12.75 22.84,14.1 24.46,14.1 L24.46,14.1 Z M24.46,13.17 C23.5,13.17 22.95,12.21 22.95,10.5 C22.95,8.81 23.5,7.85 24.46,7.85 C25.42,7.85 25.97,8.81 25.97,10.5 C25.97,12.21 25.42,13.17 24.46,13.17 L24.46,13.17 Z" id="350" fill="#858595" sketch:type="MSShapeGroup"></path>
        <path d="M10.52,53.19 C10.75,53.45 11.36,54.1 12.6,54.1 C14.06,54.1 14.96,53.21 14.96,52.09 C14.96,51.13 14.2,50.63 13.72,50.43 L13.72,50.4 C14.18,50.18 14.78,49.58 14.78,48.79 C14.78,47.63 13.82,46.9 12.62,46.9 C11.5,46.9 10.72,47.81 10.72,47.81 C10.65,47.88 10.64,48.01 10.72,48.08 L11.1,48.42 C11.19,48.5 11.31,48.48 11.37,48.4 C11.57,48.17 11.94,47.82 12.56,47.82 C13.17,47.82 13.74,48.25 13.74,48.94 C13.74,49.55 13.25,50.03 12.28,50.03 L11.71,50.03 C11.56,50.03 11.5,50.1 11.5,50.25 L11.5,50.69 C11.5,50.84 11.58,50.91 11.7,50.91 L12.27,50.91 C13.38,50.91 13.9,51.4 13.9,52.07 C13.9,52.87 13.28,53.23 12.61,53.23 C11.92,53.23 11.53,52.92 11.21,52.59 C11.13,52.5 11.03,52.48 10.93,52.57 L10.53,52.94 C10.46,53 10.46,53.11 10.52,53.19 L10.52,53.19 Z M18.81,54.1 C20.43,54.1 21.36,52.75 21.36,50.5 C21.36,48.24 20.43,46.9 18.81,46.9 C17.19,46.9 16.26,48.24 16.26,50.5 C16.26,52.75 17.19,54.1 18.81,54.1 L18.81,54.1 Z M18.81,53.17 C17.85,53.17 17.3,52.21 17.3,50.5 C17.3,48.81 17.85,47.85 18.81,47.85 C19.77,47.85 20.32,48.81 20.32,50.5 C20.32,52.21 19.77,53.17 18.81,53.17 L18.81,53.17 Z M25.23,54.1 C26.85,54.1 27.78,52.75 27.78,50.5 C27.78,48.24 26.85,46.9 25.23,46.9 C23.61,46.9 22.68,48.24 22.68,50.5 C22.68,52.75 23.61,54.1 25.23,54.1 L25.23,54.1 Z M25.23,53.17 C24.27,53.17 23.72,52.21 23.72,50.5 C23.72,48.81 24.27,47.85 25.23,47.85 C26.19,47.85 26.74,48.81 26.74,50.5 C26.74,52.21 26.19,53.17 25.23,53.17 L25.23,53.17 Z" id="300" fill="#858595" sketch:type="MSShapeGroup"></path>
        <path d="M11.53,173.8 C11.53,173.91 11.62,174 11.73,174 L12.36,174 C12.46,174 12.54,173.91 12.54,173.8 L12.54,167.19 C12.54,167.09 12.46,167 12.36,167 L12.05,167 C11.91,167 11.81,167.04 11.7,167.13 L10.39,168.32 C10.35,168.37 10.33,168.45 10.36,168.53 L10.48,168.89 C10.51,168.98 10.62,169 10.71,168.96 L11.53,168.57 L11.53,173.8 Z M14.28,173.25 C14.54,173.56 15.16,174.1 16.29,174.1 C17.7,174.1 18.73,173.03 18.73,171.74 C18.73,170.4 17.87,169.52 16.36,169.52 L15.32,169.52 L15.32,167.89 L17.77,167.89 C17.88,167.89 17.97,167.8 17.97,167.7 L17.97,167.19 C17.97,167.09 17.88,167 17.77,167 L14.59,167 C14.47,167 14.39,167.09 14.39,167.19 L14.39,170.08 C14.39,170.24 14.51,170.44 14.71,170.44 L16.29,170.44 C17.24,170.44 17.72,171.03 17.72,171.75 C17.72,172.49 17.16,173.21 16.27,173.21 C15.64,173.21 15.24,172.93 14.89,172.54 C14.8,172.44 14.72,172.47 14.64,172.54 C14.51,172.65 14.39,172.78 14.26,172.9 C14.13,173.02 14.14,173.09 14.28,173.25 L14.28,173.25 Z M22.41,174.1 C24.03,174.1 24.96,172.75 24.96,170.5 C24.96,168.24 24.03,166.9 22.41,166.9 C20.79,166.9 19.86,168.24 19.86,170.5 C19.86,172.75 20.79,174.1 22.41,174.1 L22.41,174.1 Z M22.41,173.17 C21.45,173.17 20.9,172.21 20.9,170.5 C20.9,168.81 21.45,167.85 22.41,167.85 C23.37,167.85 23.92,168.81 23.92,170.5 C23.92,172.21 23.37,173.17 22.41,173.17 L22.41,173.17 Z" id="150" fill="#858595" sketch:type="MSShapeGroup"></path>
        <path d="M270.87,126.37 L262.47,126.37 L262.47,134.88 L263.43,134.88 L263.43,134.37 L269.91,134.37 L269.91,134.88 L270.87,134.88 L270.87,126.37 Z M263.43,133.52 L263.43,127.23 L265.1,127.23 L265.1,129.28 C265.08,130.4 264.58,131.22 263.59,131.74 L264.32,132.38 C265.43,131.73 266,130.7 266.02,129.28 L266.02,127.23 L267.28,127.23 L267.28,131.06 C267.28,131.66 267.61,131.96 268.27,131.96 L269.64,131.96 L269.64,131.1 L268.55,131.1 C268.31,131.1 268.19,131.01 268.19,130.83 L268.19,127.23 L269.91,127.23 L269.91,133.52 L263.43,133.52 Z M275.15,132.78 C274.26,133.12 273.22,133.4 272.04,133.6 L272.16,134.52 C273.28,134.31 274.27,134.03 275.15,133.68 L275.15,132.78 Z M273.81,125.77 C273.43,126.83 272.98,127.8 272.47,128.68 C272.35,128.85 272.22,128.96 272.07,129.02 L272.31,129.89 C272.83,129.83 273.34,129.76 273.84,129.69 C273.35,130.45 272.94,130.98 272.62,131.29 C272.5,131.41 272.36,131.5 272.19,131.56 L272.44,132.42 C273.42,132.3 274.45,132.08 275.53,131.76 L275.53,130.9 C274.87,131.1 274.23,131.27 273.6,131.39 C274.18,130.7 274.91,129.6 275.78,128.1 L274.95,127.79 C274.75,128.16 274.55,128.51 274.36,128.83 C273.98,128.89 273.59,128.93 273.2,128.97 C273.72,128.24 274.22,127.29 274.72,126.13 L273.81,125.77 Z M276.55,127.03 L276.55,127.46 C276.53,130.64 275.89,132.94 274.64,134.38 L275.35,135 C276.29,133.92 276.92,132.4 277.24,130.46 C277.52,131.3 277.91,132.07 278.4,132.77 C277.86,133.33 277.19,133.8 276.39,134.18 L276.92,135.05 C277.74,134.67 278.45,134.17 279.04,133.56 C279.52,134.1 280.09,134.59 280.75,135.03 L281.36,134.23 C280.7,133.83 280.12,133.37 279.62,132.86 C280.28,131.94 280.72,130.79 280.94,129.43 L280.94,128.9 L279.7,128.9 C279.85,128.29 280,127.57 280.16,126.73 L280.16,126.14 L275.64,126.14 L275.64,127.03 L276.55,127.03 Z M278.96,132.11 C278.2,131.12 277.69,129.97 277.43,128.66 C277.45,128.28 277.47,127.88 277.47,127.46 L277.47,127.03 L279.19,127.03 C278.97,128.21 278.78,129.11 278.61,129.73 L279.99,129.73 C279.8,130.62 279.46,131.41 278.96,132.11 L278.96,132.11 Z M289.51,125.76 L289.51,127.49 L285.96,127.49 L285.96,132.32 L286.91,132.32 L286.91,131.75 L289.51,131.75 L289.51,135.1 L290.49,135.1 L290.49,131.75 L293.1,131.75 L293.1,132.32 L294.05,132.32 L294.05,127.49 L290.49,127.49 L290.49,125.76 L289.51,125.76 Z M286.91,130.82 L286.91,128.42 L289.51,128.42 L289.51,130.82 L286.91,130.82 Z M290.49,130.82 L290.49,128.42 L293.1,128.42 L293.1,130.82 L290.49,130.82 Z M297.58,131.29 L297.58,132.1 L298.25,132.1 C298.67,132.64 299.19,133.11 299.82,133.53 C298.96,133.86 297.97,134.1 296.86,134.26 L297.27,135.09 C298.59,134.87 299.76,134.53 300.76,134.06 C301.71,134.52 302.85,134.87 304.18,135.09 L304.59,134.27 C303.49,134.13 302.51,133.89 301.66,133.57 C302.38,133.13 302.99,132.61 303.5,131.99 L303.5,131.29 L297.58,131.29 Z M299.27,132.1 L302.22,132.1 C301.78,132.49 301.27,132.84 300.69,133.14 C300.14,132.84 299.67,132.5 299.27,132.1 L299.27,132.1 Z M297.14,129.2 L298.64,129.2 L298.64,130.74 L302.83,130.74 L302.83,129.2 L304.33,129.2 L304.33,128.32 L302.83,128.32 L302.83,127.64 L301.91,127.64 L301.91,128.32 L299.56,128.32 L299.56,127.65 L298.64,127.65 L298.64,128.32 L297.14,128.32 L297.14,127.4 L304.33,127.4 L304.33,126.5 L300.97,126.5 C300.87,126.22 300.76,125.96 300.65,125.73 L299.64,125.89 C299.76,126.07 299.88,126.28 299.99,126.5 L296.2,126.5 L296.2,129.76 C296.18,131.72 295.89,133.26 295.35,134.36 L296.07,135 C296.75,133.68 297.1,131.94 297.14,129.76 L297.14,129.2 Z M299.56,129.2 L301.91,129.2 L301.91,129.95 L299.56,129.95 L299.56,129.2 Z M306.33,125.92 L305.66,126.57 C306.39,127.08 306.96,127.56 307.37,128.01 L308.03,127.34 C307.57,126.87 307,126.4 306.33,125.92 L306.33,125.92 Z M306.07,128.31 L305.4,128.96 C306.13,129.48 306.7,129.96 307.1,130.42 L307.76,129.76 C307.3,129.28 306.74,128.79 306.07,128.31 L306.07,128.31 Z M306.95,131 C306.55,132.2 306.07,133.38 305.51,134.53 L306.4,134.92 C306.91,133.8 307.37,132.6 307.79,131.32 L306.95,131 Z M308.06,128.38 L308.06,129.3 L309.53,129.3 C309.42,129.96 309.26,130.69 309.06,131.51 L312.84,131.51 C312.81,132.89 312.7,133.66 312.5,133.82 C312.32,133.96 311.95,134.03 311.39,134.04 C311.08,134.04 310.75,134.03 310.39,134.02 L310.67,134.93 L311.35,134.93 C312.33,134.93 312.96,134.79 313.26,134.51 C313.58,134.22 313.76,132.94 313.8,130.66 L310.19,130.66 C310.28,130.25 310.37,129.8 310.47,129.3 L314.46,129.3 L314.46,128.38 L308.06,128.38 Z M308.65,126.2 L308.65,127.1 L313.96,127.1 L313.96,126.2 L308.65,126.2 Z M318.7,132.15 C318.08,132.83 316.98,133.45 315.41,134.01 L315.96,134.9 C317.69,134.13 318.88,133.21 319.52,132.15 L319.54,132.15 L319.54,135.01 L320.5,135.01 L320.5,132.15 L320.52,132.15 C321.26,133.24 322.47,134.12 324.17,134.8 L324.62,133.87 C323.18,133.45 322.09,132.87 321.36,132.15 L324.37,132.15 L324.37,131.27 L320.5,131.27 L320.5,130.5 L319.54,130.5 L319.54,131.27 L315.66,131.27 L315.66,132.15 L318.7,132.15 Z M320.01,125.81 L320.01,126.79 L318.67,126.79 L318.67,127.68 L319.94,127.68 C319.87,128.14 319.75,128.53 319.59,128.86 C319.33,129.34 318.83,129.73 318.11,130.04 L318.62,130.84 C319.42,130.52 320.01,130.06 320.37,129.46 C320.65,128.98 320.83,128.39 320.91,127.68 L321.99,127.68 L321.99,129.77 C321.99,130.34 322.3,130.63 322.93,130.63 L323.49,130.63 C323.87,130.63 324.13,130.52 324.26,130.31 C324.38,130.09 324.49,129.56 324.59,128.71 L323.75,128.44 C323.71,129.09 323.66,129.47 323.6,129.58 C323.54,129.69 323.46,129.75 323.34,129.76 L323.11,129.76 C322.98,129.76 322.92,129.7 322.92,129.58 L322.92,126.79 L320.97,126.79 L320.97,125.81 L320.01,125.81 Z M316.69,125.94 L316.21,126.65 C316.79,126.87 317.36,127.17 317.92,127.55 L318.39,126.82 C317.88,126.48 317.31,126.18 316.69,125.94 L316.69,125.94 Z M316.09,127.28 L315.62,127.99 C316.13,128.18 316.63,128.45 317.12,128.79 L317.59,128.07 C317.13,127.75 316.63,127.49 316.09,127.28 L316.09,127.28 Z M317.82,128.5 C317.18,129.2 316.46,129.82 315.66,130.34 L316.32,131.07 C317.08,130.53 317.81,129.84 318.51,129.02 L317.82,128.5 Z" id="四级-中度污染" fill="#D6D9E3" sketch:type="MSShapeGroup"></path>
        <path d="M293.09,206.83 L293.09,207.76 L300.25,207.76 L300.25,206.83 L293.09,206.83 Z M292.17,213.12 L292.17,214.07 L301.16,214.07 L301.16,213.12 L292.17,213.12 Z M305.15,212.78 C304.26,213.12 303.22,213.4 302.04,213.6 L302.16,214.52 C303.28,214.31 304.27,214.03 305.15,213.68 L305.15,212.78 Z M303.81,205.77 C303.43,206.83 302.98,207.8 302.47,208.68 C302.35,208.85 302.22,208.96 302.07,209.02 L302.31,209.89 C302.83,209.83 303.34,209.76 303.84,209.69 C303.35,210.45 302.94,210.98 302.62,211.29 C302.5,211.41 302.36,211.5 302.19,211.56 L302.44,212.42 C303.42,212.3 304.45,212.08 305.53,211.76 L305.53,210.9 C304.87,211.1 304.23,211.27 303.6,211.39 C304.18,210.7 304.91,209.6 305.78,208.1 L304.95,207.79 C304.75,208.16 304.55,208.51 304.36,208.83 C303.98,208.89 303.59,208.93 303.2,208.97 C303.72,208.24 304.22,207.29 304.72,206.13 L303.81,205.77 Z M306.55,207.03 L306.55,207.46 C306.53,210.64 305.89,212.94 304.64,214.38 L305.35,215 C306.29,213.92 306.92,212.4 307.24,210.46 C307.52,211.3 307.91,212.07 308.4,212.77 C307.86,213.33 307.19,213.8 306.39,214.18 L306.92,215.05 C307.74,214.67 308.45,214.17 309.04,213.56 C309.52,214.1 310.09,214.59 310.75,215.03 L311.36,214.23 C310.7,213.83 310.12,213.37 309.62,212.86 C310.28,211.94 310.72,210.79 310.94,209.43 L310.94,208.9 L309.7,208.9 C309.85,208.29 310,207.57 310.16,206.73 L310.16,206.14 L305.64,206.14 L305.64,207.03 L306.55,207.03 Z M308.96,212.11 C308.2,211.12 307.69,209.97 307.43,208.66 C307.45,208.28 307.47,207.88 307.47,207.46 L307.47,207.03 L309.19,207.03 C308.97,208.21 308.78,209.11 308.61,209.73 L309.99,209.73 C309.8,210.62 309.46,211.41 308.96,212.11 L308.96,212.11 Z M317.47,209.35 L322.47,209.35 L322.47,210.24 L317.47,210.24 L317.47,209.35 Z M322.47,208.52 L317.47,208.52 L317.47,207.65 L322.47,207.65 L322.47,208.52 Z M320.08,205.73 L319.06,205.89 C319.21,206.16 319.35,206.46 319.48,206.79 L316.51,206.79 L316.51,213.77 C316.51,213.95 316.43,214.07 316.29,214.15 L316.51,215.02 C317.95,214.72 319.15,214.4 320.1,214.08 L319.87,213.19 C319.08,213.47 318.28,213.7 317.47,213.88 L317.47,211.1 L319.04,211.1 C320.05,213.1 321.77,214.41 324.2,215.02 L324.64,214.12 C323.62,213.9 322.74,213.55 321.98,213.08 C322.66,212.78 323.28,212.37 323.84,211.85 L323.16,211.18 C322.54,211.78 321.89,212.23 321.21,212.52 C320.74,212.12 320.34,211.64 320.02,211.1 L323.41,211.1 L323.41,206.79 L320.47,206.79 C320.34,206.39 320.21,206.04 320.08,205.73 L320.08,205.73 Z" id="二级-良" fill="#D6D9E3" sketch:type="MSShapeGroup"></path>
        <path d="M292.14,249.86 L292.14,250.8 L301.19,250.8 L301.19,249.86 L292.14,249.86 Z M305.15,252.78 C304.26,253.12 303.22,253.4 302.04,253.6 L302.16,254.52 C303.28,254.31 304.27,254.03 305.15,253.68 L305.15,252.78 Z M303.81,245.77 C303.43,246.83 302.98,247.8 302.47,248.68 C302.35,248.85 302.22,248.96 302.07,249.02 L302.31,249.89 C302.83,249.83 303.34,249.76 303.84,249.69 C303.35,250.45 302.94,250.98 302.62,251.29 C302.5,251.41 302.36,251.5 302.19,251.56 L302.44,252.42 C303.42,252.3 304.45,252.08 305.53,251.76 L305.53,250.9 C304.87,251.1 304.23,251.27 303.6,251.39 C304.18,250.7 304.91,249.6 305.78,248.1 L304.95,247.79 C304.75,248.16 304.55,248.51 304.36,248.83 C303.98,248.89 303.59,248.93 303.2,248.97 C303.72,248.24 304.22,247.29 304.72,246.13 L303.81,245.77 Z M306.55,247.03 L306.55,247.46 C306.53,250.64 305.89,252.94 304.64,254.38 L305.35,255 C306.29,253.92 306.92,252.4 307.24,250.46 C307.52,251.3 307.91,252.07 308.4,252.77 C307.86,253.33 307.19,253.8 306.39,254.18 L306.92,255.05 C307.74,254.67 308.45,254.17 309.04,253.56 C309.52,254.1 310.09,254.59 310.75,255.03 L311.36,254.23 C310.7,253.83 310.12,253.37 309.62,252.86 C310.28,251.94 310.72,250.79 310.94,249.43 L310.94,248.9 L309.7,248.9 C309.85,248.29 310,247.57 310.16,246.73 L310.16,246.14 L305.64,246.14 L305.64,247.03 L306.55,247.03 Z M308.96,252.11 C308.2,251.12 307.69,249.97 307.43,248.66 C307.45,248.28 307.47,247.88 307.47,247.46 L307.47,247.03 L309.19,247.03 C308.97,248.21 308.78,249.11 308.61,249.73 L309.99,249.73 C309.8,250.62 309.46,251.41 308.96,252.11 L308.96,252.11 Z M316.62,249.64 L316.62,255.03 L317.56,255.03 L317.56,248.25 C317.93,247.61 318.23,246.93 318.47,246.21 L317.6,245.81 C317.12,247.34 316.36,248.68 315.34,249.83 L315.62,250.77 C315.98,250.41 316.31,250.03 316.62,249.64 L316.62,249.64 Z M318.14,248.16 L318.14,249.08 L320.07,249.08 C319.85,251.45 319.09,253.22 317.81,254.4 L318.51,255.01 C319.93,253.69 320.75,251.71 320.98,249.08 L321.4,249.08 L321.4,253.94 C321.4,254.56 321.69,254.87 322.29,254.87 L323.55,254.87 C323.83,254.85 324.06,254.75 324.22,254.56 C324.36,254.37 324.48,253.73 324.56,252.65 L323.71,252.38 C323.68,253.23 323.63,253.72 323.56,253.84 C323.48,253.94 323.4,254 323.32,254 L322.54,254 C322.38,254 322.31,253.92 322.31,253.77 L322.31,249.08 L324.31,249.08 L324.31,248.16 L321.03,248.16 C321.04,248 321.05,247.83 321.05,247.67 L321.05,245.83 L320.14,245.83 L320.14,247.67 C320.14,247.83 320.13,247.99 320.12,248.16 L318.14,248.16 Z M322.34,245.95 L321.72,246.54 C322.38,247.02 322.9,247.48 323.27,247.9 L323.92,247.25 C323.49,246.81 322.96,246.38 322.34,245.95 L322.34,245.95 Z" id="一级-优" fill="#D6D9E3" sketch:type="MSShapeGroup"></path>
        <path d="M268.49,10.17 L267.67,10.68 C268.73,12.26 269.57,13.68 270.19,14.96 L271.03,14.37 C270.45,13.17 269.6,11.77 268.49,10.17 L268.49,10.17 Z M264.77,10.23 C264.21,11.89 263.34,13.21 262.17,14.21 L262.97,14.9 C264.1,13.9 265.01,12.47 265.69,10.59 L264.77,10.23 Z M262.2,8.4 L262.2,9.32 L271.14,9.32 L271.14,8.4 L262.2,8.4 Z M265.85,5.87 L265.19,6.49 C266.03,7.09 266.67,7.66 267.12,8.18 L267.82,7.48 C267.28,6.94 266.63,6.41 265.85,5.87 L265.85,5.87 Z M275.15,12.78 C274.26,13.12 273.22,13.4 272.04,13.6 L272.16,14.52 C273.28,14.31 274.27,14.03 275.15,13.68 L275.15,12.78 Z M273.81,5.77 C273.43,6.83 272.98,7.8 272.47,8.68 C272.35,8.85 272.22,8.96 272.07,9.02 L272.31,9.89 C272.83,9.83 273.34,9.76 273.84,9.69 C273.35,10.45 272.94,10.98 272.62,11.29 C272.5,11.41 272.36,11.5 272.19,11.56 L272.44,12.42 C273.42,12.3 274.45,12.08 275.53,11.76 L275.53,10.9 C274.87,11.1 274.23,11.27 273.6,11.39 C274.18,10.7 274.91,9.6 275.78,8.1 L274.95,7.79 C274.75,8.16 274.55,8.51 274.36,8.83 C273.98,8.89 273.59,8.93 273.2,8.97 C273.72,8.24 274.22,7.29 274.72,6.13 L273.81,5.77 Z M276.55,7.03 L276.55,7.46 C276.53,10.64 275.89,12.94 274.64,14.38 L275.35,15 C276.29,13.92 276.92,12.4 277.24,10.46 C277.52,11.3 277.91,12.07 278.4,12.77 C277.86,13.33 277.19,13.8 276.39,14.18 L276.92,15.05 C277.74,14.67 278.45,14.17 279.04,13.56 C279.52,14.1 280.09,14.59 280.75,15.03 L281.36,14.23 C280.7,13.83 280.12,13.37 279.62,12.86 C280.28,11.94 280.72,10.79 280.94,9.43 L280.94,8.9 L279.7,8.9 C279.85,8.29 280,7.57 280.16,6.73 L280.16,6.14 L275.64,6.14 L275.64,7.03 L276.55,7.03 Z M278.96,12.11 C278.2,11.12 277.69,9.97 277.43,8.66 C277.45,8.28 277.47,7.88 277.47,7.46 L277.47,7.03 L279.19,7.03 C278.97,8.21 278.78,9.11 278.61,9.73 L279.99,9.73 C279.8,10.62 279.46,11.41 278.96,12.11 L278.96,12.11 Z M286.34,6.13 L286.34,7.02 L288.86,7.02 L288.86,9.29 L286.33,9.29 L286.33,11.61 C286.29,12.83 285.95,13.77 285.31,14.45 L286.02,15.09 C286.82,14.22 287.24,13.06 287.28,11.61 L287.28,10.19 L294.3,10.19 L294.3,9.29 L291.55,9.29 L291.55,7.02 L294.11,7.02 L294.11,6.13 L286.34,6.13 Z M289.75,9.29 L289.75,7.02 L290.66,7.02 L290.66,9.29 L289.75,9.29 Z M292.77,7.28 C292.57,7.88 292.34,8.38 292.08,8.78 L292.85,9.06 C293.13,8.61 293.36,8.09 293.54,7.49 L292.77,7.28 Z M287.54,7.26 L286.74,7.52 C287,7.97 287.25,8.49 287.47,9.07 L288.24,8.73 C288.04,8.21 287.81,7.72 287.54,7.26 L287.54,7.26 Z M296.45,8.71 L296.45,12.15 L299.51,12.15 L299.51,12.68 L296.05,12.68 L296.05,13.43 L299.51,13.43 L299.51,14 L295.55,14 L295.55,14.81 L304.45,14.81 L304.45,14 L300.46,14 L300.46,13.43 L303.95,13.43 L303.95,12.68 L300.46,12.68 L300.46,12.15 L303.53,12.15 L303.53,8.71 L300.46,8.71 L300.46,8.22 L304.3,8.22 L304.3,7.42 L300.46,7.42 L300.46,6.82 C301.55,6.75 302.57,6.67 303.52,6.59 L303.23,5.82 C301.22,6.02 298.92,6.16 296.32,6.24 L296.48,7 C297.54,6.96 298.55,6.92 299.51,6.87 L299.51,7.42 L295.69,7.42 L295.69,8.22 L299.51,8.22 L299.51,8.71 L296.45,8.71 Z M302.61,11.4 L300.46,11.4 L300.46,10.78 L302.61,10.78 L302.61,11.4 Z M299.51,11.4 L297.36,11.4 L297.36,10.78 L299.51,10.78 L299.51,11.4 Z M297.36,10.06 L297.36,9.46 L299.51,9.46 L299.51,10.06 L297.36,10.06 Z M300.46,9.46 L302.61,9.46 L302.61,10.06 L300.46,10.06 L300.46,9.46 Z M306.33,5.92 L305.66,6.57 C306.39,7.08 306.96,7.56 307.37,8.01 L308.03,7.34 C307.57,6.87 307,6.4 306.33,5.92 L306.33,5.92 Z M306.07,8.31 L305.4,8.96 C306.13,9.48 306.7,9.96 307.1,10.42 L307.76,9.76 C307.3,9.28 306.74,8.79 306.07,8.31 L306.07,8.31 Z M306.95,11 C306.55,12.2 306.07,13.38 305.51,14.53 L306.4,14.92 C306.91,13.8 307.37,12.6 307.79,11.32 L306.95,11 Z M308.06,8.38 L308.06,9.3 L309.53,9.3 C309.42,9.96 309.26,10.69 309.06,11.51 L312.84,11.51 C312.81,12.89 312.7,13.66 312.5,13.82 C312.32,13.96 311.95,14.03 311.39,14.04 C311.08,14.04 310.75,14.03 310.39,14.02 L310.67,14.93 L311.35,14.93 C312.33,14.93 312.96,14.79 313.26,14.51 C313.58,14.22 313.76,12.94 313.8,10.66 L310.19,10.66 C310.28,10.25 310.37,9.8 310.47,9.3 L314.46,9.3 L314.46,8.38 L308.06,8.38 Z M308.65,6.2 L308.65,7.1 L313.96,7.1 L313.96,6.2 L308.65,6.2 Z M318.7,12.15 C318.08,12.83 316.98,13.45 315.41,14.01 L315.96,14.9 C317.69,14.13 318.88,13.21 319.52,12.15 L319.54,12.15 L319.54,15.01 L320.5,15.01 L320.5,12.15 L320.52,12.15 C321.26,13.24 322.47,14.12 324.17,14.8 L324.62,13.87 C323.18,13.45 322.09,12.87 321.36,12.15 L324.37,12.15 L324.37,11.27 L320.5,11.27 L320.5,10.5 L319.54,10.5 L319.54,11.27 L315.66,11.27 L315.66,12.15 L318.7,12.15 Z M320.01,5.81 L320.01,6.79 L318.67,6.79 L318.67,7.68 L319.94,7.68 C319.87,8.14 319.75,8.53 319.59,8.86 C319.33,9.34 318.83,9.73 318.11,10.04 L318.62,10.84 C319.42,10.52 320.01,10.06 320.37,9.46 C320.65,8.98 320.83,8.39 320.91,7.68 L321.99,7.68 L321.99,9.77 C321.99,10.34 322.3,10.63 322.93,10.63 L323.49,10.63 C323.87,10.63 324.13,10.52 324.26,10.31 C324.38,10.09 324.49,9.56 324.59,8.71 L323.75,8.44 C323.71,9.09 323.66,9.47 323.6,9.58 C323.54,9.69 323.46,9.75 323.34,9.76 L323.11,9.76 C322.98,9.76 322.92,9.7 322.92,9.58 L322.92,6.79 L320.97,6.79 L320.97,5.81 L320.01,5.81 Z M316.69,5.94 L316.21,6.65 C316.79,6.87 317.36,7.17 317.92,7.55 L318.39,6.82 C317.88,6.48 317.31,6.18 316.69,5.94 L316.69,5.94 Z M316.09,7.28 L315.62,7.99 C316.13,8.18 316.63,8.45 317.12,8.79 L317.59,8.07 C317.13,7.75 316.63,7.49 316.09,7.28 L316.09,7.28 Z M317.82,8.5 C317.18,9.2 316.46,9.82 315.66,10.34 L316.32,11.07 C317.08,10.53 317.81,9.84 318.51,9.02 L317.82,8.5 Z" id="六级-严重污染" fill="#D6D9E3" sketch:type="MSShapeGroup"></path>
        <path d="M262.87,166.49 L262.87,167.42 L270.49,167.42 L270.49,166.49 L262.87,166.49 Z M263.54,169.92 L263.54,170.85 L269.81,170.85 L269.81,169.92 L263.54,169.92 Z M262.14,173.61 L262.14,174.56 L271.2,174.56 L271.2,173.61 L262.14,173.61 Z M275.15,172.78 C274.26,173.12 273.22,173.4 272.04,173.6 L272.16,174.52 C273.28,174.31 274.27,174.03 275.15,173.68 L275.15,172.78 Z M273.81,165.77 C273.43,166.83 272.98,167.8 272.47,168.68 C272.35,168.85 272.22,168.96 272.07,169.02 L272.31,169.89 C272.83,169.83 273.34,169.76 273.84,169.69 C273.35,170.45 272.94,170.98 272.62,171.29 C272.5,171.41 272.36,171.5 272.19,171.56 L272.44,172.42 C273.42,172.3 274.45,172.08 275.53,171.76 L275.53,170.9 C274.87,171.1 274.23,171.27 273.6,171.39 C274.18,170.7 274.91,169.6 275.78,168.1 L274.95,167.79 C274.75,168.16 274.55,168.51 274.36,168.83 C273.98,168.89 273.59,168.93 273.2,168.97 C273.72,168.24 274.22,167.29 274.72,166.13 L273.81,165.77 Z M276.55,167.03 L276.55,167.46 C276.53,170.64 275.89,172.94 274.64,174.38 L275.35,175 C276.29,173.92 276.92,172.4 277.24,170.46 C277.52,171.3 277.91,172.07 278.4,172.77 C277.86,173.33 277.19,173.8 276.39,174.18 L276.92,175.05 C277.74,174.67 278.45,174.17 279.04,173.56 C279.52,174.1 280.09,174.59 280.75,175.03 L281.36,174.23 C280.7,173.83 280.12,173.37 279.62,172.86 C280.28,171.94 280.72,170.79 280.94,169.43 L280.94,168.9 L279.7,168.9 C279.85,168.29 280,167.57 280.16,166.73 L280.16,166.14 L275.64,166.14 L275.64,167.03 L276.55,167.03 Z M278.96,172.11 C278.2,171.12 277.69,169.97 277.43,168.66 C277.45,168.28 277.47,167.88 277.47,167.46 L277.47,167.03 L279.19,167.03 C278.97,168.21 278.78,169.11 278.61,169.73 L279.99,169.73 C279.8,170.62 279.46,171.41 278.96,172.11 L278.96,172.11 Z M287.37,168.59 L287.37,170.02 L286.55,170.02 C286.81,169.4 287.05,168.68 287.27,167.87 L289.33,167.87 L289.33,166.96 L287.5,166.96 C287.58,166.62 287.65,166.27 287.73,165.91 L286.85,165.78 C286.77,166.19 286.68,166.58 286.6,166.96 L285.45,166.96 L285.45,167.87 L286.38,167.87 C286.14,168.76 285.87,169.49 285.59,170.06 L285.79,170.91 L287.37,170.91 L287.37,172.28 C286.77,172.38 286.14,172.46 285.47,172.54 L285.59,173.46 C286.21,173.38 286.8,173.29 287.37,173.19 L287.37,174.99 L288.29,174.99 L288.29,173.01 C288.72,172.91 289.14,172.81 289.54,172.71 L289.54,171.85 C289.14,171.94 288.73,172.03 288.29,172.12 L288.29,170.91 L289.28,170.91 L289.28,170.02 L288.29,170.02 L288.29,168.59 L287.37,168.59 Z M291.36,171.79 L291.36,173.79 L289.08,173.79 L289.08,174.7 L294.52,174.7 L294.52,173.79 L292.29,173.79 L292.29,171.79 L294.08,171.79 L294.08,170.88 L289.68,170.88 L289.68,171.79 L291.36,171.79 Z M292.17,169.15 C292.91,169.65 293.49,170.13 293.93,170.58 L294.59,169.91 C294.09,169.45 293.48,168.99 292.77,168.53 C293.14,168.08 293.44,167.58 293.66,167.02 L293.66,166.27 L289.68,166.27 L289.68,167.18 L292.57,167.18 C291.95,168.3 290.85,169.17 289.25,169.8 L289.84,170.58 C290.76,170.19 291.53,169.71 292.17,169.15 L292.17,169.15 Z M297.58,171.29 L297.58,172.1 L298.25,172.1 C298.67,172.64 299.19,173.11 299.82,173.53 C298.96,173.86 297.97,174.1 296.86,174.26 L297.27,175.09 C298.59,174.87 299.76,174.53 300.76,174.06 C301.71,174.52 302.85,174.87 304.18,175.09 L304.59,174.27 C303.49,174.13 302.51,173.89 301.66,173.57 C302.38,173.13 302.99,172.61 303.5,171.99 L303.5,171.29 L297.58,171.29 Z M299.27,172.1 L302.22,172.1 C301.78,172.49 301.27,172.84 300.69,173.14 C300.14,172.84 299.67,172.5 299.27,172.1 L299.27,172.1 Z M297.14,169.2 L298.64,169.2 L298.64,170.74 L302.83,170.74 L302.83,169.2 L304.33,169.2 L304.33,168.32 L302.83,168.32 L302.83,167.64 L301.91,167.64 L301.91,168.32 L299.56,168.32 L299.56,167.65 L298.64,167.65 L298.64,168.32 L297.14,168.32 L297.14,167.4 L304.33,167.4 L304.33,166.5 L300.97,166.5 C300.87,166.22 300.76,165.96 300.65,165.73 L299.64,165.89 C299.76,166.07 299.88,166.28 299.99,166.5 L296.2,166.5 L296.2,169.76 C296.18,171.72 295.89,173.26 295.35,174.36 L296.07,175 C296.75,173.68 297.1,171.94 297.14,169.76 L297.14,169.2 Z M299.56,169.2 L301.91,169.2 L301.91,169.95 L299.56,169.95 L299.56,169.2 Z M306.33,165.92 L305.66,166.57 C306.39,167.08 306.96,167.56 307.37,168.01 L308.03,167.34 C307.57,166.87 307,166.4 306.33,165.92 L306.33,165.92 Z M306.07,168.31 L305.4,168.96 C306.13,169.48 306.7,169.96 307.1,170.42 L307.76,169.76 C307.3,169.28 306.74,168.79 306.07,168.31 L306.07,168.31 Z M306.95,171 C306.55,172.2 306.07,173.38 305.51,174.53 L306.4,174.92 C306.91,173.8 307.37,172.6 307.79,171.32 L306.95,171 Z M308.06,168.38 L308.06,169.3 L309.53,169.3 C309.42,169.96 309.26,170.69 309.06,171.51 L312.84,171.51 C312.81,172.89 312.7,173.66 312.5,173.82 C312.32,173.96 311.95,174.03 311.39,174.04 C311.08,174.04 310.75,174.03 310.39,174.02 L310.67,174.93 L311.35,174.93 C312.33,174.93 312.96,174.79 313.26,174.51 C313.58,174.22 313.76,172.94 313.8,170.66 L310.19,170.66 C310.28,170.25 310.37,169.8 310.47,169.3 L314.46,169.3 L314.46,168.38 L308.06,168.38 Z M308.65,166.2 L308.65,167.1 L313.96,167.1 L313.96,166.2 L308.65,166.2 Z M318.7,172.15 C318.08,172.83 316.98,173.45 315.41,174.01 L315.96,174.9 C317.69,174.13 318.88,173.21 319.52,172.15 L319.54,172.15 L319.54,175.01 L320.5,175.01 L320.5,172.15 L320.52,172.15 C321.26,173.24 322.47,174.12 324.17,174.8 L324.62,173.87 C323.18,173.45 322.09,172.87 321.36,172.15 L324.37,172.15 L324.37,171.27 L320.5,171.27 L320.5,170.5 L319.54,170.5 L319.54,171.27 L315.66,171.27 L315.66,172.15 L318.7,172.15 Z M320.01,165.81 L320.01,166.79 L318.67,166.79 L318.67,167.68 L319.94,167.68 C319.87,168.14 319.75,168.53 319.59,168.86 C319.33,169.34 318.83,169.73 318.11,170.04 L318.62,170.84 C319.42,170.52 320.01,170.06 320.37,169.46 C320.65,168.98 320.83,168.39 320.91,167.68 L321.99,167.68 L321.99,169.77 C321.99,170.34 322.3,170.63 322.93,170.63 L323.49,170.63 C323.87,170.63 324.13,170.52 324.26,170.31 C324.38,170.09 324.49,169.56 324.59,168.71 L323.75,168.44 C323.71,169.09 323.66,169.47 323.6,169.58 C323.54,169.69 323.46,169.75 323.34,169.76 L323.11,169.76 C322.98,169.76 322.92,169.7 322.92,169.58 L322.92,166.79 L320.97,166.79 L320.97,165.81 L320.01,165.81 Z M316.69,165.94 L316.21,166.65 C316.79,166.87 317.36,167.17 317.92,167.55 L318.39,166.82 C317.88,166.48 317.31,166.18 316.69,165.94 L316.69,165.94 Z M316.09,167.28 L315.62,167.99 C316.13,168.18 316.63,168.45 317.12,168.79 L317.59,168.07 C317.13,167.75 316.63,167.49 316.09,167.28 L316.09,167.28 Z M317.82,168.5 C317.18,169.2 316.46,169.82 315.66,170.34 L316.32,171.07 C317.08,170.53 317.81,169.84 318.51,169.02 L317.82,168.5 Z" id="三级-轻度污染" fill="#D6D9E3" sketch:type="MSShapeGroup"></path>
        <path d="M263.09,49.42 L263.09,50.34 L265.12,50.34 L264.41,53.71 L262.2,53.71 L262.2,54.64 L271.15,54.64 L271.15,53.71 L269.59,53.71 L269.59,49.42 L266.27,49.42 L266.73,47.23 L270.77,47.23 L270.77,46.31 L262.58,46.31 L262.58,47.23 L265.77,47.23 L265.31,49.42 L263.09,49.42 Z M265.36,53.71 L266.07,50.34 L268.62,50.34 L268.62,53.71 L265.36,53.71 Z M275.15,52.78 C274.26,53.12 273.22,53.4 272.04,53.6 L272.16,54.52 C273.28,54.31 274.27,54.03 275.15,53.68 L275.15,52.78 Z M273.81,45.77 C273.43,46.83 272.98,47.8 272.47,48.68 C272.35,48.85 272.22,48.96 272.07,49.02 L272.31,49.89 C272.83,49.83 273.34,49.76 273.84,49.69 C273.35,50.45 272.94,50.98 272.62,51.29 C272.5,51.41 272.36,51.5 272.19,51.56 L272.44,52.42 C273.42,52.3 274.45,52.08 275.53,51.76 L275.53,50.9 C274.87,51.1 274.23,51.27 273.6,51.39 C274.18,50.7 274.91,49.6 275.78,48.1 L274.95,47.79 C274.75,48.16 274.55,48.51 274.36,48.83 C273.98,48.89 273.59,48.93 273.2,48.97 C273.72,48.24 274.22,47.29 274.72,46.13 L273.81,45.77 Z M276.55,47.03 L276.55,47.46 C276.53,50.64 275.89,52.94 274.64,54.38 L275.35,55 C276.29,53.92 276.92,52.4 277.24,50.46 C277.52,51.3 277.91,52.07 278.4,52.77 C277.86,53.33 277.19,53.8 276.39,54.18 L276.92,55.05 C277.74,54.67 278.45,54.17 279.04,53.56 C279.52,54.1 280.09,54.59 280.75,55.03 L281.36,54.23 C280.7,53.83 280.12,53.37 279.62,52.86 C280.28,51.94 280.72,50.79 280.94,49.43 L280.94,48.9 L279.7,48.9 C279.85,48.29 280,47.57 280.16,46.73 L280.16,46.14 L275.64,46.14 L275.64,47.03 L276.55,47.03 Z M278.96,52.11 C278.2,51.12 277.69,49.97 277.43,48.66 C277.45,48.28 277.47,47.88 277.47,47.46 L277.47,47.03 L279.19,47.03 C278.97,48.21 278.78,49.11 278.61,49.73 L279.99,49.73 C279.8,50.62 279.46,51.41 278.96,52.11 L278.96,52.11 Z M286.45,48.71 L286.45,52.15 L289.51,52.15 L289.51,52.68 L286.05,52.68 L286.05,53.43 L289.51,53.43 L289.51,54 L285.55,54 L285.55,54.81 L294.45,54.81 L294.45,54 L290.46,54 L290.46,53.43 L293.95,53.43 L293.95,52.68 L290.46,52.68 L290.46,52.15 L293.53,52.15 L293.53,48.71 L290.46,48.71 L290.46,48.22 L294.3,48.22 L294.3,47.42 L290.46,47.42 L290.46,46.82 C291.55,46.75 292.57,46.67 293.52,46.59 L293.23,45.82 C291.22,46.02 288.92,46.16 286.32,46.24 L286.48,47 C287.54,46.96 288.55,46.92 289.51,46.87 L289.51,47.42 L285.69,47.42 L285.69,48.22 L289.51,48.22 L289.51,48.71 L286.45,48.71 Z M292.61,51.4 L290.46,51.4 L290.46,50.78 L292.61,50.78 L292.61,51.4 Z M289.51,51.4 L287.36,51.4 L287.36,50.78 L289.51,50.78 L289.51,51.4 Z M287.36,50.06 L287.36,49.46 L289.51,49.46 L289.51,50.06 L287.36,50.06 Z M290.46,49.46 L292.61,49.46 L292.61,50.06 L290.46,50.06 L290.46,49.46 Z M297.58,51.29 L297.58,52.1 L298.25,52.1 C298.67,52.64 299.19,53.11 299.82,53.53 C298.96,53.86 297.97,54.1 296.86,54.26 L297.27,55.09 C298.59,54.87 299.76,54.53 300.76,54.06 C301.71,54.52 302.85,54.87 304.18,55.09 L304.59,54.27 C303.49,54.13 302.51,53.89 301.66,53.57 C302.38,53.13 302.99,52.61 303.5,51.99 L303.5,51.29 L297.58,51.29 Z M299.27,52.1 L302.22,52.1 C301.78,52.49 301.27,52.84 300.69,53.14 C300.14,52.84 299.67,52.5 299.27,52.1 L299.27,52.1 Z M297.14,49.2 L298.64,49.2 L298.64,50.74 L302.83,50.74 L302.83,49.2 L304.33,49.2 L304.33,48.32 L302.83,48.32 L302.83,47.64 L301.91,47.64 L301.91,48.32 L299.56,48.32 L299.56,47.65 L298.64,47.65 L298.64,48.32 L297.14,48.32 L297.14,47.4 L304.33,47.4 L304.33,46.5 L300.97,46.5 C300.87,46.22 300.76,45.96 300.65,45.73 L299.64,45.89 C299.76,46.07 299.88,46.28 299.99,46.5 L296.2,46.5 L296.2,49.76 C296.18,51.72 295.89,53.26 295.35,54.36 L296.07,55 C296.75,53.68 297.1,51.94 297.14,49.76 L297.14,49.2 Z M299.56,49.2 L301.91,49.2 L301.91,49.95 L299.56,49.95 L299.56,49.2 Z M306.33,45.92 L305.66,46.57 C306.39,47.08 306.96,47.56 307.37,48.01 L308.03,47.34 C307.57,46.87 307,46.4 306.33,45.92 L306.33,45.92 Z M306.07,48.31 L305.4,48.96 C306.13,49.48 306.7,49.96 307.1,50.42 L307.76,49.76 C307.3,49.28 306.74,48.79 306.07,48.31 L306.07,48.31 Z M306.95,51 C306.55,52.2 306.07,53.38 305.51,54.53 L306.4,54.92 C306.91,53.8 307.37,52.6 307.79,51.32 L306.95,51 Z M308.06,48.38 L308.06,49.3 L309.53,49.3 C309.42,49.96 309.26,50.69 309.06,51.51 L312.84,51.51 C312.81,52.89 312.7,53.66 312.5,53.82 C312.32,53.96 311.95,54.03 311.39,54.04 C311.08,54.04 310.75,54.03 310.39,54.02 L310.67,54.93 L311.35,54.93 C312.33,54.93 312.96,54.79 313.26,54.51 C313.58,54.22 313.76,52.94 313.8,50.66 L310.19,50.66 C310.28,50.25 310.37,49.8 310.47,49.3 L314.46,49.3 L314.46,48.38 L308.06,48.38 Z M308.65,46.2 L308.65,47.1 L313.96,47.1 L313.96,46.2 L308.65,46.2 Z M318.7,52.15 C318.08,52.83 316.98,53.45 315.41,54.01 L315.96,54.9 C317.69,54.13 318.88,53.21 319.52,52.15 L319.54,52.15 L319.54,55.01 L320.5,55.01 L320.5,52.15 L320.52,52.15 C321.26,53.24 322.47,54.12 324.17,54.8 L324.62,53.87 C323.18,53.45 322.09,52.87 321.36,52.15 L324.37,52.15 L324.37,51.27 L320.5,51.27 L320.5,50.5 L319.54,50.5 L319.54,51.27 L315.66,51.27 L315.66,52.15 L318.7,52.15 Z M320.01,45.81 L320.01,46.79 L318.67,46.79 L318.67,47.68 L319.94,47.68 C319.87,48.14 319.75,48.53 319.59,48.86 C319.33,49.34 318.83,49.73 318.11,50.04 L318.62,50.84 C319.42,50.52 320.01,50.06 320.37,49.46 C320.65,48.98 320.83,48.39 320.91,47.68 L321.99,47.68 L321.99,49.77 C321.99,50.34 322.3,50.63 322.93,50.63 L323.49,50.63 C323.87,50.63 324.13,50.52 324.26,50.31 C324.38,50.09 324.49,49.56 324.59,48.71 L323.75,48.44 C323.71,49.09 323.66,49.47 323.6,49.58 C323.54,49.69 323.46,49.75 323.34,49.76 L323.11,49.76 C322.98,49.76 322.92,49.7 322.92,49.58 L322.92,46.79 L320.97,46.79 L320.97,45.81 L320.01,45.81 Z M316.69,45.94 L316.21,46.65 C316.79,46.87 317.36,47.17 317.92,47.55 L318.39,46.82 C317.88,46.48 317.31,46.18 316.69,45.94 L316.69,45.94 Z M316.09,47.28 L315.62,47.99 C316.13,48.18 316.63,48.45 317.12,48.79 L317.59,48.07 C317.13,47.75 316.63,47.49 316.09,47.28 L316.09,47.28 Z M317.82,48.5 C317.18,49.2 316.46,49.82 315.66,50.34 L316.32,51.07 C317.08,50.53 317.81,49.84 318.51,49.02 L317.82,48.5 Z" id="五级-重度污染" fill="#D6D9E3" sketch:type="MSShapeGroup"></path>
      </g>
    </g>
  </g>
</svg>
