<?xml version="1.0" encoding="UTF-8" standalone="no"?>
<svg width="18px" height="18px" viewBox="0 0 18 18" version="1.1" xmlns="http://www.w3.org/2000/svg" xmlns:xlink="http://www.w3.org/1999/xlink">
    <!-- Generator: Sketch 3.8.3 (29802) - http://www.bohemiancoding.com/sketch -->
    <title>target</title>
    <desc>Created with Sketch.</desc>
    <defs></defs>
    <g id="Page-1" stroke="none" stroke-width="1" fill="none" fill-rule="evenodd">
        <g id="location-search-start" transform="translate(-36.000000, -159.000000)" fill="#FF8098">
            <g id="result-box" transform="translate(25.000000, 139.000000)">
                <g id="target-+-target" transform="translate(11.000000, 20.000000)">
                    <path d="M17,8 L15,8 C14.44775,8 14,8.44775 14,9 C14,11.757 11.757,14 9,14 C8.44775,14 8,14.44775 8,15 C8,15.55225 8.44775,16 9,16 C12.52025,16 15.440625,13.38775 15.9275,10 L17,10 L17,8 L17,8 Z M9,2 C5.47975,2 2.559375,4.61225 2.0725,8 L1,8 L1,10 L3,10 C3.55225,10 4,9.55225 4,9 C4,6.243 6.243,4 9,4 C9.55225,4 10,3.55225 10,3 C10,2.44775 9.55225,2 9,2 L9,2 L9,2 Z M6,9 C6,7.343125 7.343125,6 9,6 C10.656875,6 12,7.343125 12,9 C12,10.656875 10.656875,12 9,12 C7.343125,12 6,10.656875 6,9 L6,9 L6,9 Z" id="target"></path>
                </g>
            </g>
        </g>
    </g>
</svg>