<?xml version="1.0" encoding="UTF-8" standalone="no"?>
<svg width="552px" height="59px" viewBox="0 0 552 59" version="1.1" xmlns="http://www.w3.org/2000/svg" xmlns:xlink="http://www.w3.org/1999/xlink" xmlns:sketch="http://www.bohemiancoding.com/sketch/ns">
  <!-- Generator: Sketch 3.4.4 (17249) - http://www.bohemiancoding.com/sketch -->
  <title>Group</title>
  <desc>Created with Sketch.</desc>
  <defs></defs>
  <g id="Page-1" stroke="none" stroke-width="1" fill="none" fill-rule="evenodd" sketch:type="MSPage">
    <g id="Group" sketch:type="MSLayerGroup" transform="translate(-2.000000, 0.000000)">
      <text id="20" sketch:type="MSTextLayer" font-family="Brandon Text" font-size="18" font-weight="420" sketch:alignment="middle" letter-spacing="-0.400000006" fill="#8F8F9D">
        <tspan x="533.663" y="58">20</tspan>
      </text>
      <g transform="translate(5.000000, 0.000000)" sketch:type="MSShapeGroup">
        <rect id="40" fill="#AD1328" x="140" y="0" width="14" height="28"></rect>
        <rect id="39.5" fill="#D32338" x="154" y="0" width="14" height="28"></rect>
        <rect id="40" fill="#F13044" x="168" y="0" width="14" height="28"></rect>
        <rect id="40" fill="#F95C49" x="182" y="0" width="14" height="28"></rect>
        <rect id="40" fill="#F7754A" x="196" y="0" width="14" height="28"></rect>
        <rect id="40" fill="#FB874D" x="210" y="0" width="14" height="28"></rect>
        <rect id="40" fill="#FA9D54" x="224" y="0" width="14" height="28"></rect>
        <rect id="40" fill="#FDAC6B" x="238" y="0" width="14" height="28"></rect>
        <rect id="40" fill="#FEBA58" x="252" y="0" width="14" height="28"></rect>
        <rect id="40" fill="#FBCB3E" x="266" y="0" width="14" height="28"></rect>
        <rect id="40" fill="#FDF496" x="308" y="0" width="14" height="28"></rect>
        <rect id="40" fill="#FAE76A" x="294" y="0" width="14" height="28"></rect>
        <rect id="40" fill="#F8DC23" x="280" y="0" width="14" height="28"></rect>
        <rect id="40" fill="#FFFABC" x="322" y="0" width="14" height="28"></rect>
        <rect id="40" fill="#F4F4B3" x="336" y="0" width="14" height="28"></rect>
        <rect id="40" fill="#E0EBAA" x="350" y="0" width="14" height="28"></rect>
        <rect id="40" fill="#D4E7A4" x="364" y="0" width="14" height="28"></rect>
        <rect id="40" fill="#C2E09B" x="378" y="0" width="14" height="28"></rect>
        <rect id="40" fill="#ABD890" x="392" y="0" width="14" height="28"></rect>
        <rect id="40" fill="#8CC56E" x="406" y="0" width="14" height="28"></rect>
        <rect id="40" fill="#76B952" x="420" y="0" width="14" height="28"></rect>
        <rect id="40" fill="#61AC52" x="434" y="0" width="14" height="28"></rect>
        <rect id="40" fill="#4B9D52" x="448" y="0" width="14" height="28"></rect>
        <rect id="40" fill="#339260" x="462" y="0" width="14" height="28"></rect>
        <rect id="40" fill="#43968E" x="476" y="0" width="14" height="28"></rect>
        <rect id="40" fill="#46AFB0" x="490" y="0" width="14" height="28"></rect>
        <rect id="40" fill="#57C1C9" x="504" y="0" width="14" height="28"></rect>
        <rect id="40" fill="#6BD2DA" x="518" y="0" width="14" height="28"></rect>
        <rect id="40" fill="#8ADBE8" x="532" y="0" width="14" height="28"></rect>
        <rect id="40" fill="#8E0B1D" transform="translate(133.000000, 14.000000) scale(-1, 1) translate(-133.000000, -14.000000) " x="126" y="0" width="14" height="28"></rect>
        <rect id="39.5" fill="#6F0211" transform="translate(119.000000, 14.000000) scale(-1, 1) translate(-119.000000, -14.000000) " x="112" y="0" width="14" height="28"></rect>
        <rect id="40" fill="#790735" transform="translate(105.000000, 14.000000) scale(-1, 1) translate(-105.000000, -14.000000) " x="98" y="0" width="14" height="28"></rect>
        <rect id="40" fill="#8B0D40" transform="translate(91.000000, 14.000000) scale(-1, 1) translate(-91.000000, -14.000000) " x="84" y="0" width="14" height="28"></rect>
        <rect id="40" fill="#A41851" transform="translate(77.000000, 14.000000) scale(-1, 1) translate(-77.000000, -14.000000) " x="70" y="0" width="14" height="28"></rect>
        <rect id="40" fill="#B82762" transform="translate(63.000000, 14.000000) scale(-1, 1) translate(-63.000000, -14.000000) " x="56" y="0" width="14" height="28"></rect>
        <rect id="40" fill="#CD377F" transform="translate(49.000000, 14.000000) scale(-1, 1) translate(-49.000000, -14.000000) " x="42" y="0" width="14" height="28"></rect>
        <rect id="40" fill="#DC4A93" transform="translate(35.000000, 14.000000) scale(-1, 1) translate(-35.000000, -14.000000) " x="28" y="0" width="14" height="28"></rect>
        <rect id="40" fill="#EA59AB" transform="translate(21.000000, 14.000000) scale(-1, 1) translate(-21.000000, -14.000000) " x="14" y="0" width="14" height="28"></rect>
        <rect id="40" fill="#EB6AC0" transform="translate(7.000000, 14.000000) scale(-1, 1) translate(-7.000000, -14.000000) " x="0" y="0" width="14" height="28"></rect>
      </g>
      <text id="24" sketch:type="MSTextLayer" font-family="Brandon Text" font-size="18" font-weight="420" sketch:alignment="middle" letter-spacing="-0.400000006" fill="#8F8F9D">
        <tspan x="477.843" y="58">24</tspan>
      </text>
      <text id="28" sketch:type="MSTextLayer" font-family="Brandon Text" font-size="18" font-weight="420" sketch:alignment="middle" letter-spacing="-0.400000006" fill="#8F8F9D">
        <tspan x="422.005" y="58">28</tspan>
      </text>
      <text id="32" sketch:type="MSTextLayer" font-family="Brandon Text" font-size="18" font-weight="420" sketch:alignment="middle" letter-spacing="-0.400000006" fill="#8F8F9D">
        <tspan x="366.401" y="58">32</tspan>
      </text>
      <text id="36" sketch:type="MSTextLayer" font-family="Brandon Text" font-size="18" font-weight="420" sketch:alignment="middle" letter-spacing="-0.400000006" fill="#8F8F9D">
        <tspan x="254.14" y="58">36</tspan>
      </text>
      <text id="39" sketch:type="MSTextLayer" font-family="Brandon Text" font-size="18" font-weight="420" sketch:alignment="middle" letter-spacing="-0.400000006" fill="#8F8F9D">
        <tspan x="170.14" y="58">39</tspan>
      </text>
      <text id="41" sketch:type="MSTextLayer" font-family="Brandon Text" font-size="18" font-weight="420" sketch:alignment="middle" letter-spacing="-0.400000006" fill="#8F8F9D">
        <tspan x="115.517" y="58">41</tspan>
      </text>
      <text id="43" sketch:type="MSTextLayer" font-family="Brandon Text" font-size="18" font-weight="420" sketch:alignment="middle" letter-spacing="-0.400000006" fill="#8F8F9D">
        <tspan x="57.672" y="58">43</tspan>
      </text>
      <text id="45" sketch:type="MSTextLayer" font-family="Brandon Text" font-size="18" font-weight="420" sketch:alignment="middle" letter-spacing="-0.400000006" fill="#8F8F9D">
        <tspan x="1.62700001" y="58">45</tspan>
      </text>
      <text id="34" sketch:type="MSTextLayer" font-family="Brandon Text" font-size="18" font-weight="420" sketch:alignment="middle" letter-spacing="-0.400000006" fill="#8F8F9D">
        <tspan x="309.672" y="58">34</tspan>
      </text>
      <text id="40" sketch:type="MSTextLayer" font-family="Brandon Text" font-size="18" font-weight="420" sketch:alignment="middle" letter-spacing="-0.400000006" fill="#8F8F9D">
        <tspan x="140.934" y="58">40</tspan>
      </text>
      <text id="38" sketch:type="MSTextLayer" font-family="Brandon Text" font-size="18" font-weight="420" sketch:alignment="middle" letter-spacing="-0.400000006" fill="#8F8F9D">
        <tspan x="197.924" y="58">38</tspan>
      </text>
      <text id="42" sketch:type="MSTextLayer" font-family="Brandon Text" font-size="18" font-weight="420" sketch:alignment="middle" letter-spacing="-0.400000006" fill="#8F8F9D">
        <tspan x="85.753" y="58">42</tspan>
      </text>
      <text id="44" sketch:type="MSTextLayer" font-family="Brandon Text" font-size="18" font-weight="420" sketch:alignment="middle" letter-spacing="-0.400000006" fill="#8F8F9D">
        <tspan x="29.024" y="58">44</tspan>
      </text>
    </g>
  </g>
</svg>
