<?xml version="1.0" encoding="UTF-8" standalone="no"?>
<svg width="220px" height="169px" viewBox="0 0 220 169" version="1.1" xmlns="http://www.w3.org/2000/svg" xmlns:xlink="http://www.w3.org/1999/xlink">
    <!-- Generator: Sketch 3.7.1 (28215) - http://www.bohemiancoding.com/sketch -->
    <title>llustration</title>
    <desc>Created with Sketch.</desc>
    <defs></defs>
    <g id="Page-1" stroke="none" stroke-width="1" fill="none" fill-rule="evenodd">
        <g id="upload_3" transform="translate(-78.000000, -303.000000)">
            <g id="Group" transform="translate(18.000000, 226.000000)">
                <g id="Group-2" transform="translate(60.000000, 77.000000)">
                    <g id="llustration">
                        <g id="cloud&amp;star">
                            <g id="cloud" fill="#DCF0FB">
                                <g transform="translate(74.589041, 0.966664)" id="Rectangle-1285">
                                    <rect x="66.4613396" y="47.415142" width="64.15536" height="8.54326882" rx="8"></rect>
                                    <path d="M126.222563,55.1040839 L85.714443,55.1040839 L91.2674269,55.1040839 C93.6262544,55.1040839 95.5384619,57.0213602 95.5384619,59.3757183 C95.5384619,61.7348769 93.6237459,63.6473527 91.2674269,63.6473527 L85.714443,63.6473527 L126.222563,63.6473527 L115.616849,63.6473527 C113.258021,63.6473527 111.345814,61.7300765 111.345814,59.3757183 C111.345814,57.0165598 113.26053,55.1040839 115.616849,55.1040839 L126.222563,55.1040839 Z"></path>
                                    <rect x="80.5755188" y="61.5115355" width="64.15536" height="8.54326882" rx="8"></rect>
                                    <rect x="14.1141792" y="0" width="51.324288" height="8.54326882" rx="8"></rect>
                                    <path d="M58.4781165,7.68894194 L17.9699961,7.68894194 L24.1645337,7.68894194 C26.5233612,7.68894194 28.4355686,9.60621822 28.4355686,11.9605764 C28.4355686,14.3197349 26.5208527,16.2322108 24.1645337,16.2322108 L17.9699961,16.2322108 L58.4781165,16.2322108 L48.5139554,16.2322108 C46.1551279,16.2322108 44.2429205,14.3149345 44.2429205,11.9605764 C44.2429205,9.60141781 46.1576364,7.68894194 48.5139554,7.68894194 L58.4781165,7.68894194 Z"></path>
                                    <rect x="0" y="15.3778839" width="61.5891456" height="8.54326882" rx="8"></rect>
                                </g>
                                <g transform="translate(0.000000, 84.277228)">
                                    <path d="M119.108301,8.45268749 L62.5345639,8.45268749 C60.2112453,8.45268749 58.3101946,6.5507482 58.3101946,4.22634374 L58.3101946,4.22634374 C58.3101946,1.90193929 60.2112453,0 62.5345639,0 L119.108301,0 C121.431619,0 123.33267,1.90193929 123.33267,4.22634374 L123.33267,4.22634374 C123.33267,6.5507482 121.431619,8.45268749 119.108301,8.45268749" id="Fill-1"></path>
                                    <path d="M125.065329,24.3784927 L40.7482034,24.3784927 C38.4248849,24.3784927 36.5238341,22.4765534 36.5238341,20.152149 L36.5238341,20.152149 C36.5238341,17.8277445 38.4248849,15.9258052 40.7482034,15.9258052 L125.065329,15.9258052 C127.388648,15.9258052 129.289699,17.8277445 129.289699,20.152149 L129.289699,20.152149 C129.289699,22.4765534 127.388648,24.3784927 125.065329,24.3784927" id="Fill-3"></path>
                                    <path d="M93.2806658,39.6407227 L22.8183212,39.6407227 C20.4950027,39.6407227 18.5939519,37.7387835 18.5939519,35.414379 L18.5939519,35.414379 C18.5939519,33.0899745 20.4950027,31.1880353 22.8183212,31.1880353 L93.2806658,31.1880353 C95.6039844,31.1880353 97.5050351,33.0899745 97.5050351,35.414379 L97.5050351,35.414379 C97.5050351,37.7387835 95.6039844,39.6407227 93.2806658,39.6407227" id="Fill-5"></path>
                                    <path d="M94.937112,12.1892464 C94.937112,9.86484191 96.8381627,7.96290262 99.1614813,7.96290262 L60.0343389,7.96290262 C62.3576574,7.96290262 64.2581444,9.86484191 64.2581444,12.1892464 C64.2581444,14.5136508 62.3576574,16.4155901 60.0343389,16.4155901 L99.1614813,16.4155901 C96.8381627,16.4155901 94.937112,14.5136508 94.937112,12.1892464" id="Fill-7"></path>
                                    <path d="M81.7911429,28.1150516 C81.7911429,25.7906471 83.7812702,23.8887079 86.2133974,23.8887079 L48.4770889,23.8887079 C50.9092162,23.8887079 52.8993434,25.7906471 52.8993434,28.1150516 C52.8993434,30.4394561 50.9092162,32.3413953 48.4770889,32.3413953 L86.2133974,32.3413953 C83.7812702,32.3413953 81.7911429,30.4394561 81.7911429,28.1150516" id="Fill-9"></path>
                                    <path d="M49.1675913,8.45268749 L47.9250302,8.45268749 C45.6017117,8.45268749 43.7006609,6.5507482 43.7006609,4.22634374 L43.7006609,4.22634374 C43.7006609,1.90193929 45.6017117,0 47.9250302,0 L49.1675913,0 C51.4909098,0 53.3919606,1.90193929 53.3919606,4.22634374 L53.3919606,4.22634374 C53.3919606,6.5507482 51.4909098,8.45268749 49.1675913,8.45268749" id="Fill-15"></path>
                                    <path d="M9.34683286,39.6407227 L4.2243693,39.6407227 C1.90105075,39.6407227 0,37.7387835 0,35.414379 L0,35.414379 C0,33.0899745 1.90105075,31.1880353 4.2243693,31.1880353 L9.34683286,31.1880353 C11.6701514,31.1880353 13.5712022,33.0899745 13.5712022,35.414379 L13.5712022,35.414379 C13.5712022,37.7387835 11.6701514,39.6407227 9.34683286,39.6407227" id="Fill-17"></path>
                                </g>
                            </g>
                            <g id="star" transform="translate(6.780822, 0.000000)">
                                <path d="M186.05161,67.9272422 C186.05161,68.79417 185.349146,69.4969625 184.482623,69.4969625 C183.6161,69.4969625 182.913636,68.79417 182.913636,67.9272422 C182.913636,67.0603143 183.6161,66.3575218 184.482623,66.3575218 C185.349146,66.3575218 186.05161,67.0603143 186.05161,67.9272422" id="Fill-100" fill="#FD8199"></path>
                                <path d="M186.255639,104.231077 C184.776856,104.231077 183.577706,103.031367 183.577706,101.551892 C183.577706,100.072418 184.776856,98.8727075 186.255639,98.8727075 C187.734422,98.8727075 188.933572,100.072418 188.933572,101.551892 C188.933572,103.031367 187.734422,104.231077 186.255639,104.231077 Z" id="Stroke-102" stroke="#FD8199" stroke-width="2"></path>
                                <path d="M163.074087,112.850687 C163.074087,113.607063 162.461263,114.220738 161.704676,114.220738 C160.948653,114.220738 160.335266,113.607063 160.335266,112.850687 C160.335266,112.094311 160.948653,111.480637 161.704676,111.480637 C162.461263,111.480637 163.074087,112.094311 163.074087,112.850687" id="Fill-104" fill="#FD8199"></path>
                                <path d="M51.5490492,124.231035 C50.9604677,124.231035 50.4835136,123.753294 50.4835136,123.164438 C50.4835136,122.575581 50.9604677,122.09784 51.5490492,122.09784 C52.1381945,122.09784 52.6151485,122.575581 52.6151485,123.164438 C52.6151485,123.753294 52.1381945,124.231035 51.5490492,124.231035 Z" id="Fill-106" fill="#FD8199"></path>
                                <path d="M40.4238615,136.095205 L37.6991348,136.095205 C37.2080864,136.095205 36.8061145,135.693046 36.8061145,135.202332 L36.8061145,135.202332 C36.8061145,134.711054 37.2080864,134.308894 37.6991348,134.308894 L40.4238615,134.308894 C40.9149099,134.308894 41.316318,134.711054 41.316318,135.202332 L41.316318,135.202332 C41.316318,135.693046 40.9149099,136.095205 40.4238615,136.095205" id="Fill-108" fill="#FD8199"></path>
                                <path d="M33.1190946,136.095205 L30.394368,136.095205 C29.9033196,136.095205 29.5013477,135.693046 29.5013477,135.202332 L29.5013477,135.202332 C29.5013477,134.711054 29.9033196,134.308894 30.394368,134.308894 L33.1190946,134.308894 C33.610143,134.308894 34.0115512,134.711054 34.0115512,135.202332 L34.0115512,135.202332 C34.0115512,135.693046 33.610143,136.095205 33.1190946,136.095205" id="Fill-110" fill="#FD8199"></path>
                                <path d="M34.8139054,139.919058 L34.8139054,137.193058 C34.8139054,136.70178 35.2153135,136.29962 35.7063619,136.29962 C36.1974103,136.29962 36.5993822,136.70178 36.5993822,137.193058 L36.5993822,139.919058 C36.5993822,140.410336 36.1974103,140.811931 35.7063619,140.811931 C35.2153135,140.811931 34.8139054,140.410336 34.8139054,139.919058" id="Fill-112" fill="#FD8199"></path>
                                <path d="M34.8139054,132.61973 L34.8139054,129.89373 C34.8139054,129.402452 35.2153135,129.000292 35.7063619,129.000292 C36.1974103,129.000292 36.5993822,129.402452 36.5993822,129.89373 L36.5993822,132.61973 C36.5993822,133.111008 36.1974103,133.512604 35.7063619,133.512604 C35.2153135,133.512604 34.8139054,133.111008 34.8139054,132.61973" id="Fill-114" fill="#FD8199"></path>
                                <path d="M61.585575,146.691398 C63.0130544,146.691398 64.1704853,147.84937 64.1704853,149.277517 C64.1704853,150.705663 63.0130544,151.863635 61.585575,151.863635 C60.1580956,151.863635 59.0006646,150.705663 59.0006646,149.277517 C59.0006646,148.948118 59.0621161,148.63282 59.1748712,148.342904" id="Stroke-116" stroke="#FD8199" stroke-width="2" stroke-linecap="round" stroke-linejoin="round"></path>
                                <path d="M4.62792155,107.849667 C4.62792155,109.070812 3.67795995,110.0607 2.50587083,110.0607 C1.33378171,110.0607 0.383820109,109.070812 0.383820109,107.849667 C0.383820109,106.628523 1.33378171,105.638635 2.50587083,105.638635 C3.67795995,105.638635 4.62792155,106.628523 4.62792155,107.849667 L4.62792155,107.849667 Z" id="Stroke-118" stroke="#FD8199" stroke-width="2"></path>
                                <path d="M30.6806447,85.9997464 C30.0215913,85.9997464 29.4871321,85.4650375 29.4871321,84.805112 C29.4871321,84.1451864 30.0215913,83.6104775 30.6806447,83.6104775 C31.340262,83.6104775 31.8747211,84.1451864 31.8747211,84.805112 C31.8747211,85.4650375 31.340262,85.9997464 30.6806447,85.9997464 Z" id="Fill-120" fill="#FD8199"></path>
                                <path d="M139.187589,28.3946345 C139.187589,29.05456 138.65313,29.5892689 137.993513,29.5892689 C137.334459,29.5892689 136.8,29.05456 136.8,28.3946345 C136.8,27.7347089 137.334459,27.2 137.993513,27.2 C138.65313,27.2 139.187589,27.7347089 139.187589,28.3946345" id="Fill-122" fill="#FD8199"></path>
                                <path d="M101.870243,7.61887205 C101.870243,8.16204154 101.430498,8.60199191 100.887582,8.60199191 C100.344667,8.60199191 99.9049219,8.16204154 99.9049219,7.61887205 C99.9049219,7.07570255 100.344667,6.63575218 100.887582,6.63575218 C101.430498,6.63575218 101.870243,7.07570255 101.870243,7.61887205" id="Fill-124" fill="#FD8199"></path>
                                <path d="M138.386633,138.010533 C138.040475,138.010533 137.756895,137.726821 137.756895,137.380501 C137.756895,137.034182 138.040475,136.75047 138.386633,136.75047 L140.309107,136.75047 C140.655265,136.75047 140.938844,137.034182 140.938844,137.380501 C140.938844,137.726821 140.655265,138.010533 140.309107,138.010533 L138.386633,138.010533 Z" id="Fill-126" fill="#FD8199"></path>
                                <path d="M135.660619,138.010533 L133.738145,138.010533 C133.391987,138.010533 133.108407,137.726821 133.108407,137.380501 L133.108407,137.380501 C133.108407,137.034182 133.391987,136.75047 133.738145,136.75047 L135.660619,136.75047 C136.006777,136.75047 136.290356,137.034182 136.290356,137.380501 L136.290356,137.380501 C136.290356,137.726821 136.006777,138.010533 135.660619,138.010533" id="Fill-128" fill="#FD8199"></path>
                                <path d="M136.428756,140.631025 L136.428756,138.707652 C136.428756,138.361332 136.712335,138.07762 137.058493,138.07762 C137.404651,138.07762 137.68823,138.361332 137.68823,138.707652 L137.68823,140.631025 C137.68823,140.977345 137.404651,141.261056 137.058493,141.261056 C136.712335,141.261056 136.428756,140.977345 136.428756,140.631025" id="Fill-130" fill="#FD8199"></path>
                                <path d="M136.428756,135.985998 L136.428756,134.062625 C136.428756,133.716305 136.712335,133.432594 137.058493,133.432594 C137.404651,133.432594 137.68823,133.716305 137.68823,134.062625 L137.68823,135.985998 C137.68823,136.332318 137.404651,136.61603 137.058493,136.61603 C136.712335,136.61603 136.428756,136.332318 136.428756,135.985998" id="Fill-132" fill="#FD8199"></path>
                                <path d="M125.035503,5.24151429 L123.113029,5.24151429 C122.766871,5.24151429 122.483292,4.95780271 122.483292,4.6114828 C122.483292,4.26516289 122.766871,3.98145131 123.113029,3.98145131 L125.035503,3.98145131 C125.381662,3.98145131 125.665241,4.26516289 125.665241,4.6114828 C125.665241,4.95780271 125.381662,5.24151429 125.035503,5.24151429" id="Fill-134" fill="#FD8199"></path>
                                <path d="M120.387015,5.24151429 L118.464541,5.24151429 C118.118383,5.24151429 117.834804,4.95780271 117.834804,4.6114828 C117.834804,4.26516289 118.118383,3.98145131 118.464541,3.98145131 L120.387015,3.98145131 C120.733174,3.98145131 121.016753,4.26516289 121.016753,4.6114828 C121.016753,4.95780271 120.733174,5.24151429 120.387015,5.24151429" id="Fill-136" fill="#FD8199"></path>
                                <path d="M121.155153,7.86200601 L121.155153,5.93863324 C121.155153,5.59231333 121.438732,5.30860175 121.78489,5.30860175 C122.131048,5.30860175 122.414627,5.59231333 122.414627,5.93863324 L122.414627,7.86200601 C122.414627,8.20832591 122.131048,8.4920375 121.78489,8.4920375 C121.438732,8.4920375 121.155153,8.20832591 121.155153,7.86200601" id="Fill-138" fill="#FD8199"></path>
                                <path d="M121.155153,2.55340426 L121.155153,0.630031491 C121.155153,0.283711585 121.438732,0 121.78489,0 C122.131048,0 122.414627,0.283711585 122.414627,0.630031491 L122.414627,2.55340426 C122.414627,2.89972417 122.131048,3.18343575 121.78489,3.18343575 C121.438732,3.18343575 121.155153,2.89972417 121.155153,2.55340426" id="Fill-140" fill="#FD8199"></path>
                                <path d="M15.5680685,36.9042049 L15.5680685,35.3051545 C15.5680685,34.8657682 15.9277573,34.5059114 16.3669383,34.5059114 C16.8066832,34.5059114 17.1663719,34.8657682 17.1663719,35.3051545 L17.1663719,36.9042049 C17.1663719,37.3441553 16.8066832,37.7034481 16.3669383,37.7034481 C15.9277573,37.7034481 15.5680685,37.3441553 15.5680685,36.9042049" id="Fill-143" fill="#FD8199"></path>
                                <path d="M15.5680685,26.6786767 C15.5680685,26.2392904 15.9277573,25.8794335 16.3669383,25.8794335 C16.8066832,25.8794335 17.1663719,26.2392904 17.1663719,26.6786767 L17.1663719,28.2777271 C17.1663719,28.7176774 16.8066832,29.0769702 16.3669383,29.0769702 C15.9277573,29.0769702 15.5680685,28.7176774 15.5680685,28.2777271 L15.5680685,26.6786767 Z" id="Fill-145" fill="#FD8199"></path>
                                <path d="M11.7184503,31.1880353 L13.3167537,31.1880353 C13.7559347,31.1880353 14.1156235,31.5478921 14.1156235,31.9872784 C14.1156235,32.4272288 13.7559347,32.7870856 13.3167537,32.7870856 L11.7184503,32.7870856 C11.2787055,32.7870856 10.9195805,32.4272288 10.9195805,31.9872784 C10.9195805,31.5478921 11.2787055,31.1880353 11.7184503,31.1880353" id="Fill-147" fill="#FD8199"></path>
                                <path d="M20.3513566,31.1880353 L21.9496599,31.1880353 C22.388841,31.1880353 22.7485297,31.5478921 22.7485297,31.9872784 C22.7485297,32.4272288 22.388841,32.7870856 21.9496599,32.7870856 L20.3513566,32.7870856 C19.9116117,32.7870856 19.5524868,32.4272288 19.5524868,31.9872784 C19.5524868,31.5478921 19.9116117,31.1880353 20.3513566,31.1880353" id="Fill-149" fill="#FD8199"></path>
                                <path d="M12.4807002,34.5426071 L13.6105061,33.412273 C13.9217102,33.1009235 14.4302356,33.1009235 14.7408759,33.412273 L14.7408759,33.412273 C15.0515161,33.7230585 15.0515161,34.2318216 14.7408759,34.5426071 L13.6105061,35.6729411 C13.2998659,35.9842906 12.7913404,35.9842906 12.4807002,35.6729411 C12.1700599,35.3621556 12.1700599,34.8533925 12.4807002,34.5426071" id="Fill-151" fill="#FD8199"></path>
                                <path d="M18.4573276,28.5704301 L19.5871335,27.4400961 C19.8983376,27.1287466 20.406863,27.1287466 20.7175033,27.4400961 C21.0281435,27.7508815 21.0281435,28.2596446 20.7175033,28.5704301 L19.5871335,29.7007641 C19.2764933,30.0121136 18.7679678,30.0121136 18.4573276,29.7007641 L18.4573276,29.7007641 C18.1466873,29.3899787 18.1466873,28.8812155 18.4573276,28.5704301" id="Fill-153" fill="#FD8199"></path>
                                <path d="M13.610929,27.439673 L14.7407349,28.5700071 C15.051939,28.8813566 15.051939,29.3901197 14.7407349,29.7009051 L14.7407349,29.7009051 C14.4300947,30.0116906 13.9215692,30.0116906 13.610929,29.7009051 L12.481123,28.5700071 C12.169919,28.2592216 12.169919,27.7504585 12.481123,27.439673 C12.7917633,27.1288876 13.3002887,27.1288876 13.610929,27.439673" id="Fill-155" fill="#FD8199"></path>
                                <path d="M20.7173623,34.542184 C21.0285664,34.8535335 21.0285664,35.3622966 20.7173623,35.6730821 C20.4067221,35.9838676 19.8981966,35.9838676 19.5875564,35.6730821 L18.4577504,34.542184 C18.1465464,34.2313986 18.1465464,33.7226355 18.4577504,33.41185 C18.7683907,33.1010646 19.2769161,33.1010646 19.5875564,33.41185 L20.7173623,34.542184 Z" id="Fill-157" fill="#FD8199"></path>
                                <path d="M58.323197,15.0631575 L53.9838175,15.0631575 C53.673741,15.0631575 53.4200421,14.8093399 53.4200421,14.4991185 C53.4200421,14.1888971 53.673741,13.9350796 53.9838175,13.9350796 L58.323197,13.9350796 C58.6332735,13.9350796 58.8869724,14.1888971 58.8869724,14.4991185 C58.8869724,14.8093399 58.6332735,15.0631575 58.323197,15.0631575" id="Fill-159" fill="#FD8199"></path>
                                <path d="M55.4122512,16.8498006 L55.4122512,12.5083929 C55.4122512,12.1981715 55.6659502,11.9443539 55.9760267,11.9443539 L55.9760267,11.9443539 C56.2861031,11.9443539 56.5398021,12.1981715 56.5398021,12.5083929 L56.5398021,16.8498006 C56.5398021,17.160022 56.2861031,17.4138395 55.9760267,17.4138395 L55.9760267,17.4138395 C55.6659502,17.4138395 55.4122512,17.160022 55.4122512,16.8498006" id="Fill-161" fill="#FD8199"></path>
                                <path d="M55.9760267,16.1262444 C55.1871901,16.1262444 54.547593,15.4871235 54.547593,14.6988744 C54.547593,13.9106253 55.1871901,13.2715044 55.9760267,13.2715044 C56.7648632,13.2715044 57.4044604,13.9106253 57.4044604,14.6988744 C57.4044604,15.4871235 56.7648632,16.1262444 55.9760267,16.1262444 Z" id="Fill-163" fill="#FD8199"></path>
                                <path d="M158.240498,91.9558317 L151.663494,91.9558317 C151.193305,91.9558317 150.80881,91.5711571 150.80881,91.1007487 C150.80881,90.6309042 151.193305,90.2462297 151.663494,90.2462297 L158.240498,90.2462297 C158.710686,90.2462297 159.095181,90.6309042 159.095181,91.1007487 C159.095181,91.5711571 158.710686,91.9558317 158.240498,91.9558317" id="Fill-165" fill="#FD8199"></path>
                                <path d="M154.129159,94.3635148 L154.129159,87.7834366 C154.129159,87.3130281 154.513653,86.9283536 154.983842,86.9283536 C155.453467,86.9283536 155.837962,87.3130281 155.837962,87.7834366 L155.837962,94.3635148 C155.837962,94.8339233 155.453467,95.2185979 154.983842,95.2185979 C154.513653,95.2185979 154.129159,94.8339233 154.129159,94.3635148" id="Fill-167" fill="#FD8199"></path>
                                <path d="M154.919687,93.1572678 C153.749289,93.1572678 152.801019,92.2085543 152.801019,91.0381735 C152.801019,89.8677927 153.749289,88.9190792 154.919687,88.9190792 C156.089521,88.9190792 157.037791,89.8677927 157.037791,91.0381735 C157.037791,92.2085543 156.089521,93.1572678 154.919687,93.1572678 Z" id="Fill-169" fill="#FD8199"></path>
                            </g>
                        </g>
                        <path d="M161.504514,164.720378 C161.504514,166.774771 138.334057,168.440756 109.751886,168.440756 C81.1697143,168.440756 58,166.774771 58,164.720378 C58,162.665985 81.1697143,161 109.751886,161 C138.334057,161 161.504514,162.665985 161.504514,164.720378" id="Fill-24" fill="#EEEEEE"></path>
                        <g id="Re-upload" transform="translate(56.000000, 30.000000)">
                            <circle id="Oval-1428" fill="#FFFFFF" cx="54" cy="54" r="54"></circle>
                            <path d="M107.646594,55.6844432 C107.646594,83.5274143 85.2346571,106.098631 57.587166,106.098631 C29.9407093,106.098631 7.52773818,83.5274143 7.52773818,55.6844432 C7.52773818,27.8414722 29.9407093,5.27025537 57.587166,5.27025537 C85.2346571,5.27025537 107.646594,27.8414722 107.646594,55.6844432" id="Fill-1" fill="#FFEA47"></path>
                            <path d="M62.7423563,5.40512622 C60.8868477,5.2406748 59.331282,5.16310337 57.4054421,5.27066908 C80.4565674,8.35387475 97.9401329,29.6663659 97.9401329,55.359057 C97.9401329,83.1699651 77.0351503,105.716359 51.247305,105.719462 C54.9428078,106.749611 58.8131049,107.300885 62.8013105,107.300885 C88.5922588,107.300885 107.646904,83.9343023 107.646904,55.6848569 C107.646904,27.4343773 87.2890588,7.57919476 62.7423563,5.40512622" id="Fill-3" fill="#FFB32A"></path>
                            <path d="M38.3626909,3.20509711 C43.2021137,1.77054285 48.3269993,1 53.632885,1 C83.2527588,1 107.264736,25.0119768 107.264736,54.6318507 C107.264736,84.2527588 83.2527588,108.263701 53.632885,108.263701 C24.0119768,108.263701 0,84.2527588 0,54.6318507 C0,37.1451823 8.36943988,21.613314 21.3197311,11.8227656" id="Stroke-5" stroke="#455892" stroke-width="4" stroke-linecap="round" stroke-linejoin="round"></path>
                            <path d="M27.6468705,8.00583762 C28.6759847,7.43491191 29.7257847,6.89708335 30.7942019,6.39338621" id="Stroke-7" stroke="#455892" stroke-width="4" stroke-linecap="round" stroke-linejoin="round"></path>
                            <path d="M27.6468705,8.00583762 C28.6759847,7.43491191 29.7257847,6.89708335 30.7942019,6.39338621" id="Stroke-9" stroke="#455892" stroke-width="4" stroke-linecap="round" stroke-linejoin="round"></path>
                            <path d="M51.8454324,49.948605 C51.8454324,51.3772121 50.6883253,52.5343193 49.2597182,52.5343193 C47.831111,52.5343193 46.6740039,51.3772121 46.6740039,49.948605 C46.6740039,48.5199979 47.831111,47.3628908 49.2597182,47.3628908 C50.6883253,47.3628908 51.8454324,48.5199979 51.8454324,49.948605" id="Fill-15" fill="#231815"></path>
                            <path d="M60.6368609,49.948605 C60.6368609,51.3772121 59.4797537,52.5343193 58.0511466,52.5343193 C56.6225395,52.5343193 55.4654324,51.3772121 55.4654324,49.948605 C55.4654324,48.5199979 56.6225395,47.3628908 58.0511466,47.3628908 C59.4797537,47.3628908 60.6368609,48.5199979 60.6368609,49.948605" id="Fill-17" fill="#231815"></path>
                            <path d="M47.7082896,30.8143196 C47.7082896,30.8143196 46.1568611,38.0543195 37.3654326,37.5371766" id="Stroke-11" stroke="#231815" stroke-width="4" stroke-linecap="round" stroke-linejoin="round"></path>
                            <path d="M59.555722,30.8143196 C59.555722,30.8143196 61.1071506,38.0543195 69.898579,37.5371766" id="Stroke-13" stroke="#231815" stroke-width="4" stroke-linecap="round" stroke-linejoin="round"></path>
                        </g>
                    </g>
                </g>
            </g>
        </g>
    </g>
</svg>